<?xml version="1.0" standalone="no"?>
<!DOCTYPE svg PUBLIC "-//W3C//DTD SVG 1.1//EN" "http://www.w3.org/Graphics/SVG/1.1/DTD/svg11.dtd" >
<svg xmlns="http://www.w3.org/2000/svg" xmlns:xlink="http://www.w3.org/1999/xlink" version="1.1">
<metadata>
Created by FontForge 20200427 at Thu Apr  7 17:40:53 2011
 By www
Part of the digitally encoded machine readable outline data for producing the Typefaces provided is copyrighted 2007 Linotype GmbH, www.linotype.com. All rights reserved. This software is the property of Linotype GmbH, and may not be reproduced, used, displayed, modified, disclosed or transferred without the express written approval of Linotype GmbH.  Copyright (c) 1987, 1991, 1995, 1998 Adobe Systems Incorporated. All rights reserved. Cooper Black is a trademark of Linotype GmbH and may be registered in certain jurisdictions. This typeface is original artwork of Oswald Cooper. The design may be protected in certain jurisdictions.
</metadata>
<defs>
<font id="CooperBlackW01" horiz-adv-x="630" >
  <font-face 
    font-family="CooperBlackW01"
    font-weight="400"
    font-stretch="normal"
    units-per-em="1000"
    panose-1="2 8 9 3 4 3 11 2 4 4"
    ascent="701"
    descent="-299"
    x-height="508"
    cap-height="712"
    bbox="-98 -250 1299 953"
    underline-thickness="50"
    underline-position="-150"
    unicode-range="U+000D-E308"
  />
<missing-glyph horiz-adv-x="315" 
 />
    <glyph glyph-name=".notdef" horiz-adv-x="315" 
 />
    <glyph glyph-name="glyph1" horiz-adv-x="315" 
 />
    <glyph glyph-name="uni000D" unicode="&#xd;" horiz-adv-x="315" 
 />
    <glyph glyph-name="space" unicode=" " horiz-adv-x="315" 
 />
    <glyph glyph-name="exclam" unicode="!" horiz-adv-x="324" 
d="M273 97q0 -23 -9 -43t-24 -35t-35 -24t-43 -9t-43 9t-35 24t-24 35t-9 43t9 43t24 35t35 24t43 9t43 -9t35 -24t24 -35t9 -43zM282 562q0 -47 -15 -98.5t-36 -93.5q-3 -7 -11 -21t-17.5 -28t-20.5 -24.5t-20 -10.5t-20 10.5t-20.5 24.5t-17.5 28t-11 21q-21 42 -36 93.5
t-15 98.5q0 28 7 55t21.5 49t37 35.5t54.5 13.5t54.5 -13.5t37 -35.5t21.5 -49t7 -55z" />
    <glyph glyph-name="quotedbl" unicode="&#x22;" horiz-adv-x="587" 
d="M157 715q29 0 49.5 -12t33.5 -31.5t19 -44.5t6 -50q0 -42 -12.5 -89.5t-32.5 -84.5q-3 -6 -10.5 -18t-16.5 -24.5t-18.5 -22t-17.5 -9.5t-17.5 9.5t-18.5 22t-16 24.5t-10 18q-20 37 -33 84.5t-13 89.5q0 25 6 50t19.5 44.5t33.5 31.5t49 12zM430 715q29 0 49.5 -12
t33.5 -31.5t19 -44.5t6 -50q0 -42 -12.5 -89.5t-32.5 -84.5q-3 -6 -10.5 -18t-16.5 -24.5t-18.5 -22t-17.5 -9.5t-17.5 9.5t-18.5 22t-16 24.5t-10 18q-20 37 -33 84.5t-13 89.5q0 25 6 50t19.5 44.5t33.5 31.5t49 12z" />
    <glyph glyph-name="numbersign" unicode="#" 
d="M387 19q-3 -19 -22 -19h-38q-8 0 -13 5.5t-3 13.5l20 145q1 8 -3.5 13.5t-11.5 5.5h-36q-8 0 -13.5 -5.5t-6.5 -13.5l-20 -145q-3 -19 -22 -19h-38q-8 0 -13 5.5t-3 13.5l21 145q1 8 -3.5 13.5t-11.5 5.5h-45q-19 0 -19 19v38q0 19 19 19h56q8 0 13.5 5.5t7.5 13.5l5 37
q1 8 -3.5 13.5t-11.5 5.5h-45q-19 0 -19 19v38q0 19 19 19h56q8 0 13.5 5.5t7.5 13.5l18 134q3 19 22 19h38q8 0 13 -5.5t3 -13.5l-20 -135q-2 -8 2.5 -13t12.5 -5h35q8 0 13.5 5.5t7.5 13.5l19 134q3 19 22 19h38q8 0 13 -5.5t3 -13.5l-19 -135q-2 -8 2.5 -13t12.5 -5h45
q19 0 19 -19v-38q0 -19 -19 -19h-56q-8 0 -13.5 -5.5t-6.5 -13.5l-5 -38q-2 -8 2.5 -13t12.5 -5h45q19 0 19 -19v-38q0 -19 -19 -19h-58q-8 0 -13.5 -5.5t-6.5 -13.5zM327 259q8 0 13.5 5.5t7.5 13.5l5 37q1 8 -3.5 13.5t-11.5 5.5h-35q-8 0 -13.5 -5.5t-6.5 -13.5l-5 -38
q-2 -8 2.5 -13t12.5 -5h34z" />
    <glyph glyph-name="dollar" unicode="$" 
d="M486 594q14 0 30.5 -13t31 -33.5t24.5 -45t10 -47.5q0 -25 -13.5 -42.5t-39.5 -17.5q-20 0 -38.5 16t-39.5 34.5t-47 34.5t-60 16q-22 0 -38 -11t-16 -35t22.5 -37.5t56.5 -24t73.5 -22.5t73.5 -34t56.5 -58t22.5 -93q0 -49 -23.5 -86.5t-57 -63.5t-70.5 -40.5t-64 -16.5
q-18 -2 -19.5 -9t-1.5 -25t-1 -28t-6.5 -14.5t-16 -5t-28.5 -0.5q-17 0 -28.5 -0.5t-18 3t-9 13t-2.5 28.5v23.5t-15 13.5q-14 2 -34.5 6t-41.5 9.5t-39.5 12.5t-29.5 15q-13 10 -23.5 29.5t-17.5 42.5t-10.5 45.5t-3.5 37.5q0 17 8 32t28 15q17 0 28.5 -10.5t22 -26
t22 -33.5t29.5 -33.5t43.5 -26t64.5 -10.5q8 0 20.5 2t24 7t20 13.5t8.5 20.5q0 11 -3 19t-15 15.5t-35.5 16.5t-63.5 24q-34 12 -67.5 30t-59.5 43t-42.5 57t-16.5 73q0 37 14 70.5t38 59.5t56 44t68 25q19 4 21 9.5t2 25.5q0 19 1 28.5t6.5 14t16 5t28.5 0.5t29 0.5
t17.5 -3t9 -13t2.5 -28.5q0 -5 -0.5 -11t0 -11.5t3.5 -10t10 -5.5q5 -1 15.5 -3.5t21.5 -5t20.5 -4.5t11.5 -2q9 0 20 5t25 5z" />
    <glyph glyph-name="percent" unicode="%" horiz-adv-x="852" 
d="M838 183q0 -43 -19 -77.5t-50 -59t-69.5 -37.5t-78.5 -13q-37 0 -71 10.5t-60 31.5t-41.5 52t-15.5 71q0 47 18.5 82.5t49.5 59.5t71.5 36.5t83.5 12.5q33 0 66 -13.5t58.5 -36.5t41.5 -54t16 -65zM679 125q0 13 -3 37.5t-10.5 49t-19.5 42.5t-30 18q-15 0 -22.5 -12.5
t-7.5 -25.5q0 -6 3 -30t10.5 -50.5t19.5 -47.5t31 -21q17 0 23 13t6 27zM419 542q0 -43 -19 -77.5t-50 -59t-69.5 -37.5t-78.5 -13q-37 0 -71 11t-60 32t-41.5 51.5t-15.5 70.5q0 47 18.5 83t49.5 60t71.5 36t83.5 12q33 0 66 -13.5t58.5 -36.5t41.5 -53.5t16 -65.5z
M260 484q0 13 -3 37.5t-10.5 49t-19.5 42.5t-30 18q-15 0 -22.5 -12.5t-7.5 -25.5q0 -6 3 -30t10.5 -50.5t19.5 -47.5t31 -21q17 0 23 13t6 27zM351 145q-27 -45 -40.5 -74.5t-23 -46t-18.5 -23t-26 -6.5q-6 0 -15.5 1t-19.5 4t-17 8t-7 13q0 12 5.5 21t21 32t44 67
t75.5 125l233 405q11 23 23 33.5t38 10.5q6 0 14 -0.5t15.5 -3t12.5 -7t5 -12.5q0 -11 -6.5 -23.5t-21.5 -35.5t-40 -61.5t-62 -102.5z" />
    <glyph glyph-name="ampersand" unicode="&#x26;" horiz-adv-x="913" 
d="M471 215q-12 0 -20.5 7.5t-14 18.5t-8 23.5t-2.5 21.5q0 50 20.5 84t50.5 56.5t66 37.5t66 28t50.5 26.5t20.5 34.5q0 11 -6.5 19t-17.5 8q-7 0 -12 -3.5t-14 -3.5q-8 0 -14.5 6.5t-6.5 15.5q0 21 14.5 36t35.5 25t44 15t39 5q28 0 55.5 -8.5t48.5 -25t34 -40.5t13 -55
q0 -32 -11 -56.5t-27.5 -43t-36 -32.5t-36 -24.5t-27.5 -19t-11 -15.5q0 -11 11.5 -19t26 -19.5t26 -30t11.5 -51.5q0 -40 -27 -84t-79.5 -81t-130 -61t-179.5 -24q-99 0 -175 24t-128 63.5t-79 90.5t-27 104q0 47 17 76t38 46.5t38 26.5t17 17q0 4 -5.5 15t-12.5 25.5
t-12.5 31.5t-5.5 34q0 41 21.5 75.5t56.5 59.5t79.5 39t91.5 14q21 0 51 -5t58 -16t47.5 -29.5t19.5 -46.5q0 -21 -17.5 -39.5t-39.5 -18.5q-11 0 -21.5 6.5t-22 14.5t-25.5 14.5t-32 6.5q-29 0 -45 -21t-16 -48q0 -25 8 -37t20 -17.5t26.5 -7t26.5 -4.5t20 -10.5t8 -24.5
q0 -30 -8.5 -45t-21.5 -21.5t-28 -9t-28 -7t-21.5 -14.5t-8.5 -33q0 -38 16.5 -75t43.5 -66.5t63 -47.5t75 -18q25 0 52 8t49 23.5t36.5 38t14.5 51.5q0 27 -20 44t-47 17q-24 0 -37.5 -11.5t-23.5 -26t-18 -26t-20 -11.5z" />
    <glyph glyph-name="quotesingle" unicode="'" horiz-adv-x="315" 
d="M157 715q29 0 49.5 -12t33.5 -31.5t19 -44.5t6 -50q0 -42 -12.5 -89.5t-32.5 -84.5q-3 -6 -10.5 -18t-16.5 -24.5t-18.5 -22t-17.5 -9.5t-17.5 9.5t-18.5 22t-16 24.5t-10 18q-20 37 -33 84.5t-13 89.5q0 25 6 50t19.5 44.5t33.5 31.5t49 12z" />
    <glyph glyph-name="parenleft" unicode="(" horiz-adv-x="524" 
d="M70 350q0 51 8.5 105t26 104.5t44 95t63.5 77.5t84.5 52.5t105.5 19.5q37 0 59.5 -4.5t34 -12t15 -17t3.5 -18.5q0 -19 -9 -34.5t-29 -15.5q-27 0 -37.5 2.5t-18.5 2.5q-30 0 -51.5 -20.5t-36 -53t-23.5 -73t-14 -80t-6.5 -74.5t-1.5 -56t1.5 -56t6.5 -74.5t14 -80
t23.5 -73t36 -53t51.5 -20.5q8 0 18.5 2.5t37.5 2.5q20 0 29 -15.5t9 -34.5q0 -9 -3.5 -18.5t-15 -17t-34 -12t-59.5 -4.5q-58 0 -105.5 19.5t-84.5 52.5t-63.5 77.5t-44 95t-26 104t-8.5 105.5z" />
    <glyph glyph-name="parenright" unicode=")" horiz-adv-x="524" 
d="M454 350q0 -51 -8.5 -105t-26 -104.5t-44 -95t-63.5 -77.5t-84.5 -52.5t-105.5 -19.5q-38 0 -60 4.5t-33.5 12t-15 17t-3.5 18.5q0 19 9 34.5t29 15.5q27 0 37.5 -2.5t18.5 -2.5q30 0 51.5 20.5t36 53t23.5 73t14 80t6.5 74.5t1.5 56t-1.5 56t-6.5 74.5t-14 80t-23.5 73
t-36 53t-51.5 20.5q-8 0 -18.5 -2.5t-37.5 -2.5q-20 0 -29 15.5t-9 34.5q0 9 3.5 18.5t15 17t33.5 12t60 4.5q58 0 105.5 -19.5t84.5 -52.5t63.5 -77.5t44 -95t26 -104.5t8.5 -105z" />
    <glyph glyph-name="asterisk" unicode="*" horiz-adv-x="758" 
d="M495 607q8 2 19.5 6t19.5 4q13 0 21 -12t12.5 -27t6 -27.5t1.5 -13.5q0 -18 -17.5 -25t-38 -10.5t-38 -7t-17.5 -13.5q0 -3 9.5 -15t21.5 -27.5t21.5 -31t9.5 -25.5q0 -7 -9.5 -17t-22.5 -19.5t-25.5 -16t-18.5 -6.5q-10 0 -20.5 16t-21 34.5t-20 34.5t-16.5 16
q-5 0 -17 -14t-25.5 -31.5t-27.5 -31.5t-24 -14q-6 0 -17 6.5t-22.5 16.5t-19.5 20.5t-8 18.5q0 14 11.5 28.5t25 28t25 24.5t11.5 17q0 9 -16 13t-34.5 9.5t-34.5 14t-16 25.5q0 6 3 18.5t8.5 25t12.5 22.5t16 10q12 0 26.5 -5.5t28 -12.5t25 -12.5t16.5 -5.5q7 0 8.5 8.5
t1.5 17.5q0 6 -0.5 11t-0.5 7v42q1 20 12.5 27t29.5 7q10 0 20.5 -0.5t19.5 -3.5t14.5 -9.5t5.5 -19.5q0 -17 -3.5 -40.5t-3.5 -44.5q0 -10 9 -10q3 0 11.5 2.5t11.5 3.5z" />
    <glyph glyph-name="plus" unicode="+" 
d="M424 198h-31.5t-14.5 -4q-5 -5 -5 -15.5v-31.5v-68v-29t-5 -20t-17 -12t-36 -4t-36 4t-17 12t-5 20v29v68q0 21 0.5 32t-4.5 15t-15.5 4h-31.5h-68h-29t-20 5t-12 17t-4 36t4 36t12 17t20 5h29h68h31.5t15.5 5q4 4 4 14.5v31.5v68v29t5 20t17 12t36 4t36 -4t17 -12t5 -20
v-29v-68q0 -21 0.5 -31t4.5 -15t14.5 -5h31.5h68h29t20 -5t12 -17t4 -36t-4 -36t-12 -17t-20 -5h-29h-68z" />
    <glyph glyph-name="comma" unicode="," horiz-adv-x="315" 
d="M142 -185q-16 0 -33 11t-17 28q0 6 8 19.5t17 30t17 34.5t8 33q0 16 -17 23.5t-38 19t-38 33.5t-17 67q0 24 9 46t25 38.5t37.5 26.5t45.5 10q34 0 59 -15t41.5 -39t24.5 -54t8 -60q0 -33 -11 -76.5t-29.5 -82.5t-44 -66t-55.5 -27z" />
    <glyph glyph-name="hyphen" unicode="-" horiz-adv-x="299" 
d="M259 204q-10 -19 -21 -27.5t-33 -8.5q-18 0 -36.5 4t-36.5 4q-33 0 -51.5 -0.5t-28.5 -1.5t-14.5 -1.5t-7.5 -0.5q-12 0 -21 8t-9 22q0 9 5 27t11.5 37.5t13.5 36t10 23.5q10 19 21 27.5t33 8.5q18 0 36.5 -4t36.5 -4q33 0 51.5 0.5t28.5 1.5t14.5 1.5t7.5 0.5
q12 0 21 -8t9 -22q0 -9 -5 -27t-11.5 -37.5t-13.5 -36t-10 -23.5z" />
    <glyph glyph-name="period" unicode="." horiz-adv-x="315" 
d="M278 107q0 -25 -9.5 -47t-26 -38.5t-38.5 -26t-47 -9.5t-47 9.5t-38.5 26t-26 38.5t-9.5 47t9.5 47t26 38.5t38.5 26t47 9.5t47 -9.5t38.5 -26t26 -38.5t9.5 -47z" />
    <glyph glyph-name="slash" unicode="/" horiz-adv-x="496" 
d="M141 -56q-13 -27 -20.5 -44.5t-14 -28t-15.5 -15t-26 -4.5q-9 0 -24 1t-28.5 5t-23.5 11.5t-10 19.5q0 9 9 27t23.5 44.5t33.5 61t40 76.5l249 511q13 27 20 44.5t14 28t16 15t26 4.5q9 0 24 -1t28.5 -5t23.5 -11.5t10 -19.5q0 -9 -9 -27t-23.5 -44.5t-33.5 -61
t-40 -76.5z" />
    <glyph glyph-name="zero" unicode="0" 
d="M26 293q0 63 19 117.5t54.5 94t87.5 62t118 22.5q63 0 118 -25t95 -67t63 -98t23 -118q0 -74 -27 -129.5t-69.5 -92t-94 -55t-100.5 -18.5q-65 0 -118 24.5t-90.5 66.5t-58 98t-20.5 118zM380 217q0 18 -3.5 55t-12.5 74.5t-25 65.5t-41 28q-16 0 -25.5 -8t-14.5 -20
t-6.5 -26t-1.5 -26q0 -11 1.5 -32t5.5 -46t10 -51t15.5 -47.5t22 -35t28.5 -13.5q15 0 24 8.5t14.5 21t7 27t1.5 25.5z" />
    <glyph glyph-name="one" unicode="1" 
d="M193 371q0 17 -1.5 29t-6.5 19.5t-16 11t-29 3.5q-10 0 -19 -1t-18 -1q-16 0 -28 8t-12 25q0 26 37.5 48.5t93.5 39.5t121 26.5t121 9.5q12 0 26 -1t27 -5.5t21.5 -13.5t8.5 -25q0 -19 -11.5 -25t-25.5 -12.5t-25.5 -21t-12.5 -49.5q-1 -40 -1.5 -67.5t-0.5 -52.5
q0 -17 0.5 -39.5t1 -46.5t2.5 -46.5t5 -38.5q4 -22 15.5 -32.5t26.5 -14.5t30.5 -4.5t28.5 -3t21.5 -10t8.5 -25.5q0 -26 -19 -36t-41 -15q-20 -4 -46 -7.5t-54 -5.5t-55 -3.5t-47 -1.5q-9 0 -33 0.5t-55 3t-64.5 7.5t-62 13t-46.5 20.5t-18 29.5q0 18 14 29t31 11
q13 0 26 -3t26 -3q14 0 24.5 6t17 21.5t10 43t3.5 70.5v136z" />
    <glyph glyph-name="two" unicode="2" 
d="M562 206q14 0 22.5 -7.5t13.5 -19t7 -24.5t2 -24q0 -42 -12 -75t-29 -56.5t-36.5 -35.5t-34.5 -12q-21 0 -26 7.5t-9.5 16.5t-16.5 16.5t-46 7.5h-330h-17t-19 2.5t-15.5 7.5t-6.5 16q0 6 1 10.5t7.5 12.5t21.5 22.5t43 41.5q19 18 48.5 48.5t57 65t47 69t19.5 61.5
q0 26 -15 41.5t-41 15.5q-23 0 -38 -9t-27 -20t-24.5 -20t-29.5 -9q-11 0 -22.5 5t-21 13t-15.5 18.5t-6 21.5q0 33 31.5 64.5t78 56t101 39.5t100.5 15q63 0 108.5 -13.5t74.5 -35.5t42.5 -50t13.5 -58q0 -32 -12.5 -60t-31 -52.5t-40.5 -45.5t-40.5 -38t-31 -31t-12.5 -24
q0 -17 14.5 -26t29.5 -9q27 0 44.5 9.5t30.5 20.5t24 20.5t23 9.5z" />
    <glyph glyph-name="three" unicode="3" 
d="M206 192q-28 0 -47 -5t-25 -5q-9 0 -16.5 9.5t-13.5 22.5t-9 26.5t-3 20.5q0 10 10 17t25 14t32 14.5t32 18.5t25 26.5t10 39.5q0 13 -6.5 25.5t-17.5 21.5t-25 14.5t-29 5.5q-18 0 -33.5 -5.5t-28.5 -12t-22.5 -12t-16.5 -5.5q-8 0 -14.5 6t-11.5 15t-7.5 18.5
t-2.5 16.5q0 20 23.5 39.5t60.5 35.5t83 25.5t90 9.5q30 0 72 -5.5t80 -20t65 -40t27 -65.5q0 -32 -11.5 -53t-26 -34.5t-26 -22t-11.5 -17.5t12.5 -13.5t31 -9.5t40.5 -13.5t40.5 -25t31 -44.5t12.5 -71q0 -48 -22.5 -94.5t-69 -83t-118.5 -59.5t-171 -23q-13 0 -34.5 1
t-46.5 4t-51 9t-46.5 15t-34 22t-13.5 31q0 24 16.5 39t39.5 15q21 0 49 -9t75 -9q24 0 47.5 6.5t43 18.5t31.5 30t12 41q0 22 -9.5 37.5t-24.5 26t-34 15.5t-38 5z" />
    <glyph glyph-name="four" unicode="4" 
d="M250 176q26 0 40 0.5t21 6.5t8 19t1 37q0 16 1.5 40t1 46.5t-6 38t-20.5 14.5q-15 -2 -26 -10.5t-19 -20.5q-7 -9 -24.5 -29t-35.5 -42.5t-31.5 -44t-13.5 -33.5q0 -9 9.5 -14t21.5 -6.5t24 -1.5h18h31zM537 230q0 -22 2.5 -31t26.5 -9q26 0 32 -6.5t6 -34.5v-80
q0 -17 -3 -29t-24 -14q-12 -1 -17.5 -3t-8 -8t-2.5 -17v-31q0 -17 0.5 -29t-2.5 -20t-12 -11.5t-28 -3.5h-151q-18 0 -27 2t-12 8.5t-3 18v31.5v31.5t-4 20t-14.5 10.5t-30.5 3h-175q-20 0 -34.5 2t-24.5 9t-14.5 20t-4.5 35q0 28 3.5 48t14 41t31 47.5t53.5 67.5l231 266
q31 29 66 46.5t79 17.5q17 0 26.5 -5.5t14 -14.5t5.5 -21.5t1 -25.5v-331z" />
    <glyph glyph-name="five" unicode="5" 
d="M286 402q-9 0 -18 -0.5t-16.5 -3t-12 -9t-4.5 -18.5q0 -9 5 -14t12.5 -7.5t16.5 -3t17 -1.5q97 -11 158 -35.5t95 -55.5t46 -63t12 -58q0 -48 -26.5 -92t-74.5 -77.5t-115 -53t-148 -19.5q-60 0 -97.5 7.5t-58.5 19.5t-28.5 26t-7.5 28q0 5 1.5 14.5t4.5 19t8.5 16.5
t13.5 7q2 0 13 -3t27 -7t35 -7t38 -3q16 0 33 3.5t31 11.5t23.5 21t9.5 32q0 24 -15.5 41.5t-38 29t-47.5 18.5t-44 10q-10 1 -27 3t-33.5 7t-28.5 14t-12 25q0 19 8 51.5t18.5 67.5t22 68t18.5 52q17 47 28.5 71t22 34.5t22.5 11.5t31 1h341q14 0 23 -1t14.5 -5.5t7.5 -13
t2 -24.5q0 -17 -4.5 -40.5t-15.5 -44.5t-29.5 -36t-46.5 -15h-210z" />
    <glyph glyph-name="six" unicode="6" 
d="M620 261q0 -52 -20.5 -101.5t-58.5 -88t-92.5 -62t-122.5 -23.5q-69 0 -126 23t-97.5 63t-62.5 94.5t-22 118.5q0 41 13 85t33.5 86.5t46 81t51 67.5t48.5 46t39 17q8 1 31 -4t48 -13.5t44 -19.5t19 -22q0 -10 -10 -21.5t-16 -18.5q-28 -31 -49 -63.5t-21 -56.5
q0 -7 4 -13t12 -6q6 0 17.5 4t27 9.5t34 9.5t39.5 4q40 0 75 -16t60.5 -43t40.5 -62.5t15 -74.5zM400 171q0 17 -6 41.5t-17 46.5t-28 37.5t-39 15.5q-26 0 -37 -19.5t-11 -42.5q0 -16 7.5 -37.5t20 -41t29 -33t34.5 -13.5q21 0 34 12.5t13 33.5z" />
    <glyph glyph-name="seven" unicode="7" 
d="M544 582q10 0 20.5 -0.5t19.5 -4.5t15 -11.5t6 -21.5q0 -9 -2.5 -17.5t-5.5 -17.5l-201 -608q-3 -10 -5.5 -16.5t-8 -10.5t-16 -5.5t-28.5 -1.5q-41 0 -70.5 6.5t-48.5 15.5t-28 18.5t-9 15.5q0 5 4 12.5t6 11.5l180 344l7.5 15t9 18.5t7.5 18.5t3 16q0 15 -14 22
t-33.5 9.5t-39.5 2t-31 -0.5q-50 0 -77.5 -4.5t-41.5 -11.5t-18.5 -15t-8.5 -15t-12.5 -11.5t-28.5 -4.5q-23 0 -37.5 10.5t-22.5 27t-11.5 36t-3.5 37.5q0 36 7.5 66.5t20 53.5t28.5 36t34 13q15 0 23.5 -4.5t19.5 -9.5t30 -9.5t56 -4.5h306z" />
    <glyph glyph-name="eight" unicode="8" 
d="M609 487q0 -32 -13.5 -52.5t-30 -34t-30 -22t-13.5 -15.5t9.5 -13.5t14.5 -10.5q33 -23 53 -59.5t20 -77.5q0 -30 -14.5 -67.5t-48 -70.5t-88 -55.5t-134.5 -22.5q-46 0 -102 10t-105 33t-82.5 62t-33.5 97q0 35 13 57.5t29 36.5t29 23t13 17q0 6 -10.5 16t-23.5 26
t-23.5 39t-10.5 55q0 46 23.5 82t62 60.5t88 37t102.5 12.5q25 0 57.5 -3t66.5 -9.5t66.5 -18.5t58.5 -30t41.5 -43.5t15.5 -58.5zM330 555q-18 0 -35.5 -9.5t-17.5 -29.5q0 -14 12 -29t28.5 -27.5t34.5 -20.5t30 -8q9 0 15.5 6.5t11 15.5t6.5 19t2 17q0 18 -8 30.5
t-20.5 20.5t-28 11.5t-30.5 3.5zM307 90q25 0 47.5 11t22.5 40q0 16 -6.5 27t-16.5 19t-22 14l-24 12q-9 4 -22 10.5t-27.5 12.5t-28 10t-22.5 4q-15 0 -20.5 -13.5t-5.5 -26.5q0 -24 10.5 -46t28 -38.5t40 -26t46.5 -9.5z" />
    <glyph glyph-name="nine" unicode="9" 
d="M494 38q-11 -15 -35 -43.5t-52 -56.5t-56 -49t-48 -21q-11 0 -32.5 7t-43 17.5t-38 22.5t-16.5 23q0 8 8 15t14 10q18 9 35.5 26t31.5 36.5t23 39.5t9 35q0 10 -6 14.5t-15 4.5q-12 0 -24 -1.5t-24 -1.5q-54 0 -94 21.5t-66.5 56t-39 77t-12.5 85.5q0 60 26.5 104
t68.5 72.5t95 42.5t106 14q56 0 110.5 -14t97 -44t68.5 -76t26 -109q0 -87 -33 -163t-84 -145zM387 304q0 16 -5 39.5t-15 45.5t-25.5 37.5t-37.5 15.5q-25 0 -38 -21t-13 -44q0 -19 5.5 -41.5t16 -42t27 -32.5t38.5 -13q23 0 35 17.5t12 38.5z" />
    <glyph glyph-name="colon" unicode=":" horiz-adv-x="315" 
d="M278 404q0 -25 -9.5 -47t-26 -38.5t-38.5 -26t-47 -9.5t-47 9.5t-38.5 26t-26 38.5t-9.5 47t9.5 47t26 38.5t38.5 26t47 9.5t47 -9.5t38.5 -26t26 -38.5t9.5 -47zM278 107q0 -25 -9.5 -47t-26 -38.5t-38.5 -26t-47 -9.5t-47 9.5t-38.5 26t-26 38.5t-9.5 47t9.5 47
t26 38.5t38.5 26t47 9.5t47 -9.5t38.5 -26t26 -38.5t9.5 -47z" />
    <glyph glyph-name="semicolon" unicode=";" horiz-adv-x="315" 
d="M282 67q0 -33 -11 -76.5t-29.5 -82.5t-44 -66t-55.5 -27q-16 0 -33 11t-17 28q0 6 8 19.5t17 30t17 34.5t8 33q0 16 -17 23.5t-38 19t-38 33.5t-17 67q0 24 9 46t25 38.5t37.5 26.5t45.5 10q34 0 59 -15t41.5 -39t24.5 -54t8 -60zM274 404q0 -25 -9.5 -47t-26 -38.5
t-38.5 -26t-47 -9.5t-47 9.5t-38.5 26t-26 38.5t-9.5 47t9.5 47t26 38.5t38.5 26t47 9.5t47 -9.5t38.5 -26t26 -38.5t9.5 -47z" />
    <glyph glyph-name="less" unicode="&#x3c;" 
d="M519 142q24 -10 31 -20t7 -27v-32q0 -6 -1 -14.5t-3.5 -16t-6 -13t-9.5 -5.5q-11 0 -19.5 3.5t-18.5 7.5l-409 178q-6 3 -9.5 9t-5 13.5t-2 15.5t-0.5 15t0.5 15t2 15.5t5 13.5t9.5 9l409 178q10 4 18.5 7.5t19.5 3.5q6 0 9.5 -5.5t6 -13t3.5 -16t1 -14.5v-31
q0 -18 -7 -28t-31 -20l-262 -114z" />
    <glyph glyph-name="equal" unicode="=" 
d="M138 296h-29t-20 5t-12 17t-4 36t4 36t12 17t20 5h29h354h29t20 -5t12 -17t4 -36t-4 -36t-12 -17t-20 -5h-29h-354zM138 100h-29t-20 5t-12 17t-4 36t4 36t12 17t20 5h29h354h29t20 -5t12 -17t4 -36t-4 -36t-12 -17t-20 -5h-29h-354z" />
    <glyph glyph-name="greater" unicode="&#x3e;" 
d="M373 256l-262 114q-24 10 -31 20t-7 27v32q0 6 1 14.5t3.5 16t6 13t9.5 5.5q11 0 19.5 -3.5t18.5 -7.5l409 -178q6 -3 9.5 -9t5 -13.5t2 -15.5t0.5 -15t-0.5 -15t-2 -15.5t-5 -13.5t-9.5 -9l-409 -178q-10 -4 -18.5 -7.5t-19.5 -3.5q-6 0 -9.5 5.5t-6 13t-3.5 16t-1 14.5
v31q0 18 7 28t31 20z" />
    <glyph glyph-name="question" unicode="?" horiz-adv-x="506" 
d="M195 559q-5 -49 -33.5 -78t-79.5 -29q-32 0 -53.5 20.5t-21.5 52.5t16 66t46.5 61.5t75.5 45t104 17.5q39 0 82.5 -12.5t80 -36.5t60.5 -59t24 -80q0 -46 -28 -81t-84 -56q-26 -10 -39.5 -22.5t-21 -25t-12 -25t-11.5 -22t-20 -15.5t-37 -6q-31 0 -49 17.5t-18 48.5
q0 32 13.5 57.5t29.5 50t29.5 50.5t13.5 58q0 16 -8 33.5t-27 17.5q-11 0 -17 -4.5t-9 -11.5t-4 -15.5t-2 -16.5zM346 97q0 -23 -9 -43t-24 -35t-35 -24t-43 -9t-43 9t-35 24t-24 35t-9 43t9 43t24 35t35 24t43 9t43 -9t35 -24t24 -35t9 -43z" />
    <glyph glyph-name="at" unicode="@" horiz-adv-x="758" 
d="M475 496q5 0 14 4.5l21 10.5t26 10.5t30 4.5t21.5 -6t5.5 -21q0 -8 -5.5 -36.5t-13.5 -57.5q-2 -8 -8 -31.5t-10 -49.5t-3.5 -46t11.5 -20q4 0 16.5 7t27.5 24.5t28 47.5t19 75q4 33 -6 73.5t-38.5 75.5t-78 59t-123.5 24q-58 0 -112 -21.5t-96.5 -60.5t-70 -93
t-31.5 -119q-5 -69 16 -123t60.5 -92t94.5 -58t119 -20q49 0 89 16.5t69 36.5t47 36.5t24 16.5t13 -4.5t12.5 -11t9 -13.5t3.5 -12q0 -4 -23 -25.5t-62.5 -46t-92.5 -44.5t-114 -20q-77 0 -142.5 26t-112 73.5t-69.5 113t-14 144.5q9 78 43 145.5t87 118t121.5 79.5
t147.5 29q57 0 115 -19t103 -56t71 -91.5t20 -124.5q-6 -65 -32.5 -115.5t-67.5 -85t-93.5 -52.5t-109.5 -18q-24 0 -31.5 9.5t-9 21t-1 21t-8.5 9.5q-7 0 -18 -10t-27.5 -22.5t-38 -22.5t-49.5 -10q-44 0 -66.5 31.5t-17.5 85.5q5 53 28.5 100.5t57 83t71.5 56t71 20.5
q17 0 29.5 -4.5t21.5 -10.5t16.5 -10.5t15.5 -4.5zM345 263q10 0 25.5 17t31 41.5t27 52.5t13.5 50q1 8 -1.5 16t-10.5 8q-9 0 -25 -13.5t-31.5 -36t-28 -50.5t-15.5 -57q-1 -8 1.5 -18t13.5 -10z" />
    <glyph glyph-name="A" unicode="A" horiz-adv-x="869" 
d="M414 289h10.5t13 1t11.5 3.5t5 8.5t-4.5 17t-11 23.5t-12.5 24t-9 16.5q-3 6 -8 15t-11 17.5t-13.5 14.5t-15.5 6q-9 0 -16.5 -9.5t-13.5 -22t-10 -24t-5 -15.5q-2 -4 -5 -12.5t-7 -18t-6.5 -18.5t-2.5 -13q0 -6 4 -9t10 -4t12 -1h10h75zM204 361q12 26 24.5 55t23 59.5
t17.5 61t7 60.5q0 26 6.5 48t20.5 38.5t37.5 25.5t56.5 9t59.5 -15t49 -38t40 -50t32.5 -52q4 -7 18.5 -35t34 -67.5t42.5 -86t44 -90.5t38.5 -81t26.5 -57q12 -29 27.5 -38t28.5 -12.5t22 -9.5t9 -27q0 -27 -23 -41.5t-54.5 -21t-63.5 -7t-51 -0.5q-54 0 -96.5 1t-72 7
t-45 19t-15.5 36q0 18 9.5 25.5t21 12t21 9.5t9.5 18q0 17 -6.5 26.5t-26 14.5t-56.5 6.5t-97 1.5q-20 0 -35 -1t-26 -6t-16.5 -15.5t-5.5 -28.5q0 -15 10 -19.5t22 -8t22 -11t10 -26.5q0 -23 -17.5 -35t-41.5 -18t-49 -7t-40 -1q-54 0 -85 4.5t-46.5 13t-20 19t-4.5 22.5
q0 18 9 25.5t21.5 13t27 11t25.5 19.5q17 20 32 51.5t26 55.5z" />
    <glyph glyph-name="B" unicode="B" horiz-adv-x="754" 
d="M680 544q0 -35 -14 -68.5t-41 -55.5q-7 -6 -12.5 -11.5t-5.5 -15.5t6.5 -14t14.5 -8q15 -6 34.5 -19t37 -32t29 -45t11.5 -57q0 -38 -13.5 -77.5t-45 -71.5t-83 -53t-126.5 -21q-50 0 -95 3q-23 1 -45.5 1.5t-45.5 0.5q-26 0 -51.5 -0.5t-51.5 -1.5q-51 -3 -103 -3
q-23 0 -44.5 13.5t-21.5 39.5q0 16 5 22.5t12 11t16 10t17 18.5t13.5 37t7.5 66l11 288q2 38 -3.5 59t-14.5 32t-20 15.5t-20 8.5t-15.5 11.5t-6.5 24.5q0 14 7 24.5t17.5 17.5t23 10.5t24.5 3.5q28 0 55.5 -1t55.5 -2q28 -2 55.5 -3t55.5 -1q18 0 35.5 1t34.5 3q17 1 35 2
t35 1q69 0 113.5 -15t70.5 -38.5t36 -52.5t10 -58zM334 464q0 -29 3 -43.5t26 -14.5q22 0 36.5 7.5t23 20.5t11.5 30.5t3 38.5q0 17 -3 35t-11 32.5t-21.5 24t-34.5 9.5q-14 0 -21 -5t-9.5 -13.5t-2.5 -19v-21.5v-81zM334 220q0 -44 3.5 -68t10 -35t15.5 -13.5t21 -2.5
q43 0 60 26t17 65q0 23 -4 44t-14 36.5t-27 25t-43 9.5q-23 0 -30.5 -10.5t-8.5 -26.5v-50z" />
    <glyph glyph-name="C" unicode="C" horiz-adv-x="756" 
d="M24 353q0 77 33 143t88 115t125 76.5t144 27.5q37 0 67 -7.5t53.5 -17t40 -17t26.5 -7.5q17 0 24.5 3.5t20.5 3.5q16 0 33 -11.5t31 -34t23 -54.5t9 -74q0 -43 -24 -74t-69 -31q-26 0 -42.5 13t-30 33t-27 42.5t-33 42.5t-49 33t-73.5 13q-29 0 -49.5 -12t-34 -31
t-19.5 -41t-6 -43q0 -56 14.5 -105.5t42.5 -87t68.5 -59.5t93.5 -22q48 0 77 11t47.5 23.5t29.5 23.5t23 11q11 0 19 -5.5t13.5 -14.5t8 -19.5t2.5 -19.5q0 -17 -8 -40t-21.5 -44.5t-30.5 -36.5t-36 -15q-13 0 -32.5 -9t-47 -20t-63 -20t-79.5 -9q-79 0 -148.5 29t-121.5 79
t-82 117t-30 142z" />
    <glyph glyph-name="D" unicode="D" horiz-adv-x="843" 
d="M104 537q1 26 -4.5 40t-13.5 22t-17.5 11.5t-18 8t-14 12.5t-5.5 24q0 17 9.5 27.5t24 16t30.5 7.5t29 2h326q104 0 175 -29.5t114 -79t61.5 -113t18.5 -130.5q0 -70 -21 -135t-65 -115.5t-112.5 -80.5t-163.5 -30q-64 0 -110 3q-23 1 -44 1.5t-42 0.5t-42.5 -0.5
t-42.5 -1.5q-42 -3 -85 -3q-13 0 -26.5 3.5t-25 10t-18.5 17.5t-7 26q0 18 6 25t14.5 10t19 6t20 12.5t15.5 28.5t7 56zM344 171q0 -19 2 -32.5t8.5 -22.5t19 -13t32.5 -4q47 0 76 21.5t45 55.5t21.5 74t5.5 78q0 88 -15 141t-38.5 82t-53 38.5t-58.5 9.5q-16 0 -25 -3.5
t-13.5 -10t-5.5 -17t-1 -24.5v-373z" />
    <glyph glyph-name="E" unicode="E" horiz-adv-x="726" 
d="M427 701q50 0 80.5 3t48 7t26 7t14.5 3q21 0 36.5 -16t25.5 -38.5t14.5 -47t4.5 -40.5q0 -12 -2.5 -25t-8.5 -23.5t-16 -17t-25 -6.5q-20 0 -29.5 7t-16.5 18t-15 23t-24 23t-44.5 18t-75.5 7q-42 0 -62.5 -5t-29 -19.5t-8.5 -41v-69.5q0 -22 1.5 -34t7.5 -18t19 -7
t36 -1q19 0 28 8t13 20.5t5.5 27t5.5 27t12 20.5t26 8q22 0 34.5 -18.5t18.5 -43t7.5 -50t1.5 -40.5t-2 -42.5t-9 -53.5t-20.5 -45.5t-35.5 -19.5q-15 0 -21.5 8t-9.5 19.5t-5 25t-8 25t-19 19.5t-38 8q-16 0 -24.5 -6.5t-12 -16.5t-4 -22.5t-0.5 -24.5q0 -55 3 -83.5
t15 -41t35 -13.5t62 -1q51 0 82.5 10.5t50 26t28 34t18 34t19 26t31.5 10.5q24 0 36 -21.5t12 -42.5q0 -26 -9 -58.5t-23 -62t-30.5 -49.5t-31.5 -20q-5 0 -16.5 2t-27.5 4q-17 2 -37.5 3.5t-46.5 1.5h-411q-25 0 -38.5 5t-20 11.5t-7.5 14t-1 12.5q0 14 5 20.5t13 10.5
t17 8t17.5 12.5t14.5 23.5t8 42q3 46 5 76.5t3.5 53.5t1.5 42.5t-0.5 43t-2.5 54t-4 75.5q-2 38 -8.5 59t-16 31t-19.5 13t-19 6.5t-14.5 10.5t-5.5 25q0 23 14 34t33.5 14.5t41 3t36.5 -0.5h288z" />
    <glyph glyph-name="F" unicode="F" horiz-adv-x="695" 
d="M102 409q0 15 0.5 34t0.5 38.5t-1 38t-3 33.5q-3 22 -10 34t-15.5 18.5t-17.5 9.5t-16.5 7.5t-12.5 11t-5 20.5t7.5 24.5t18.5 17t24.5 9.5t25.5 3q10 0 44.5 -1.5t78.5 -3.5t89.5 -3.5t76.5 -1.5q5 0 23.5 0.5t43.5 2t53 2.5t52.5 2.5t41.5 2t21 0.5q15 0 29 -13.5
t25.5 -34.5t18.5 -47.5t7 -51.5q0 -26 -12.5 -47.5t-41.5 -21.5q-17 0 -27 7.5t-19 19t-20 25t-30.5 25t-50 19t-78.5 7.5q-23 0 -39.5 -1.5t-27 -14t-15.5 -41.5t-5 -83q0 -7 1 -13t6.5 -11t17.5 -8t34 -3q29 0 38 14.5t13.5 31.5t12.5 31.5t34 14.5q21 0 33.5 -17.5
t18.5 -41.5t7.5 -49t1.5 -40q0 -18 -2 -46.5t-9 -55.5t-22 -46.5t-40 -19.5q-16 0 -22.5 8.5t-9.5 21t-4.5 27t-8 27t-20 21t-40.5 8.5q-17 0 -25 -3t-11 -14t-3 -33v-61q-1 -37 6 -56.5t17.5 -29t23.5 -12.5t24 -6.5t18.5 -11t7.5 -26.5q0 -9 -2.5 -20.5t-23.5 -22
t-69 -17.5t-139 -7q-60 0 -96.5 4.5t-56.5 12.5t-26.5 20.5t-6.5 28.5q0 21 9 29t21 13.5t24.5 13t20.5 27.5q4 10 6.5 27.5t4 36.5t2 37.5t0.5 30.5v139z" />
    <glyph glyph-name="G" unicode="G" horiz-adv-x="834" 
d="M283 412q0 -77 19.5 -130.5t48 -86.5t60.5 -48t56 -15q26 0 43.5 17.5t17.5 44.5q0 21 -8 29.5t-19.5 11.5t-25 3t-25 3.5t-19.5 13.5t-8 33q0 27 24.5 43t57.5 23.5t67 9.5t53 2q70 0 110 -8.5t60 -21.5t24.5 -27t4.5 -25q0 -20 -14 -32.5t-32 -15.5q-20 -2 -25 -8
t-10 -26q-15 -55 -47 -95.5t-75.5 -67.5t-95 -40t-104.5 -13q-80 0 -151.5 26.5t-126.5 74.5t-87 116t-32 151q0 79 31.5 145.5t85 114.5t125 74.5t151.5 26.5q33 0 59 -4t45.5 -9.5t33.5 -9.5t24 -4q14 0 31 7.5t31 7.5q23 0 41.5 -16.5t31 -40.5t19.5 -50.5t7 -45.5
q0 -18 -5 -36t-14.5 -32t-24.5 -22.5t-35 -8.5q-25 0 -42.5 10.5t-32 25.5t-29 33.5t-32 33.5t-41.5 25.5t-58 10.5q-66 0 -104.5 -49t-38.5 -129z" />
    <glyph glyph-name="H" unicode="H" horiz-adv-x="842" 
d="M756 165q0 -23 5.5 -36t25.5 -24q15 -8 24.5 -15.5t9.5 -26.5q0 -9 -3.5 -21.5t-22 -24.5t-59 -20t-114.5 -8q-17 0 -45.5 1t-57 7.5t-49 20.5t-20.5 39q-1 19 4 27t12.5 12.5t17 10.5t17.5 21.5t13.5 44t5.5 79.5q0 20 -2.5 31t-9.5 15.5t-19 5t-31 0.5q-53 0 -79 -2
t-37 -11t-11 -28v-53q0 -51 9.5 -71.5t21.5 -29t21.5 -15.5t9.5 -31q0 -26 -23.5 -41t-55.5 -22.5t-64.5 -9t-50.5 -1.5q-17 0 -48 1.5t-61.5 9t-53 21.5t-22.5 40q0 16 9.5 26t22.5 16t22.5 12.5t15.5 27t8.5 63t2.5 120.5q0 66 -0.5 110.5t-2 72t-4 42t-7 21.5t-11.5 10
t-16 8q-11 6 -22 14t-11 23q0 29 27 46t63.5 25.5t74 11t58.5 2.5q16 0 42.5 -1.5t52 -8.5t44.5 -20t19 -35q0 -23 -11.5 -34t-28.5 -22q-9 -5 -15 -11t-9.5 -18t-5 -32.5t-1.5 -53.5q0 -21 5 -31.5t14 -14t23 -3.5h32h51q25 0 38 2t19 7t6.5 12.5t0.5 19.5q0 41 -3 64.5
t-7.5 35.5t-9.5 16t-10 7q-14 8 -25.5 17t-11.5 29q0 7 2.5 19.5t20.5 25t57.5 21.5t114.5 9q18 0 48 -1.5t59.5 -8t51 -21t21.5 -40.5q0 -32 -31 -47q-11 -5 -19 -9.5t-13 -20t-7 -47.5t-2 -92v-260z" />
    <glyph glyph-name="I" unicode="I" horiz-adv-x="435" 
d="M97 400q0 48 -1.5 78.5t-4.5 49t-7 28t-8 14.5q-9 11 -19.5 18t-20 13.5t-16 15.5t-6.5 23q0 18 15 30.5t38.5 20.5t51 12t52.5 6t43.5 2.5t23.5 0.5q22 0 53.5 -1.5t60.5 -8t49 -21t20 -39.5q0 -14 -6.5 -21t-15.5 -12.5t-19.5 -11t-19.5 -15.5q-7 -8 -11 -28t-6 -45.5
t-2.5 -54t-0.5 -54.5v-99q0 -67 2 -102.5t6.5 -52.5t10 -22t13.5 -9q19 -11 34 -19.5t15 -31.5q0 -11 -5 -24.5t-27 -24.5t-68 -18.5t-128 -7.5q-16 0 -44 1t-55.5 7.5t-48 19.5t-20.5 37q0 12 5.5 19.5t13.5 13.5t16.5 11t14.5 12q4 5 8 16t7 32.5t5 55.5t2 87v99z" />
    <glyph glyph-name="J" unicode="J" horiz-adv-x="659" 
d="M564 218q-2 -53 -19.5 -91t-44 -63.5t-58.5 -41t-63 -23.5t-57 -10.5t-40 -2.5q-44 0 -94.5 9.5t-93.5 32t-72 59t-29 90.5q0 24 8 46t23 38.5t35.5 26t45.5 9.5q22 0 42.5 -6.5t37 -19.5t26.5 -31t10 -42q0 -13 -3.5 -25t-3.5 -22q0 -19 13 -29t31 -8q29 3 45.5 21
t23.5 47t7.5 67t-2 81t-4.5 89t0 91q1 28 -5 43t-16 22.5t-22 10.5t-22.5 7t-17.5 11.5t-7 24.5q0 7 4.5 21t24 27.5t60.5 24t114 10.5q71 0 113 -7.5t63.5 -19t28 -24.5t6.5 -23q0 -20 -12 -28t-27 -16t-27.5 -22.5t-13.5 -45.5z" />
    <glyph glyph-name="K" unicode="K" horiz-adv-x="869" 
d="M461 135q-6 7 -19 22.5t-28 31.5t-29 27.5t-23 11.5q-20 0 -25 -16.5t-5 -38.5v-21q0 -18 10 -29t21.5 -21t21.5 -21.5t10 -29.5q0 -12 -6.5 -23t-27 -20t-60 -14t-105.5 -5q-59 0 -94.5 4.5t-54 13t-24 19.5t-5.5 24q0 19 8 27t18.5 15.5t20.5 21t15 44.5q7 42 8.5 88
t1.5 89q0 47 -1 98t-9 97q-5 32 -16 45t-22 19.5t-19.5 14.5t-8.5 31q0 6 2 18t21 24t62 21t125 9q18 0 43.5 -1t49.5 -7t41 -20t17 -40q0 -20 -8.5 -27.5t-19 -17.5t-19 -30t-8.5 -64q0 -5 0.5 -12t2.5 -14t5.5 -11.5t10.5 -4.5q10 0 28 16.5t35 38t30 42t13 29.5
q0 8 -2.5 14t-5.5 12t-5.5 12.5t-2.5 14.5q0 28 21.5 42.5t50.5 20.5t59.5 6.5t48.5 0.5t46 -0.5t54 -6t45 -19t19 -40.5q0 -31 -17 -40.5t-39.5 -11t-46 -2.5t-36.5 -14q-8 -8 -25 -22t-35 -31.5t-31.5 -35.5t-13.5 -34q0 -20 14 -38t26 -32l209 -239q11 -13 26.5 -20
t30 -15.5t24.5 -20.5t10 -35q0 -19 -8.5 -30t-22 -16.5t-29 -7t-30.5 -1.5h-170q-15 0 -23.5 1t-16 6.5t-16.5 16t-24 28.5z" />
    <glyph glyph-name="L" unicode="L" horiz-adv-x="665" 
d="M111 0q-12 0 -26.5 0.5t-27 4.5t-21 13t-8.5 26q0 15 6 22.5t14.5 12t19 8.5t19.5 12.5t15 25t7 45.5q2 55 2 103v93t-2.5 87.5t-4.5 84.5q-1 21 -7.5 32.5t-16.5 17.5t-21.5 8.5t-21.5 6.5t-16.5 11t-6.5 21q0 18 12 31t30.5 21.5t42 13.5t46.5 7.5t43 3t32 0.5
q75 -2 117 -8t63 -15t25.5 -20.5t4.5 -24.5q0 -14 -6 -21.5t-14.5 -11.5t-19 -7.5t-19 -10.5t-14.5 -20.5t-6 -36.5v-318q0 -27 3 -47t12 -33.5t25 -20t43 -6.5q42 0 67.5 10.5t39.5 25.5t20.5 33.5t12 33.5t13 25.5t23.5 10.5q17 0 28.5 -8t19 -20.5t11 -28t3.5 -29.5
q0 -29 -9.5 -60.5t-24.5 -57.5t-33 -43t-35 -17q-14 0 -25 2.5t-25 4.5q-14 3 -31.5 5t-43.5 2h-334z" />
    <glyph glyph-name="M" unicode="M" horiz-adv-x="929" 
d="M278 281q-2 5 -5.5 12.5t-7.5 14t-9.5 11.5t-12.5 5q-12 0 -16.5 -21t-5.5 -49t0 -55.5t1 -39.5q0 -40 10 -55t22 -20.5t22 -10.5t10 -25q0 -21 -17.5 -33t-41 -18t-48 -7t-39.5 -1q-13 0 -34.5 1.5t-41.5 6.5t-35 16t-15 31q0 21 9.5 26.5t21.5 10t23 14.5t14 41t6 65
t5.5 73t4 84.5t1.5 99.5q0 45 -3.5 71t-11.5 43q-4 8 -15 14t-22.5 13t-20.5 17t-9 25q0 21 16 35t40.5 22t55.5 11t61 3q44 0 68 -4t37.5 -12.5t21 -22t18.5 -32.5q13 -22 30.5 -60t36.5 -75t38 -65.5t36 -32.5q12 -3 25 15.5t27 47t28 60.5t28 57q19 35 31.5 59t30 38.5
t45 20.5t77.5 6q16 0 41 -1.5t47.5 -8t39 -19.5t16.5 -37q0 -15 -7 -25t-16.5 -18.5t-18.5 -17t-13 -21.5q-3 -11 -5.5 -35.5t-5 -53.5t-3.5 -57t-1 -45q0 -6 1 -27.5t2.5 -52.5t3 -67t3.5 -71q1 -27 11 -40t21.5 -21.5t21 -16t9.5 -24.5q0 -25 -22 -38t-52 -19t-60.5 -6.5
t-46.5 -0.5q-15 0 -45 0.5t-59.5 5.5t-51.5 17.5t-22 36.5q0 13 7 21.5t16 16t17.5 15.5t11.5 20q1 4 3 20t3.5 37t2.5 44t-0.5 42.5t-6 32.5t-13.5 13q-12 0 -23.5 -14.5t-22.5 -36t-21.5 -45.5t-19.5 -43q-8 -17 -18.5 -44t-22.5 -52.5t-24.5 -43.5t-24.5 -16
q-6 1 -11.5 3t-14 14.5t-22.5 39.5t-36 78z" />
    <glyph glyph-name="N" unicode="N" horiz-adv-x="873" 
d="M549 460q4 -4 12 -10.5t17 -13t17.5 -11t15.5 -4.5q9 0 14.5 6.5t8 16t3 19.5t0.5 16q0 9 -0.5 21.5l-1 25t-2.5 24t-5 20.5q-5 16 -16.5 23t-22.5 13t-19.5 15.5t-8.5 29.5q0 24 16.5 36.5t39.5 18t47.5 6t40.5 0.5t42 -0.5t51 -6t42.5 -18.5t17.5 -39q0 -21 -8.5 -30
t-20 -15t-23.5 -13t-18 -24q-5 -14 -7.5 -31.5t-4 -36t-1.5 -36.5v-32v-259v-47.5t-5.5 -60.5t-18 -52t-37.5 -22q-15 0 -28 7.5t-24 17.5l-309 277q-11 10 -28 23.5t-33 13.5q-12 0 -18.5 -10.5t-9.5 -24.5t-3.5 -28.5t-0.5 -22.5q0 -21 1 -46t6 -45q6 -24 17 -34t22.5 -16
t20 -13.5t8.5 -25.5q0 -25 -17 -39.5t-40.5 -22t-49 -9.5t-43.5 -2q-17 0 -42.5 2t-49 9t-40.5 21.5t-17 38.5q0 20 9 28.5t21 15.5t23 17.5t15 34.5q3 16 4.5 35.5t2.5 39.5t1.5 39.5t0.5 36.5q0 54 -1.5 108.5t-9.5 108.5q-4 25 -12 39.5t-18 23t-20 13t-18.5 9.5t-14 13
t-5.5 23q0 27 22 40.5t51.5 19.5t59.5 6.5t47 0.5q23 0 38 -1.5t27 -6t24 -13t29 -23.5z" />
    <glyph glyph-name="O" unicode="O" horiz-adv-x="818" 
d="M399 -14q-79 0 -147.5 27.5t-119 76t-79.5 116t-29 147.5q0 79 30 145.5t82 114.5t122.5 75t152.5 27q69 0 124 -18.5t97.5 -49t73 -70t50 -81t28.5 -81.5t9 -72q0 -81 -33 -146.5t-87.5 -112.5t-126 -72.5t-147.5 -25.5zM536 242q0 23 -4.5 55.5t-14 68.5t-23.5 72
t-33 64.5t-43 46t-53 17.5q-21 0 -37 -10t-26.5 -25.5t-15.5 -34.5t-5 -37q0 -21 5 -53.5t14.5 -68.5t24 -72t33 -65t41.5 -47t50 -18q23 0 39.5 9t27 24t15.5 34.5t5 39.5z" />
    <glyph glyph-name="P" unicode="P" horiz-adv-x="719" 
d="M474 482q0 24 -6 44.5t-18.5 36.5t-31 25t-43.5 9q-29 0 -33.5 -8.5t-4.5 -23.5v-150q0 -8 -0.5 -16t3 -14t13 -10t29.5 -4q49 0 70.5 32.5t21.5 78.5zM107 549q0 28 -14.5 38t-32 15.5t-32 13t-14.5 31.5q0 15 7.5 24.5t18.5 14.5t24 7t25 2q19 0 37 -1t37 -1
q54 0 101 2.5t83 5t59.5 5t31.5 2.5q51 0 99 -13.5t85.5 -41t60 -69.5t22.5 -98t-22 -98.5t-58.5 -71.5t-84.5 -44t-100 -15q-23 0 -45 2.5t-42 2.5q-16 0 -16 -16v-58q1 -31 7 -49t14 -27.5t18 -14t18 -8.5t13.5 -11t5.5 -21q0 -24 -23 -38t-54.5 -20.5t-63 -8t-48.5 -1.5
q-16 0 -47.5 1t-63 7.5t-55.5 20t-24 37.5q0 21 11.5 28t25 13.5t25 18.5t11.5 43v391z" />
    <glyph glyph-name="Q" unicode="Q" horiz-adv-x="821" 
d="M536 242q0 23 -4.5 55.5t-14 68.5t-23.5 72t-33 64.5t-43 46t-53 17.5q-21 0 -37 -10t-26.5 -25.5t-15.5 -34.5t-5 -37q0 -21 5 -53.5t14.5 -68.5t24 -72t33 -65t41.5 -47t50 -18q23 0 39.5 9t27 24t15.5 34.5t5 39.5zM250 -91q-32 13 -56 23t-42.5 17t-34.5 10.5
t-33 3.5q-6 0 -12 -1t-13 -1q-12 0 -17.5 9t-5.5 20q0 16 7 28t18 20t25.5 12.5t28.5 4.5q5 0 10.5 -0.5t10.5 -0.5t10 2t5 8q0 5 -9.5 15t-23.5 25t-30.5 37t-30.5 52.5t-23.5 70t-9.5 89.5q0 79 30 145.5t82 114.5t122.5 75t152.5 27q69 0 124 -18.5t97.5 -49t73 -70
t50 -81t28.5 -81.5t9 -72q0 -118 -64 -201t-174 -128q-4 -2 -8.5 -5.5t-4.5 -8.5q0 -6 7 -14t24.5 -15t46 -12t72.5 -5q30 0 51.5 9t27.5 9q11 0 18.5 -14.5t7.5 -24.5q0 -12 -12.5 -32t-40.5 -39.5t-71.5 -34t-104.5 -14.5q-47 0 -83.5 8.5t-80.5 24.5z" />
    <glyph glyph-name="R" unicode="R" horiz-adv-x="816" 
d="M322 449q-1 -10 -1.5 -18.5t1.5 -15t8 -10.5t18 -4q49 0 67.5 25.5t18.5 72.5q0 18 -3 36t-10.5 32t-21 22.5t-35.5 8.5q-14 0 -21.5 -4t-11 -11.5t-4 -17t-1.5 -21.5zM90 493q0 39 -5.5 61t-14 34t-18.5 16.5t-18.5 8.5t-14 10.5t-5.5 22.5q0 21 13 33t31 18.5t38.5 8.5
t35.5 2q16 0 31 -1t31 -2q15 -2 30.5 -3t30.5 -1q24 0 48 1t49 3q24 1 48.5 2t48.5 1q42 0 85.5 -10t79 -31.5t57.5 -56.5t22 -85q0 -45 -21.5 -85t-63.5 -60q-7 -4 -11.5 -7.5t-4.5 -12.5q0 -11 8 -15.5t17 -8.5q26 -10 45.5 -24t33 -35t22.5 -51t14 -70q4 -35 17 -46
t26 -15t23.5 -9t10.5 -28q0 -14 -9 -28t-28 -25t-49.5 -18t-72.5 -7q-60 0 -96 16.5t-58 46t-33.5 70.5t-23.5 91q-4 17 -10 33.5t-15 29t-23 20.5t-35 8q-8 0 -14 -1.5t-9.5 -8t-5 -19.5t-1.5 -37q0 -22 1.5 -49t5.5 -48q3 -17 12.5 -25t20 -14t18.5 -14.5t8 -26.5
q0 -14 -6.5 -25.5t-26.5 -19.5t-56.5 -13t-97.5 -5q-18 0 -50 1t-63 8t-54 22t-23 42q0 13 5.5 20t14 12t18 11.5t18 18.5t14 31.5t5.5 52.5v285z" />
    <glyph glyph-name="S" unicode="S" horiz-adv-x="678" 
d="M135 305q-42 33 -68.5 78t-26.5 99q0 39 18.5 80.5t55.5 75t92 55.5t128 22q24 0 48.5 -4.5t45.5 -10t36 -10t21 -4.5q11 0 22 6t27 6q13 0 31.5 -13t36 -34.5t30 -50.5t12.5 -60q0 -26 -15.5 -47t-43.5 -21q-25 0 -46.5 18t-44.5 39t-51.5 39t-67.5 18
q-23 0 -43.5 -11.5t-20.5 -38.5q0 -30 23 -44t60 -24.5t81.5 -24t88.5 -42.5q47 -31 70 -70t23 -96q0 -44 -18.5 -88.5t-58.5 -80t-102.5 -58t-149.5 -22.5q-25 0 -57 3t-64.5 9t-63 15t-51.5 21q-18 10 -31.5 33t-22 50t-13 54.5t-4.5 46.5q0 20 9.5 37t32.5 17
q18 0 30 -12t23.5 -29.5t25.5 -38t35 -38t52 -29.5t77 -12q8 0 21 2.5t25.5 8t21.5 15t9 23.5q0 18 -10.5 29.5t-29 20t-43 15.5t-52 17t-56.5 24.5t-57 36.5z" />
    <glyph glyph-name="T" unicode="T" horiz-adv-x="737" 
d="M498 701q32 0 49.5 2.5t28.5 4.5q11 3 19 5t22 2q15 0 35.5 -13.5t39 -38.5t32 -59t13.5 -74q0 -38 -19.5 -60.5t-57.5 -22.5q-33 0 -51 18.5t-31 40.5t-24.5 40.5t-30.5 18.5q-15 0 -22 -8.5t-10 -19.5t-3 -21v-13v-307q0 -30 7 -46.5t17 -25t22 -12.5t22 -9t17 -13.5
t7 -25.5q0 -12 -6 -25t-27 -24t-62 -18.5t-111 -7.5h-35.5t-49 2t-53.5 6.5t-49.5 13t-36.5 21.5t-14 32q0 20 10 28t23.5 12.5t27 10t21.5 19.5q4 8 6.5 22t4.5 29.5t3 30.5t1 24l8 221q1 39 -1.5 60.5t-7.5 31t-11 11t-11 1.5q-17 0 -31 -18.5t-29.5 -40.5t-36.5 -40.5
t-51 -18.5q-29 0 -45.5 22.5t-16.5 49.5q0 32 12 66.5t31 63.5t42 47.5t44 18.5q5 0 14 -2t23 -5q14 -2 35 -4.5t51 -2.5h246z" />
    <glyph glyph-name="U" unicode="U" horiz-adv-x="862" 
d="M629 528q0 40 -13.5 56.5t-29.5 24t-29.5 14.5t-13.5 29q0 23 19 35.5t44.5 18t52 6t41.5 0.5q14 0 39 -1t49 -6.5t42 -17t18 -33.5q0 -21 -11.5 -28.5t-26 -15t-26 -21.5t-11.5 -48v-270q0 -11 -1.5 -36.5t-11 -57.5t-30 -65.5t-59 -61.5t-98 -46t-145.5 -18
q-98 0 -162.5 22.5t-103.5 56.5t-57 74.5t-24 75.5t-4.5 59.5t1.5 27.5v231q1 24 -8.5 37.5t-22 23.5t-23 20.5t-10.5 27.5q0 5 1.5 16.5t18.5 23.5t57.5 21t117.5 9q61 0 99.5 -5.5t60 -14.5t29 -21.5t7.5 -27.5q0 -18 -5.5 -26t-13.5 -12t-18 -7t-18.5 -11t-15 -24.5
t-7.5 -46.5v-184q0 -89 35.5 -142t115.5 -53q59 0 90 20.5t44.5 46t15 48.5t1.5 27v249z" />
    <glyph glyph-name="V" unicode="V" horiz-adv-x="844" 
d="M497 76q-8 -15 -16 -30.5t-19 -28t-25.5 -20.5t-34.5 -8q-22 0 -36.5 6t-24.5 16.5t-18 25t-16 32.5l-199 440q-11 24 -19 39.5t-16.5 24.5t-18 13t-24.5 6t-22.5 12.5t-7.5 26.5q0 29 25.5 45t60 24t70 10t54.5 2q79 0 120.5 -8t59.5 -19t20 -21.5t2 -16.5
q0 -14 -7.5 -22.5t-16.5 -15t-16.5 -13t-7.5 -16.5q0 -8 6.5 -25t16 -38.5t20.5 -45t20 -42.5q3 -6 7 -16t9 -19t11.5 -15.5t14.5 -6.5q12 -1 21.5 8t17 21t13 25t10.5 21q4 9 14 28.5t19.5 40.5t17 40.5t7.5 28.5q0 13 -8 19.5t-17.5 12t-17.5 12.5t-8 22q0 23 20.5 35.5
t47.5 18t55 6.5t43 1q47 0 76 -4t44.5 -11.5t21 -18.5t5.5 -24q0 -20 -13 -30.5t-31 -12.5q-16 -2 -26 -3.5t-18.5 -9t-17.5 -22.5t-23 -44z" />
    <glyph glyph-name="W" unicode="W" horiz-adv-x="1093" 
d="M581 277q-2 4 -4.5 11t-6 14t-8 12t-10.5 5q-14 0 -23.5 -21t-28.5 -69l-61 -151q-8 -20 -15 -36t-16.5 -28t-25 -18.5t-39.5 -6.5q-21 0 -35 6t-24 17t-16.5 26t-13.5 32l-186 475q-11 27 -22.5 37t-22 15.5t-17 13t-6.5 30.5q0 26 22 40.5t51.5 21t60 8t47.5 1.5
q55 0 88.5 -4t52 -12.5t24.5 -20.5t6 -27q0 -11 -3.5 -18.5t-8 -14t-8 -13.5t-3.5 -19q0 -11 5 -28.5t11 -35t11.5 -32t7.5 -18.5q2 -6 6.5 -20t11.5 -29t15 -26t17 -11q10 0 18.5 11.5t15.5 26.5t11.5 29t6.5 20q1 2 3 7.5t4.5 11.5t4 11.5t1.5 8.5t-4 15t-10.5 26
t-16 27.5t-20.5 19.5q-15 8 -26 19t-11 30q0 2 1 12.5t18 22.5t57.5 21.5t118.5 9.5q73 0 111.5 -7.5t56 -17.5t20 -20.5t2.5 -16.5q0 -12 -7 -20.5t-15.5 -16t-15.5 -14.5t-7 -16q0 -10 5.5 -25.5t13 -32t14.5 -31t11 -22.5q3 -6 8 -19t12 -26t15.5 -23t17.5 -10t18 12.5
t17.5 32t16 42.5t13 43.5t9 35t3.5 18.5q0 16 -10 22t-22.5 11.5t-22.5 13.5t-10 29q0 23 16.5 35t39.5 17t47.5 5.5t39.5 0.5t35 -1.5t38 -8t30.5 -18.5t12.5 -33q0 -18 -7 -27t-17.5 -18t-22.5 -22t-22 -39l-172 -450q-8 -20 -16.5 -39t-20.5 -34t-27.5 -24t-36.5 -9
q-19 0 -32 5t-22 14t-16 21.5t-14 28.5z" />
    <glyph glyph-name="X" unicode="X" horiz-adv-x="835" 
d="M541 444q-2 -2 -8 -9.5t-6 -11.5q0 -5 5.5 -11.5t8.5 -10.5l187 -235q19 -24 38 -33.5t34.5 -16t25 -15.5t9.5 -31q0 -11 -4.5 -25t-28 -26.5t-73.5 -21t-142 -8.5h-47.5t-63 5.5t-55 18t-23.5 37.5q0 14 6.5 22t14 13.5t14 10.5t6.5 13q0 10 -6.5 24t-15.5 28.5
t-18.5 27t-15.5 20.5q-4 4 -7.5 9t-9.5 5q-5 0 -17 -14.5t-25 -33t-22.5 -35.5t-9.5 -22q0 -9 6.5 -14t14.5 -11t14.5 -15t6.5 -26q0 -11 -6 -22t-24 -20t-51 -15t-86 -6q-54 0 -86.5 6t-50.5 15.5t-24 21.5t-6 25q0 20 13.5 34.5t44.5 14.5q15 0 27.5 4t26.5 14t29.5 27
t36.5 43l92 115q2 3 8 10t6 11q0 5 -5.5 12t-8.5 10l-142 184q-19 25 -39 34.5t-36 15t-26 13.5t-10 30q0 9 4 23t27.5 27.5t73.5 23t142 9.5q53 0 87 -4t53.5 -11.5t26.5 -19.5t7 -28q0 -17 -5.5 -25.5t-12.5 -13.5t-12.5 -9t-5.5 -11q0 -6 5.5 -16t13.5 -20t15.5 -17.5
t12.5 -7.5t13.5 8t17 18.5t15 20.5t6.5 14q0 9 -6 13.5t-13 10t-13 14t-6 23.5q0 13 6 24t24.5 19t52.5 13t89 5q16 0 40.5 -1t48 -7t40.5 -18.5t17 -36.5q0 -17 -6.5 -26.5t-16.5 -14.5t-23 -6.5t-26 -2.5q-15 -1 -29 -7.5t-26.5 -16t-23.5 -21t-20 -22.5z" />
    <glyph glyph-name="Y" unicode="Y" horiz-adv-x="819" 
d="M574 437q-17 -21 -26 -38t-14 -34t-6 -37t-1 -46q0 -69 3.5 -103t10.5 -48q5 -11 16 -16.5t22.5 -11.5t20 -15t8.5 -27q0 -27 -25.5 -41.5t-59.5 -21.5t-69 -8t-53 -1q-74 0 -117.5 7.5t-67 18.5t-30.5 23.5t-7 22.5q0 20 9 28.5t21.5 14t25 11.5t19.5 21q8 17 12 55
t4 111q0 21 -2 36.5t-7 28.5t-13.5 26t-21.5 30l-113 131q-18 21 -38.5 31t-37 17t-27.5 15.5t-11 26.5q0 9 2.5 20.5t23 22t67 18t133.5 7.5q78 0 120 -6.5t61 -16t22 -20t3 -18.5q0 -10 -4.5 -17t-9.5 -13.5t-9.5 -12.5t-4.5 -14t6.5 -22.5t16.5 -28.5t21.5 -24t20.5 -10
q10 0 21.5 8.5t22 20.5t17.5 25t7 22q0 10 -4.5 17t-10 13.5t-10 15t-4.5 22.5q0 22 18.5 34t44 17.5t51.5 6.5t40 1q47 0 77.5 -3t48.5 -10t25 -18.5t7 -27.5q0 -24 -12 -32t-30 -12t-39.5 -10.5t-40.5 -26.5z" />
    <glyph glyph-name="Z" unicode="Z" horiz-adv-x="721" 
d="M423 239q-3 -6 -10.5 -18.5t-15 -26.5t-13 -27t-5.5 -19q0 -9 8.5 -13.5t20 -7t23 -2.5h17.5q44 0 70 10t41 24.5t23 31.5t15 31.5t16.5 24.5t28.5 10q38 0 55 -21t17 -56q0 -41 -11 -75.5t-26.5 -59.5t-33 -39.5t-30.5 -14.5q-4 0 -16.5 1.5t-28.5 3.5t-31.5 3t-26.5 1
h-422q-13 0 -25.5 -0.5t-22.5 2t-16.5 10.5t-6.5 26q0 14 7 26.5t14 23.5l252 428q4 6 11 18t7 20q0 10 -7 15.5t-17 8.5t-21.5 4t-20.5 1q-31 0 -51 -10t-32.5 -25t-20 -32.5t-15.5 -32.5t-18.5 -25t-28.5 -10q-15 0 -28 7.5t-22 19.5t-14 27t-5 29q0 28 11 59.5t26.5 57.5
t31 43t24.5 17q4 0 10.5 -2t21.5 -5q16 -2 44 -4.5t75 -2.5q16 0 38 1t47.5 2t53 2.5t55.5 3.5q55 4 101.5 6.5t64.5 2.5q22 0 36.5 -11.5t14.5 -34.5q0 -14 -9 -30t-15 -27z" />
    <glyph glyph-name="bracketleft" unicode="[" horiz-adv-x="524" 
d="M321 73q0 -24 0.5 -40.5t6.5 -26.5t19.5 -14t39.5 -4q16 0 31 2t30 2q17 0 33 -7.5t16 -27.5q0 -23 -14 -35t-39 -17t-61 -5.5t-79 -0.5q-53 0 -87 1t-53.5 16t-27 51t-7.5 106v555q0 70 7.5 106t27 51t53.5 16t87 1q43 0 79 -0.5t61 -5.5t39 -17t14 -35q0 -20 -16 -27.5
t-33 -7.5q-15 0 -30 2t-31 2q-26 0 -39.5 -4t-19.5 -14t-6.5 -26.5t-0.5 -40.5v-555z" />
    <glyph glyph-name="backslash" unicode="\" horiz-adv-x="496" 
d="M117 455q-23 42 -43.5 76.5t-36.5 61t-26 44.5t-11 27q0 12 9.5 19.5t23 11.5t28.5 5t24 1q20 0 31 -4.5t19 -15t16 -28t22 -44.5l276 -511q23 -42 44.5 -76.5t38 -61t26.5 -44.5t10 -27q0 -12 -11 -19.5t-26.5 -11.5t-31.5 -5t-25 -1q-17 0 -26 4.5t-16.5 15t-15.5 28
t-23 44.5z" />
    <glyph glyph-name="bracketright" unicode="]" horiz-adv-x="524" 
d="M203 628q0 24 -0.5 40.5t-6.5 26.5t-19.5 14t-39.5 4q-16 0 -31 -2t-30 -2q-17 0 -33 7.5t-16 27.5q0 23 14 35t39 17t60.5 5.5t79.5 0.5q53 0 87 -1t53.5 -16t27 -51t7.5 -106v-555q0 -70 -7.5 -106t-27 -51t-53.5 -16t-87 -1q-44 0 -79.5 0.5t-60.5 5.5t-39 17t-14 35
q0 20 16 27.5t33 7.5q15 0 30 -2t31 -2q26 0 39.5 4t19.5 14t6.5 26.5t0.5 40.5v555z" />
    <glyph glyph-name="asciicircum" unicode="^" 
d="M315 466l-114 -262q-10 -24 -20 -31t-27 -7h-32q-6 0 -14.5 1t-16 3.5t-13 6t-5.5 9.5q0 11 3.5 19.5t7.5 18.5l178 409q3 6 9 9.5t13.5 5t15.5 2t15 0.5t15 -0.5t15.5 -2t13.5 -5t9 -9.5l178 -409q4 -10 7.5 -18.5t3.5 -19.5q0 -6 -5.5 -9.5t-13 -6t-16 -3.5t-14.5 -1
h-31q-18 0 -28 7t-20 31z" />
    <glyph glyph-name="underscore" unicode="_" horiz-adv-x="500" 
d="M500 -75v-50h-500v50h500z" />
    <glyph glyph-name="grave" unicode="`" horiz-adv-x="408" 
d="M284 561q-51 0 -91 15t-67 34.5t-41.5 39t-14.5 28.5q0 17 14.5 28t34.5 17t40.5 8.5t32.5 2.5q6 0 20 -1t28 -4.5t25 -9.5t11 -15q0 -8 -4 -12t-4 -11q0 -10 11 -18.5t24 -17.5t24 -20t11 -27q0 -24 -17 -30.5t-37 -6.5z" />
    <glyph glyph-name="a" unicode="a" horiz-adv-x="596" 
d="M279 215q-26 0 -41.5 -20t-15.5 -44q0 -20 10.5 -37t32.5 -17q14 0 22.5 7t12.5 17.5t5 23t1 23.5q0 17 -3 32t-24 15zM522 239q0 -44 4.5 -67.5t11 -33.5t14.5 -11.5t14.5 -2t11 -3.5t4.5 -16q0 -21 -13.5 -42.5t-35 -38.5t-48.5 -27.5t-54 -10.5q-30 0 -46.5 8
t-26.5 17.5t-17 17.5t-16 8t-19.5 -8t-27.5 -17q-17 -10 -40 -18t-58 -8q-31 0 -61 8.5t-53 26t-37.5 44.5t-14.5 64q0 27 13.5 55t42.5 51t75.5 38t112.5 15q23 0 34 3.5t11 30.5q0 12 -1 29.5t-5.5 33.5t-14 27.5t-26.5 11.5q-23 0 -37.5 -17t-29.5 -37t-35 -37t-53 -17
q-24 0 -40 15.5t-16 39.5q0 32 28 58t68.5 44t86 28t81.5 10q14 0 35.5 -2.5t45 -9t47.5 -18.5t42.5 -31t30.5 -46.5t12 -64.5v-100z" />
    <glyph glyph-name="b" unicode="b" horiz-adv-x="665" 
d="M292 465q0 -4 0.5 -10t6.5 -6q4 0 15.5 10t31.5 21q20 12 46 21.5t59 9.5q40 0 75.5 -16t62.5 -45t42.5 -70t15.5 -90q0 -64 -22.5 -119.5t-63 -96.5t-95.5 -64.5t-119 -23.5q-47 0 -82 10t-59.5 22.5t-39 22.5t-20.5 10q-12 0 -26 -7.5t-39 -7.5q-11 0 -20.5 4t-9.5 16
q0 6 3 16.5t7 30t7 51t3 80.5v266q0 22 -11.5 30.5t-26 14.5t-26 14.5t-11.5 29.5q0 25 31.5 45.5t76 35.5t91.5 23t78 8q20 0 23 -13t2 -30zM422 203q0 18 -3 44t-11.5 50.5t-24 42t-40.5 17.5q-17 0 -26.5 -6t-14.5 -16t-6.5 -22.5t-1.5 -25.5q0 -73 2.5 -115t8 -63
t15.5 -26.5t25 -5.5q25 0 40 12.5t23 31.5t11 41t3 41z" />
    <glyph glyph-name="c" unicode="c" horiz-adv-x="553" 
d="M17 250q0 54 22 101.5t61.5 83t93 56t116.5 20.5q56 0 99 -14t72 -36t43.5 -49.5t14.5 -53.5q0 -42 -28 -70.5t-70 -28.5q-27 0 -42 9t-24 23t-13.5 30t-11 30t-16.5 23t-30 9q-17 0 -29.5 -7.5t-21 -20t-13 -27.5t-4.5 -30q0 -28 10 -54.5t27.5 -47.5t42 -34t54.5 -13
q24 0 40 4t28 9t20.5 9t16.5 4q20 0 32.5 -18t12.5 -36q0 -22 -16.5 -46t-46.5 -43.5t-72.5 -32.5t-94.5 -13q-57 0 -106.5 19.5t-86.5 55t-58.5 84t-21.5 105.5z" />
    <glyph glyph-name="d" unicode="d" horiz-adv-x="683" 
d="M399 278q0 15 -1 36t-6.5 40.5t-17 33.5t-33.5 14q-25 0 -40.5 -18.5t-24 -44.5t-11.5 -53.5t-3 -45.5t3 -40t11 -42t22.5 -33.5t37.5 -13.5q25 0 38 20t18.5 47t6 55t0.5 45zM620 169q0 -26 8.5 -37.5t18 -18.5t18 -15.5t8.5 -27.5t-16.5 -32.5t-41 -22.5t-53.5 -14
t-54.5 -8t-43.5 -3.5t-21 -0.5q-19 0 -24.5 8.5t-6.5 19t-3 19t-14 8.5q-7 0 -18.5 -9t-28.5 -20t-41 -20t-57 -9q-49 0 -91.5 23.5t-74 61t-49.5 84.5t-18 93q0 50 19 97.5t52 84t78 59t97 22.5q26 0 46 -4.5t35 -10.5t24.5 -10.5t13.5 -4.5q6 0 9 5.5t4.5 12.5t2 14.5
t0.5 11.5q0 23 -11.5 31.5t-25 13t-25 11.5t-11.5 27q0 18 19 32.5t47.5 24.5t61.5 17t61.5 11t48 6t20.5 2q23 0 30 -14.5t7 -39.5v-478z" />
    <glyph glyph-name="e" unicode="e" horiz-adv-x="557" 
d="M264 230q-8 0 -17.5 -0.5t-9.5 -13.5q0 -19 11 -35.5t27.5 -29t36 -20t37.5 -7.5q28 0 49.5 7t37.5 15.5t27 15.5t19 7t15 -5t12.5 -12.5t8.5 -16.5t3 -16q0 -29 -23.5 -53.5t-58.5 -42t-75 -27.5t-74 -10q-68 0 -119 22.5t-85 59t-51.5 83t-17.5 94.5q0 58 23 106.5
t61.5 84t89.5 55.5t107 20q64 0 110 -21.5t76 -53t44.5 -67.5t14.5 -64q0 -25 -5 -39.5t-14 -22.5t-20 -10.5t-23 -2.5h-217zM292 326q10 0 20.5 -0.5t19 2t14 8.5t5.5 20q0 27 -15.5 45.5t-43.5 18.5q-25 0 -42.5 -21t-17.5 -45q0 -14 5.5 -20t14.5 -7.5t19.5 -1t20.5 0.5z
" />
    <glyph glyph-name="f" unicode="f" horiz-adv-x="446" 
d="M91 259q2 23 -7 35t-33 12q-5 0 -12 -0.5t-14 0t-12 3.5t-5 10q0 30 -0.5 47.5t1 26.5t7 12t16.5 4q9 1 18.5 3.5t9.5 15.5q0 7 -6 17.5t-13 25.5t-13 33.5t-6 42.5q0 45 21 75t53 49t71.5 27t77.5 8q61 0 100 -14t61.5 -34.5t31 -42.5t8.5 -38q0 -32 -22 -54.5
t-54 -22.5q-33 0 -53 14t-35.5 31t-30.5 31t-36 14q-15 0 -24.5 -10.5t-9.5 -25.5q0 -24 16.5 -40.5t37.5 -30.5t41 -27.5t27 -29.5q2 -6 4 -8.5t10 -2.5q16 0 33.5 1t31.5 0.5t23.5 -5t8.5 -15.5l-5 -73q-1 -11 -8 -14t-18 -3q-22 0 -35.5 -1t-21 -7t-10 -19t-2.5 -38
q0 -21 2.5 -45t7.5 -44q7 -23 21.5 -31t29.5 -13.5t26.5 -14t11.5 -31.5q0 -9 -4 -21.5t-25.5 -24t-67.5 -19.5t-130 -8q-18 0 -48 1t-58.5 8t-49.5 21.5t-21 40.5q0 21 11 29.5t24.5 14.5t25 15t13.5 32z" />
    <glyph glyph-name="g" unicode="g" horiz-adv-x="607" 
d="M350 317q0 15 -2.5 35t-9 38t-19.5 30t-34 12q-15 0 -25.5 -6.5t-17 -16.5t-10 -23t-3.5 -26q0 -14 2.5 -35t9 -40t18.5 -32.5t31 -13.5q17 0 28.5 6.5t18.5 17.5t10 25t3 29zM162 -50q0 -20 13 -33t31 -20.5t38 -10.5t35 -3q12 0 30.5 1.5t36 6.5t29.5 15.5t12 27.5
q0 16 -12.5 23t-26.5 7q-11 0 -36.5 -3t-49.5 -3q-9 0 -22 1t-26.5 2.5t-24.5 3t-15 1.5q-7 0 -9.5 -5.5t-2.5 -10.5zM600 8q0 -34 -17.5 -71t-56.5 -68t-102 -51.5t-155 -20.5q-69 0 -117.5 12t-79 31t-44.5 43t-14 48q0 22 8.5 34t19 19t19 11t8.5 10q0 5 -8.5 12.5
t-18.5 18t-18.5 24t-8.5 30.5q0 27 12.5 44.5t28 29.5t28 19.5t12.5 12.5q0 4 -10.5 15t-23.5 27.5t-23.5 39t-10.5 50.5q0 45 25 78.5t63 55.5t82 32.5t82 10.5q19 0 40.5 -3t42.5 -6.5t40 -6.5t32 -3q28 0 50 8.5t37.5 18t25.5 18t16 8.5q9 0 15 -5t10 -12.5t6 -16
t2 -15.5q0 -21 -9 -39t-19.5 -31.5t-19 -23t-8.5 -13.5q0 -8 1.5 -15.5t1.5 -15.5q0 -51 -26.5 -85.5t-66 -55.5t-86.5 -30.5t-88 -9.5q-13 0 -25.5 1.5t-26.5 1.5q-13 0 -20 -7.5t-7 -19.5t7 -19t17.5 -11t22 -5.5t20.5 -1.5q12 0 37 2.5t53.5 6t55 6t41.5 2.5q39 0 67 -10
t46 -27t26.5 -38.5t8.5 -43.5z" />
    <glyph glyph-name="h" unicode="h" horiz-adv-x="713" 
d="M654 149q0 -32 7.5 -46.5t17 -22t17 -13.5t7.5 -21q0 -22 -20.5 -33.5t-48 -17t-55 -6t-41.5 -0.5q-12 0 -37 1t-50.5 5.5t-45 15t-19.5 29.5q0 11 4.5 17.5t10.5 14t12 18t9 29.5q5 24 6 49.5t1 50.5q0 19 -1.5 43.5t-8 47t-21 38t-41.5 15.5q-23 0 -35 -9t-17.5 -23
t-6 -31t-0.5 -34v-116q0 -31 6 -46t13.5 -23t14 -14t6.5 -19q0 -22 -18.5 -34t-43.5 -17.5t-50.5 -6.5t-39.5 -1q-54 0 -88 5t-53.5 13.5t-27 19.5t-7.5 23q0 15 6.5 21.5t15.5 13t18.5 17.5t15.5 35q4 18 6.5 49t4 65t1.5 66.5v53.5q0 34 -1.5 68t-2.5 68q-1 27 -10.5 38
t-21 17.5t-21 13t-9.5 24.5q0 20 19.5 35.5t48 26.5t62.5 18.5t63 12t48.5 6.5l19.5 2q23 0 27.5 -8t4.5 -30l-6 -190v-16t2 -16.5t7 -13t15 -5.5q11 0 21 14t25.5 30.5t41 30.5t67.5 14q46 0 76.5 -13t49.5 -33t28.5 -44t13.5 -46.5t4 -40v-24.5z" />
    <glyph glyph-name="i" unicode="i" horiz-adv-x="375" 
d="M305 185q0 -44 9 -62t20.5 -26t20.5 -14t9 -26q0 -26 -20.5 -39.5t-48.5 -20t-57 -7.5t-46 -1q-65 0 -101 6.5t-53 16t-21 20.5t-4 20q0 13 6.5 21.5t15.5 15t17.5 13.5t13.5 19q5 13 7.5 43.5t3.5 64.5t-1 64.5t-6 44.5q-3 13 -13 19t-20.5 11.5t-18.5 13.5t-8 25
q0 18 19 32.5t47.5 25.5t62 19t62.5 13.5t49.5 8t23.5 2.5q22 0 26.5 -14t4.5 -30v-279zM300 638q0 -29 -22 -48t-53 -30t-64 -15.5t-54 -4.5q-16 0 -31.5 3.5t-28 12t-20 21.5t-7.5 31q0 25 21.5 42.5t51 28.5t60.5 16.5t50 5.5q15 0 32 -3t31.5 -10t24 -19t9.5 -31z" />
    <glyph glyph-name="j" unicode="j" horiz-adv-x="388" 
d="M318 25q0 -19 -0.5 -41t-3.5 -44.5t-9.5 -43t-18.5 -35.5q-14 -17 -35 -29t-44.5 -19.5t-47.5 -11.5t-45 -4q-16 0 -36.5 3.5t-38.5 11.5t-30.5 21.5t-12.5 33.5q0 13 9.5 22.5t22.5 9.5q8 0 15 -1.5t14 -1.5q12 0 18.5 9t6.5 20q0 9 -1 13t-1.5 8.5t-1.5 11t-1 19.5v313
q0 36 -10 49t-22.5 18t-22.5 10.5t-10 25.5q0 24 20 41.5t50 30.5t65.5 21t65.5 13t50.5 7l20.5 2q27 0 30.5 -15.5t3.5 -37.5v-430zM306 638q0 -29 -22 -48t-53 -30t-64 -15.5t-54 -4.5q-16 0 -31.5 3.5t-28 12t-20 21.5t-7.5 31q0 25 21.5 42.5t51 28.5t60.5 16.5t50 5.5
q15 0 32 -3t31.5 -10t24 -19t9.5 -31z" />
    <glyph glyph-name="k" unicode="k" horiz-adv-x="771" 
d="M368 152q-2 2 -6.5 8.5t-10.5 13.5t-11.5 12.5t-9.5 5.5q-8 0 -9 -11.5t-1 -16.5q-1 -33 5 -47.5t14 -21.5t15 -13t7 -24q0 -11 -3.5 -23t-19.5 -22t-49 -17t-91 -7q-31 0 -62 0.5t-56 6t-41 18.5t-16 38q0 18 8.5 23.5t18.5 11.5t19 18t10 44q1 26 2.5 56t2.5 58.5t2 53
t1 41.5v143q0 30 -12 39t-26.5 12t-26.5 7.5t-12 25.5q0 17 17 32t43.5 28t59 23.5t63.5 17.5t57 11t39 4q20 0 24.5 -10.5t3.5 -27.5l-5 -212q-2 -48 1 -68.5t21 -20.5q6 0 19 5.5t26.5 13.5t24 16t10.5 14q0 5 -3 9.5t-7 9t-7 10t-3 13.5q0 19 16.5 30.5t39 16.5t45.5 6.5
t36 1.5q15 0 40.5 -1t50 -7t42 -19t17.5 -36q0 -17 -6.5 -23.5t-19.5 -10t-31 -8.5t-40 -19q-4 -2 -12 -6.5t-16.5 -9.5t-14.5 -11t-6 -10q0 -6 9 -21t22.5 -34.5t29.5 -41t31 -41t27 -34t17 -20.5q17 -21 34.5 -33t32 -21t24 -18t9.5 -25q0 -23 -21 -40.5t-79 -17.5h-141
q-15 0 -24.5 1t-16 4t-13 9.5t-15.5 18.5z" />
    <glyph glyph-name="l" unicode="l" horiz-adv-x="384" 
d="M313 179v-34.5t4 -32.5q4 -14 13.5 -19t19 -9t16.5 -10.5t7 -22.5q0 -25 -19.5 -38t-46.5 -18t-55 -5.5t-44 -0.5q-17 0 -48 0.5t-61.5 6t-53 19t-22.5 40.5q0 13 7 18.5t16 10t18 10.5t14 20q5 15 7.5 44t4 60.5t1.5 62v48.5v35t-0.5 42t-2 43.5t-4.5 38.5
q-6 28 -18 39.5t-24.5 19t-22 16.5t-9.5 30q0 22 19.5 38.5t48.5 28.5t63.5 20t65 12.5t52 6.5t25.5 2q26 0 34 -14.5t8 -37.5q0 -9 -2 -33t-4.5 -60t-4.5 -82.5t-2 -100.5v-194z" />
    <glyph glyph-name="m" unicode="m" horiz-adv-x="1014" 
d="M70 279q0 48 -7.5 66t-15.5 25q-5 4 -10 6.5t-8.5 6t-6 8.5t-2.5 15q0 18 18.5 33t46 26.5t60 19.5t60 13t46 7.5t19.5 2.5q19 0 23 -13.5t4 -29.5q0 -5 -0.5 -12.5t1 -15t5 -13t11.5 -5.5t20.5 14t33.5 31t51.5 30.5t75.5 13.5t69.5 -14t38 -30.5t19.5 -30.5t14 -14
q6 0 19.5 14t35.5 31q23 17 53 30.5t68 13.5q72 0 113 -38t41 -112v-211q0 -22 6 -35t12.5 -22t12.5 -16.5t6 -18.5q0 -24 -18.5 -37t-43.5 -19.5t-50.5 -8t-40.5 -1.5q-12 0 -37 2t-50 8t-43.5 17.5t-18.5 31.5q0 14 5.5 22t12 17t12 21t5.5 34v90v37.5t-4.5 41t-15.5 33.5
t-32 14t-31.5 -11t-15 -27.5t-4.5 -34.5v-32v-62q0 -46 5.5 -68.5t12.5 -33.5t12.5 -17t5.5 -20q0 -23 -19.5 -36t-45 -19t-52 -7t-39.5 -1q-57 0 -88.5 5t-47.5 12.5t-19 17.5t-3 21q0 13 4 19.5t9.5 11t12 9.5t11.5 15t8.5 27.5t2.5 47.5v57v34.5t-4.5 42t-15.5 35
t-32 14.5t-31.5 -11t-15 -27.5t-4.5 -34.5v-32v-81q0 -35 4 -53t9.5 -29l9.5 -19t4 -21q0 -10 -5.5 -20.5t-23 -19.5t-49 -15t-82.5 -6q-15 0 -41 0.5t-52 5.5t-45 15.5t-19 30.5q0 17 9.5 24.5t20.5 18.5t20.5 33.5t9.5 69.5v92z" />
    <glyph glyph-name="n" unicode="n" horiz-adv-x="705" 
d="M298 167q0 -36 5.5 -54t11.5 -27.5t11.5 -16t5.5 -20.5q0 -23 -21.5 -35.5t-50 -18t-58 -6t-44.5 -0.5t-39 1t-47 6.5t-39.5 17.5t-16.5 35q0 18 7 22.5t16 10t17 19.5t9 51l4 150q1 28 -8.5 40t-20.5 19.5t-20.5 15.5t-9.5 28q0 13 17 26t43 24.5t57.5 21t59 16.5t48 11
t25.5 4q17 0 26.5 -12t9.5 -27q0 -5 -0.5 -9t-0.5 -9q0 -9 4.5 -17.5t15.5 -8.5q12 0 21 13t24 29q15 15 39.5 28t67.5 13q52 0 85 -15.5t52 -42.5t27.5 -62.5t11.5 -75t3 -80.5t3 -79q2 -30 9.5 -43.5t15.5 -22t14.5 -15.5t6.5 -23q0 -7 -2.5 -17t-19 -19.5t-54.5 -16.5
t-108 -7q-14 0 -36 0.5t-43.5 5.5t-37 16t-15.5 32q0 13 5 19t12 12t13 17.5t8 35.5q2 27 6 66t1 76t-18 63t-50 26q-24 0 -36 -11.5t-17 -28.5t-5 -37v-37v-77z" />
    <glyph glyph-name="o" unicode="o" horiz-adv-x="633" 
d="M292 -14q-56 0 -105.5 16t-87 47t-59.5 77t-22 105q0 67 27 119t72 88t103 54.5t120 18.5q66 0 117 -23.5t86 -60.5t53.5 -84t18.5 -93q0 -62 -30 -110.5t-76.5 -83t-104 -52.5t-112.5 -18zM385 174q0 11 -2 31.5t-6 45t-10.5 50t-16.5 46t-23 33.5t-30 13q-25 0 -38 -19
t-11 -41q1 -24 6 -60.5t15 -72t27 -61.5t43 -27q14 -1 23 4t14 14t7 20.5t2 23.5z" />
    <glyph glyph-name="p" unicode="p" horiz-adv-x="699" 
d="M435 236q0 18 -2.5 40t-10.5 41.5t-22 32.5t-38 13q-14 0 -23 -5t-14.5 -25t-8 -59.5t-2.5 -107.5q0 -25 12.5 -35t38.5 -10q23 0 37 11t21.5 28.5t9.5 37.5t2 38zM88 198q0 39 -1 64t-2.5 40t-3.5 21t-4 8q-5 5 -16 6.5t-22.5 5.5t-20 14t-8.5 31q0 17 15.5 32.5
t40.5 29t56 24t62.5 18.5t59 12t46.5 4q18 0 23 -6.5t5 -23.5q0 -5 1.5 -13t9.5 -8q5 0 18 8.5t32.5 18.5t45 18.5t56.5 8.5q49 0 86.5 -22.5t63 -58t38.5 -79.5t13 -88q0 -50 -17 -99.5t-48.5 -89t-76 -64t-99.5 -24.5q-18 0 -35 4t-31 8.5t-24 8.5t-13 4q-11 0 -13.5 -12
t-2.5 -20q0 -29 9.5 -41t21.5 -19.5t21.5 -15t9.5 -25.5q0 -21 -15 -33.5t-35.5 -19t-42.5 -8.5t-37 -2q-50 0 -94 8.5t-76 22.5t-50.5 32t-18.5 37q0 17 6.5 24t16 11.5t19.5 10.5t17 21q4 8 6.5 18.5t4 28.5t2.5 45t1 69v55z" />
    <glyph glyph-name="q" unicode="q" horiz-adv-x="681" 
d="M391 241q0 16 0.5 43t-4 52.5t-17 44t-37.5 18.5q-7 0 -18 -4.5t-21.5 -17.5t-18 -37.5t-7.5 -63.5q0 -80 25 -120.5t55 -40.5q19 0 28 15t12.5 36t3 42t-0.5 33zM17 250q0 65 24 114t65.5 81.5t96 49t114.5 16.5q27 0 52.5 -4t47.5 -8.5t39 -8t27 -3.5q15 0 28.5 3.5
t26 8t25.5 8.5t28 4q19 0 32 -7.5t13 -28.5q0 -17 -3 -44t-7 -71t-7 -108.5t-3 -155.5q0 -26 1 -52l2 -52q1 -43 9.5 -59.5t18 -23.5t17 -12.5t7.5 -26.5q0 -24 -15 -37t-36.5 -20t-45 -8.5t-40.5 -1.5q-13 0 -34.5 1t-46 4.5t-50 10t-45.5 16.5t-33 24t-13 33t11 25.5
t24 13.5t24 19.5t11 42.5q0 8 -1.5 17.5t-12.5 9.5q-8 0 -18 -5.5t-25 -11.5t-34.5 -11.5t-45.5 -5.5q-56 0 -98.5 22t-71 59t-43.5 84.5t-15 98.5z" />
    <glyph glyph-name="r" unicode="r" horiz-adv-x="562" 
d="M78 303q0 37 -9.5 49t-21.5 16.5t-21.5 10t-9.5 28.5q0 20 17.5 35t43.5 26.5t57 19t58 12t46 6.5t21 2q28 0 34 -9.5t9 -34.5q1 -9 2.5 -22t14.5 -13q9 0 17.5 12.5t21.5 27t33.5 27t52.5 12.5q51 0 81 -33t30 -83q0 -25 -10 -47t-27 -38t-39 -25.5t-47 -9.5
q-24 0 -40.5 9t-28.5 19.5t-21 19.5t-19 9q-11 0 -15.5 -11t-6.5 -25t-1.5 -28t0.5 -21q0 -23 2 -52t6 -58q2 -17 15 -22.5t28 -10t27 -13.5t12 -31q0 -24 -15.5 -37.5t-42.5 -20t-63 -8.5t-77 -2q-17 0 -47.5 1t-60.5 7t-52 19.5t-22 39.5q0 16 7.5 25t17 16t19 15t13.5 21
q3 9 5 23.5t3.5 30.5t2 30.5t0.5 25.5v60z" />
    <glyph glyph-name="s" unicode="s" horiz-adv-x="501" 
d="M229 511q15 0 30.5 -2t29.5 -4q14 -3 25 -5t16 -2q8 0 14 2t13 5q7 2 13.5 4t13.5 2q17 0 33.5 -15t29.5 -36t21 -44t8 -38q0 -20 -14.5 -33.5t-34.5 -13.5q-21 0 -38.5 12.5t-33 27t-30.5 27t-31 12.5q-14 0 -25 -10t-11 -24q0 -16 16.5 -28.5t40.5 -25.5t53 -27.5
t53 -35t40.5 -48t16.5 -66.5q0 -35 -16 -64.5t-42.5 -50.5t-62 -32.5t-74.5 -11.5q-15 0 -35 2t-39 5q-19 2 -33.5 4t-19.5 2t-10 -0.5t-10 -1.5t-9.5 -1.5t-9.5 -0.5q-15 0 -24 3.5t-20 15.5q-9 10 -18 25.5t-16 32.5t-11.5 34t-4.5 31q0 20 8 33.5t30 13.5
q16 0 32.5 -15.5t33 -34t35 -34t39.5 -15.5q15 0 27 7.5t12 24.5q0 15 -14.5 26.5t-36.5 23t-47 26t-47 35.5t-36.5 50t-14.5 70q0 37 14.5 67.5t39.5 51.5t58.5 32.5t72.5 11.5z" />
    <glyph glyph-name="t" unicode="t" horiz-adv-x="487" 
d="M324 216q0 -25 5 -41t12.5 -25.5t17.5 -13t20 -3.5q12 0 21 3.5t17 8t15 8t14 3.5q15 0 24.5 -16t9.5 -30q0 -25 -19.5 -47.5t-50 -39.5t-69 -27t-76.5 -10q-19 0 -49.5 6t-59 25t-49.5 54.5t-21 95.5v206q0 14 -0.5 20t-4.5 8t-13 1.5t-26 -0.5h-30t-14 4q-5 5 -5 14v26
v19t9 14l228 145q9 5 14 7.5t9.5 3t11 0.5h17.5h23.5t12.5 -3.5t5 -12.5t1 -26q0 -23 -0.5 -44t3.5 -30q2 -6 9 -7t27 -1h70q16 0 25 -1t13 -6t4.5 -14.5t0.5 -26.5q0 -21 -1.5 -33.5t-6.5 -18.5t-14 -7.5t-24 -1.5h-69q-13 0 -20.5 -0.5t-11 -4.5t-4.5 -11.5t-1 -20.5v-149
z" />
    <glyph glyph-name="u" unicode="u" horiz-adv-x="712" 
d="M301 216q0 -15 1.5 -33t7 -33t17 -25.5t31.5 -10.5q27 0 40 15.5t18 37.5t4.5 46.5t-0.5 42.5v54.5t-4 53.5q-3 19 -12.5 27t-19 13.5t-17.5 12t-8 22.5q0 15 15 25.5t38.5 18.5t52 12.5t55 7.5t47.5 4t31 1q27 0 39 -15t12 -41q0 -24 -1 -47.5t-1 -47.5v-201
q0 -23 8.5 -31.5t19 -13t19 -11t8.5 -24.5q0 -26 -28.5 -42.5t-67 -26.5t-77 -14t-59.5 -4q-29 0 -37 9.5t-9.5 20.5t-3 20.5t-16.5 9.5q-8 0 -20.5 -9.5t-30.5 -20.5t-42.5 -20.5t-57.5 -9.5q-47 0 -78.5 12t-51 32.5t-29 49t-13 62t-3 70t0.5 74.5t-5 59.5t-13 33
t-16.5 16t-16.5 8.5t-13 11t-5 24q0 16 18.5 27t47 18.5t61.5 12t62 6.5t49 2.5t22 0.5q21 0 26 -9.5t5 -28.5v-254z" />
    <glyph glyph-name="v" unicode="v" horiz-adv-x="659" 
d="M78 370q-11 21 -25.5 28t-28 11.5t-22.5 11.5t-9 27q0 9 5 19.5t25 19.5t60 15t111 6q13 0 41 -0.5t56.5 -5t50 -15t21.5 -30.5q0 -12 -6 -20.5t-13 -15t-13 -13.5t-6 -17q0 -9 6 -25t15.5 -32.5t20.5 -28.5t20 -12q13 0 25 13.5t22 31.5t16 35t6 25q0 9 -5.5 16.5
t-11.5 14t-11.5 14.5t-5.5 19q0 19 17.5 28.5t41 13.5t47 4h34.5t28.5 -0.5t34.5 -5t29 -13.5t12 -25q0 -18 -10.5 -25t-25.5 -13t-31 -14.5t-27 -29.5l-164 -319q-25 -47 -45.5 -62t-37.5 -15q-15 0 -27 7t-21.5 18t-17.5 24t-14 24z" />
    <glyph glyph-name="w" unicode="w" horiz-adv-x="1039" 
d="M552 181q-5 8 -13.5 20.5t-19.5 12.5q-16 0 -26.5 -16.5t-17.5 -28.5l-73 -127q-5 -9 -11 -18t-13.5 -17t-16.5 -13t-21 -5q-14 0 -25 6.5t-20.5 17t-17 22t-13.5 22.5l-190 309q-12 20 -26 26.5t-26.5 10.5t-20.5 10.5t-8 25.5q0 24 24.5 38t57.5 20.5t66.5 8.5t50.5 2
q15 0 41.5 -1t53 -7t46 -18t19.5 -34q0 -9 -3 -15t-6.5 -11t-6.5 -9.5t-3 -9.5q0 -6 7.5 -23.5t18.5 -36t23.5 -32.5t21.5 -14q7 0 15 8.5t15 19.5t11.5 22t4.5 16q0 18 -9.5 28.5t-21.5 18.5t-21.5 16t-9.5 22q0 7 4 17.5t23 20t59.5 16t114.5 6.5q14 0 38.5 -0.5t48 -5.5
t41 -15.5t17.5 -31.5q0 -14 -5 -22t-11 -14t-11 -11.5t-5 -14.5q0 -8 6.5 -24t15.5 -32.5t19.5 -29t18.5 -12.5q11 0 23 14.5t22 32t16.5 33t6.5 18.5q0 9 -4.5 15.5t-9.5 13.5t-9.5 15t-4.5 20q0 19 14.5 29t34 15t40.5 6t33 1q13 0 33.5 -1t40 -5.5t34 -14.5t14.5 -29
q0 -21 -10 -27.5t-26 -12t-34.5 -17.5t-35.5 -43l-128 -251q-6 -12 -17 -32t-25 -39t-30.5 -33t-32.5 -14q-15 0 -30.5 13t-29.5 31t-25.5 36.5t-18.5 29.5z" />
    <glyph glyph-name="x" unicode="x" horiz-adv-x="632" 
d="M550 133q18 -23 33 -33t26 -16t17 -12t6 -21q0 -10 -3.5 -21t-22 -20t-59.5 -15t-116 -6q-16 0 -44.5 -0.5t-56 4t-47.5 16.5t-20 37q0 13 6.5 19.5t14 10.5t14 9t6.5 17q0 7 -6 20t-14 25.5t-17.5 21.5t-16.5 9t-17 -11.5t-19.5 -27t-16.5 -31t-7 -22.5q0 -8 3.5 -13
t8 -10t8 -11.5t3.5 -18.5q0 -16 -12.5 -25t-30 -13t-35.5 -5t-29 -1q-13 0 -31.5 1t-35 5.5t-28 14.5t-11.5 28q0 19 8 24t21.5 9t30.5 13t34 37l81 132q2 2 7 10t5 12q0 5 -6.5 12t-8.5 10l-64 79q-14 17 -30.5 23t-31 10.5t-24.5 12t-10 25.5q0 24 27.5 36.5t64 18t72 6
t51.5 0.5h39t52.5 -4.5t46.5 -14.5t20 -31q0 -16 -10 -27t-10 -22q0 -5 4.5 -13.5t11 -17.5t13 -15.5t11.5 -6.5t13 7t15 17t12 19.5t5 14.5q0 11 -10.5 22.5t-10.5 24.5q0 18 12 27.5t29 14t35 5t30 0.5q29 0 47.5 -4t29 -10.5t14 -15t3.5 -18.5q0 -14 -9.5 -21.5
t-22.5 -14.5t-28 -16t-25 -24l-57 -83q-2 -2 -5.5 -7t-8 -11t-7.5 -11.5t-3 -8.5q0 -5 8.5 -17t10.5 -15z" />
    <glyph glyph-name="y" unicode="y" horiz-adv-x="651" 
d="M445 84q-18 -50 -40.5 -97.5t-54.5 -84t-76 -59t-105 -22.5q-27 0 -55 7t-50.5 22t-37 37.5t-14.5 53.5q0 19 6.5 35.5t18.5 29t28.5 20t35.5 7.5q35 0 50.5 -16.5t23 -36.5t13.5 -36.5t21 -16.5q20 0 29.5 16t9.5 33q0 21 -11.5 46.5t-20.5 44.5l-140 293q-7 15 -20 22
t-25.5 13t-21.5 14t-9 25q0 11 6 24t29.5 24t69 18.5t124.5 7.5q14 0 36 -1.5t42.5 -7.5t35 -18.5t14.5 -33.5q0 -10 -3.5 -17t-8 -13.5t-8 -13t-3.5 -15.5q0 -14 7 -33t17 -35.5t20.5 -28t16.5 -11.5q11 0 20.5 11t16 26.5t10.5 31t4 24.5q0 17 -5 26t-11 16t-11 14t-5 20
q0 20 15 31.5t36 17.5t43 8t36 2q12 0 30.5 -1.5t35.5 -7t29 -15.5t12 -27q0 -22 -10 -31t-24.5 -15t-31 -15t-29.5 -31q-17 -26 -29 -57.5t-23 -60.5z" />
    <glyph glyph-name="z" unicode="z" horiz-adv-x="540" 
d="M359 185q-5 -9 -13.5 -25.5t-8.5 -26.5q0 -16 11.5 -20.5t24.5 -4.5q31 0 45.5 13.5t23.5 29.5t16.5 29.5t24.5 13.5q27 0 38.5 -21t11.5 -45q0 -29 -11 -55.5t-27 -46t-33 -31t-29 -11.5q-8 0 -13 2.5t-13.5 5.5t-23 5.5t-41.5 2.5h-244q-9 0 -23 0.5t-27 4t-22 11.5
t-9 22q0 17 12 34t20 31l121 195q3 5 9.5 15t13 21.5t11.5 22.5t5 17q0 8 -5 12t-11.5 6t-14 2.5t-13.5 0.5q-27 0 -40.5 -13t-23 -29t-19.5 -29t-30 -13q-23 0 -34 18.5t-11 38.5q0 26 9.5 52.5t23 47.5t28.5 34.5t27 13.5q10 0 19 -3t28.5 -6.5t54.5 -6.5t97 -3h111
q6 0 18 0.5t25.5 0.5t25.5 -1t16 -3q17 -9 17 -29q0 -14 -8.5 -31t-15.5 -29z" />
    <glyph glyph-name="braceleft" unicode="{" horiz-adv-x="524" 
d="M341 21q0 -23 8.5 -35.5t34.5 -12.5q13 0 21 -4.5t12.5 -10.5t6 -12t1.5 -10t-1.5 -10.5t-6 -12.5t-12.5 -10t-21 -4h-93q-68 0 -105 32.5t-37 108.5v229q0 23 -8.5 35.5t-34.5 12.5q-13 0 -21 4.5t-12.5 10.5t-6 12.5t-1.5 11.5q0 4 1.5 10.5t6 12.5t12.5 10.5t21 4.5
q26 0 34.5 12.5t8.5 36.5v218q0 76 37 108.5t105 32.5h93q13 0 21 -4t12.5 -10t6 -12.5t1.5 -10.5t-1.5 -10t-6 -12t-12.5 -10.5t-21 -4.5q-26 0 -34.5 -12.5t-8.5 -35.5v-191q0 -28 -3.5 -50.5t-14 -39t-29 -27.5t-48.5 -15v-3q30 -4 48.5 -14.5t29 -27.5t14 -39.5
t3.5 -50.5v-201z" />
    <glyph glyph-name="bar" unicode="|" horiz-adv-x="496" 
d="M190 750h116v-1000h-116v1000z" />
    <glyph glyph-name="braceright" unicode="}" horiz-adv-x="524" 
d="M183 222q0 28 3.5 50.5t14 39.5t29 27.5t48.5 14.5v3q-30 4 -48.5 15t-29 27.5t-14 39t-3.5 50.5v191q0 23 -8.5 35.5t-34.5 12.5q-13 0 -21 4.5t-12.5 10.5t-6 12t-1.5 10t1.5 10.5t6 12.5t12.5 10t21 4h93q68 0 105 -32.5t37 -108.5v-218q0 -24 8.5 -36.5t34.5 -12.5
q13 0 21 -4.5t12.5 -10.5t6 -12.5t1.5 -10.5q0 -5 -1.5 -11.5t-6 -12.5t-12.5 -10.5t-21 -4.5q-26 0 -34.5 -12.5t-8.5 -35.5v-229q0 -76 -37 -108.5t-105 -32.5h-93q-13 0 -21 4t-12.5 10t-6 12.5t-1.5 10.5t1.5 10t6 12t12.5 10.5t21 4.5q26 0 34.5 12.5t8.5 35.5v201z
" />
    <glyph glyph-name="asciitilde" unicode="~" 
d="M469 349q18 0 34 -2t28 -9t19 -19.5t7 -34.5q0 -24 -9 -45.5t-24.5 -38t-36 -26t-43.5 -9.5q-30 0 -62.5 10.5t-63 23t-55.5 23t-40 10.5q-9 0 -10.5 -4.5t-1.5 -12.5q0 -28 -15.5 -39t-34.5 -11q-18 0 -34 2t-28 8.5t-19 19.5t-7 35q0 24 9 45.5t24.5 38t36 26t43.5 9.5
q30 0 62.5 -10.5t63 -23t55.5 -23t40 -10.5q9 0 10.5 4.5t1.5 12.5q0 28 15.5 39t34.5 11z" />
    <glyph glyph-name="uni00A0" unicode="&#xa0;" horiz-adv-x="315" 
 />
    <glyph glyph-name="exclamdown" unicode="&#xa1;" horiz-adv-x="324" 
d="M273 406q0 -23 -9 -43t-24 -35t-35 -24t-43 -9t-43 9t-35 24t-24 35t-9 43t9 43t24 35t35 24t43 9t43 -9t35 -24t24 -35t9 -43zM42 -59q0 47 15 98.5t36 93.5q3 7 11 21t17.5 28t20.5 24.5t20 10.5t20 -10.5t20.5 -24.5t17.5 -28t11 -21q21 -42 36 -93.5t15 -98.5
q0 -28 -7 -55.5t-21.5 -49t-37 -35t-54.5 -13.5t-54.5 13.5t-37 35t-21.5 49t-7 55.5z" />
    <glyph glyph-name="cent" unicode="&#xa2;" 
d="M268 548q0 16 1.5 25t6.5 13t14.5 4.5t24.5 0.5q11 0 20.5 0.5t17 -2t11.5 -9.5t4 -21t1.5 -20t16.5 -8q27 -3 56 -13.5t53 -28.5t39.5 -42.5t15.5 -54.5q0 -40 -27 -64t-65 -24q-23 0 -35.5 8.5t-20 20.5t-12 27t-10.5 27t-15.5 20.5t-27.5 8.5q-17 0 -28 -8t-18.5 -20
t-10.5 -27t-3 -29q0 -24 9.5 -47t26 -41t38.5 -28.5t47 -10.5q17 0 32 3.5t27 8t21 8.5t15 4q18 0 28.5 -17t10.5 -34q0 -15 -10.5 -33t-30 -34t-47 -29.5t-62.5 -19.5q-13 -2 -13.5 -10t-0.5 -20q0 -16 -1.5 -25t-6.5 -13.5t-14 -5.5t-25 -1t-26.5 0.5t-16.5 4t-8 12.5
t-2 26v20.5t-11 14.5q-38 10 -70 31.5t-56 51t-37.5 65.5t-13.5 76q0 41 11 73.5t27.5 57.5t37 42.5t39.5 29.5t34 18t22 8q14 4 15.5 9.5t1.5 20.5z" />
    <glyph glyph-name="sterling" unicode="&#xa3;" 
d="M74 376q4 0 11 0.5t13 2.5t10.5 6t4.5 12q0 9 -7.5 25t-7.5 41q0 49 27.5 85t68 59t86.5 34.5t82 11.5q58 0 100 -15.5t70 -37.5t41.5 -46t13.5 -42q0 -31 -22 -53t-49 -22q-14 0 -19.5 7.5t-13 17t-21 17t-42.5 7.5q-13 0 -26.5 -3t-25 -10.5t-18.5 -19.5t-7 -30
q0 -14 7 -22t17 -11.5t21 -4.5t20 -1q14 0 26.5 2.5t25.5 2.5q15 0 16 -14.5t1 -26.5v-17t-1.5 -16.5t-6.5 -13t-14 -5.5q-14 0 -28 2.5t-28 2.5q-24 0 -33 -10.5t-9 -36.5q0 -21 13 -35.5t32 -23.5t39 -13t35 -4q22 0 37 8t27.5 17.5t25 17.5t28.5 8q21 0 28.5 -17t7.5 -37
q0 -44 -20.5 -79t-52.5 -59t-70 -36.5t-73 -12.5q-38 0 -65 9.5t-45 21t-27.5 21t-12.5 9.5t-12.5 -10t-26 -21.5t-41.5 -21.5t-58 -10q-49 0 -79.5 34.5t-30.5 88.5q0 30 9 50t24 32t35.5 17.5t43.5 5.5q9 0 18.5 -1t18.5 -1q8 0 11.5 3.5t3.5 16.5q0 26 -12.5 36.5
t-31.5 12t-40 -1.5t-39 -3q-22 0 -28 15.5t-6 36.5q0 20 7 34t27 14h17z" />
    <glyph glyph-name="currency" unicode="&#xa4;" 
d="M187 516q26 16 59.5 26t66.5 10q35 0 69 -9.5t60 -26.5q14 14 23.5 23t18.5 9q10 0 22.5 -8t23.5 -19.5t18.5 -23.5t7.5 -21q-1 -10 -9.5 -19t-22.5 -23q38 -59 38 -129q0 -34 -9 -67.5t-29 -60.5q14 -14 22.5 -23t9.5 -19q0 -9 -7.5 -21.5t-19 -24t-24 -19t-21.5 -7.5
q-10 1 -19.5 9.5t-22.5 22.5q-26 -17 -57.5 -27t-66.5 -10q-74 0 -131 37q-14 -14 -23.5 -23t-18.5 -9q-10 0 -22.5 8t-23.5 19.5t-18.5 23.5t-7.5 21q1 10 9.5 19t22.5 23q-18 32 -27.5 60.5t-9.5 66.5q0 71 37 130q-14 14 -22.5 23t-9.5 19q0 9 7.5 21.5t19 24t24 19
t21.5 7.5q10 -1 19.5 -9.5t22.5 -22.5zM315 182q26 0 48.5 10t39 27t26 39.5t9.5 46.5t-9.5 46.5t-26 39.5t-39 27t-48.5 10t-48.5 -10t-39 -27t-26 -39.5t-9.5 -46.5t9.5 -46.5t26 -39.5t39 -27t48.5 -10z" />
    <glyph glyph-name="yen" unicode="&#xa5;" 
d="M474 430q-2 -2 -8.5 -10t-13.5 -18t-13 -19t-6 -12q0 -7 9.5 -7.5t13.5 -0.5q29 0 56 0.5t56 0.5q22 0 29.5 -11t7.5 -48q0 -19 -3.5 -29.5t-10.5 -15t-18 -5t-26 -0.5h-81h-35.5t-18.5 -2t-7 -8t-1 -18v-51q0 -22 11 -33t24.5 -19.5t24.5 -20t11 -35.5
q0 -29 -16.5 -44.5t-39.5 -23.5t-48.5 -9.5t-43.5 -1.5q-74 0 -113 9.5t-56 22.5t-19.5 26t-2.5 21q0 21 8.5 32.5t19.5 18.5t21.5 12.5t15.5 14.5q4 11 5 29.5t1 29.5q0 20 -1.5 30.5t-5 15t-10 5t-16.5 0.5q-22 1 -50.5 1.5t-50.5 0.5h-24.5t-17.5 4t-10.5 13t-3.5 27
q0 23 2.5 36t7.5 19t14 7.5t23 1.5q37 0 51.5 -1t26.5 -1q8 0 15 2.5t7 9.5q0 6 -6.5 15t-9.5 13l-76 97q-12 16 -27 23.5l-28 14t-21.5 17.5t-8.5 35q0 16 6.5 29.5t24 23.5t48.5 15.5t81 5.5q17 0 43.5 -1t51 -7.5t42.5 -21.5t18 -43q0 -12 -3 -20t-7 -13.5t-7 -9.5t-3 -8
q0 -7 5 -19t12 -23.5t14 -20t10 -8.5q5 0 13 8.5t16 20t14 22.5t6 16q0 4 -4 9t-8.5 12t-8 16t-3.5 21q0 26 19.5 40t46 21t53 8t41.5 1t38 -0.5t44.5 -6.5t37 -19.5t15.5 -39.5q0 -23 -12.5 -34.5t-29 -18.5t-33 -12t-24.5 -15z" />
    <glyph glyph-name="brokenbar" unicode="&#xa6;" horiz-adv-x="496" 
d="M190 616q0 15 1 26t6 18.5t17 11t33 3.5q22 0 34 -3.5t17.5 -11t6.5 -18.5t1 -25v-242q0 -11 -1 -20.5t-6.5 -16t-17.5 -10t-34 -3.5q-21 0 -33 3.5t-17 10.5t-6 17t-1 22v238zM190 116q0 15 1 26t6 18.5t17 11t33 3.5q22 0 34 -3.5t17.5 -11t6.5 -18.5t1 -25v-242
q0 -11 -1 -20.5t-6.5 -16t-17.5 -10t-34 -3.5q-21 0 -33 3.5t-17 10.5t-6 17t-1 22v238z" />
    <glyph glyph-name="section" unicode="&#xa7;" horiz-adv-x="758" 
d="M412 297q5 -2 11.5 -3.5t11.5 -1.5q6 0 11.5 6.5t9 15.5t6 18t2.5 14q0 12 -5 20t-13.5 13.5t-18 9t-18.5 6.5q-14 5 -28.5 9.5t-27.5 8t-23 5.5t-14 2q-7 0 -13 -6t-10.5 -14.5t-7 -17t-2.5 -14.5q0 -12 5 -20.5t13.5 -13.5t18.5 -8.5t20 -6.5zM170 469q0 5 -12.5 14.5
t-28 26t-28 42.5t-12.5 65q0 34 15 67.5t50 60t93 43t144 16.5q69 0 122.5 -10.5t89.5 -27t54.5 -37t18.5 -39.5q0 -15 -11.5 -26.5t-28 -20t-34 -13t-29.5 -4.5q-23 0 -38 12t-31 26t-38.5 26t-59.5 12q-9 0 -20.5 -2t-21.5 -7t-16.5 -13t-6.5 -20q0 -25 26 -37.5
t64.5 -21.5t83.5 -19.5t83.5 -30.5t64.5 -55t26 -93q0 -39 -15 -66.5t-33 -45.5t-33 -28.5t-15 -16.5q0 -7 14.5 -15.5t31.5 -24t31.5 -41.5t14.5 -68q0 -50 -22 -87.5t-60.5 -62.5t-91.5 -37.5t-116 -12.5q-70 0 -121 9t-87.5 22.5t-59.5 30t-35.5 32.5t-17.5 29t-5 20
q0 15 13.5 25t31.5 16t37 8t30 2q27 0 42.5 -14t32.5 -30.5t41.5 -30.5t68.5 -14q10 0 23 1.5t25 6.5t20 13t8 22q0 22 -27 35t-67.5 23.5t-87.5 23.5t-87.5 35t-67.5 57.5t-27 91.5q0 41 14.5 69t31.5 46.5t31.5 28.5t14.5 14z" />
    <glyph glyph-name="dieresis" unicode="&#xa8;" horiz-adv-x="706" 
d="M331 656q0 -25 -19 -41.5t-45.5 -26t-54.5 -13.5t-47 -4q-15 0 -31.5 3.5t-31 11t-23.5 20.5t-9 31q0 27 17 43t41 25t50.5 12t45.5 3q15 0 33.5 -2.5t35 -9.5t27.5 -19.5t11 -32.5zM636 656q0 -25 -19 -41.5t-45.5 -26t-54.5 -13.5t-47 -4q-15 0 -31.5 3.5t-31 11
t-23.5 20.5t-9 31q0 27 17 43t41 25t50.5 12t45.5 3q15 0 33.5 -2.5t35 -9.5t27.5 -19.5t11 -32.5z" />
    <glyph glyph-name="copyright" unicode="&#xa9;" horiz-adv-x="758" 
d="M379 -14q-75 0 -141.5 28.5t-116 78t-78.5 116t-29 142.5q0 75 29 141.5t78.5 116t116 78t141.5 28.5t141.5 -28.5t116 -78t78.5 -116t29 -141.5q0 -76 -29 -142.5t-78.5 -116t-116 -78t-141.5 -28.5zM379 55q61 0 115 23t94.5 63.5t63.5 94t23 115.5q0 61 -23 115
t-63.5 94t-94.5 63t-115 23q-62 0 -115.5 -23t-94 -63t-63.5 -94t-23 -115q0 -62 23 -115.5t63.5 -94t94 -63.5t115.5 -23zM489 520q7 0 13 2t12 2q17 0 35 -24.5t18 -71.5q0 -23 -13.5 -40t-37.5 -17q-22 0 -32.5 15t-22 33.5t-30 33.5t-54.5 15q-17 0 -28.5 -7t-18.5 -18
t-10.5 -25t-3.5 -28q0 -27 8 -52.5t23 -45.5t37.5 -32.5t51.5 -12.5q24 0 40 6t27 13t18 13t12 6q12 0 18 -10.5t6 -21.5q0 -10 -3.5 -22t-10 -23t-16.5 -19t-23 -11q-14 -3 -25.5 -8t-25 -10.5t-30 -9.5t-41.5 -4q-43 0 -81.5 16t-67 43.5t-45 64t-16.5 78.5t18.5 78.5
t48.5 63.5t68.5 42t79.5 15q20 0 37 -4t29.5 -9.5t21.5 -9.5t14 -4z" />
    <glyph glyph-name="ordfeminine" unicode="&#xaa;" horiz-adv-x="410" 
d="M205 619q0 11 -5 25.5t-20 14.5q-12 0 -20.5 -9.5t-17 -21t-20.5 -21t-32 -9.5q-15 0 -25 9t-10 25q0 21 18.5 37t44 26t52 15t42.5 5q57 0 91 -27t34 -72v-64q0 -33 5.5 -43.5t12 -12.5t12 -2.5t5.5 -13.5q0 -15 -9 -28t-22.5 -22.5t-29.5 -15t-29 -5.5q-18 0 -28 4.5
t-16 10t-10 10t-8 4.5q-5 0 -11 -4.5t-16 -10t-24 -10t-33 -4.5q-39 0 -69.5 20.5t-30.5 63.5q0 25 14 43t34.5 29.5t44.5 16.5t45 5h22.5t8.5 17v15zM193 540q-14 0 -22 -10.5t-8 -23.5q0 -11 5.5 -19.5t17.5 -8.5q15 0 17.5 12.5t2.5 23.5q0 8 -1 17t-12 9z" />
    <glyph glyph-name="guillemotleft" unicode="&#xab;" horiz-adv-x="561" 
d="M100 375q9 10 25 26.5t34.5 32t37 26.5t33.5 11q18 0 33.5 -13t15.5 -31q0 -16 -15 -39.5t-32.5 -49t-32.5 -50.5t-15 -44t15 -44t32.5 -50.5t32.5 -49t15 -39.5q0 -18 -15.5 -31t-33.5 -13q-15 0 -33.5 11t-37 26.5t-34.5 32t-25 26.5q-11 12 -26 27.5t-28.5 32.5
t-22.5 35.5t-9 35.5t9 35.5t22.5 35.5t28.5 32.5t26 27.5zM368 375q9 10 25 26.5t34.5 32t37 26.5t33.5 11q18 0 33.5 -13t15.5 -31q0 -16 -15 -39.5t-32.5 -49t-32.5 -50.5t-15 -44t15 -44t32.5 -50.5t32.5 -49t15 -39.5q0 -18 -15.5 -31t-33.5 -13q-15 0 -33.5 11
t-37 26.5t-34.5 32t-25 26.5q-11 12 -26 27.5t-28.5 32.5t-22.5 35.5t-9 35.5t9 35.5t22.5 35.5t28.5 32.5t26 27.5z" />
    <glyph glyph-name="logicalnot" unicode="&#xac;" 
d="M441 265q0 11 -0.5 17.5t-4 9.5t-10.5 3.5t-19 0.5h-269h-29t-20 5t-12 17t-4 36t4 36t12 17t20 5h29h354q65 0 65 -65v-182v-29t-5 -20t-17 -12t-36 -4t-36 4t-17 12t-5 20v29v100z" />
    <glyph glyph-name="uni00AD" unicode="&#xad;" horiz-adv-x="299" 
d="M259 204q-10 -19 -21 -27.5t-33 -8.5q-18 0 -36.5 4t-36.5 4q-33 0 -51.5 -0.5t-28.5 -1.5t-14.5 -1.5t-7.5 -0.5q-12 0 -21 8t-9 22q0 9 5 27t12 37t13.5 36t9.5 24q10 19 21 27.5t33 8.5q18 0 36.5 -4t36.5 -4q33 0 51.5 0.5t28.5 1.5t14.5 1.5t7.5 0.5q12 0 21 -8
t9 -22q0 -9 -5 -27t-12 -37t-13.5 -36t-9.5 -24z" />
    <glyph glyph-name="registered" unicode="&#xae;" horiz-adv-x="758" 
d="M379 -14q-75 0 -141.5 28.5t-116 78t-78.5 116t-29 142.5q0 75 29 141.5t78.5 116t116 78t141.5 28.5t141.5 -28.5t116 -78t78.5 -116t29 -141.5q0 -76 -29 -142.5t-78.5 -116t-116 -78t-141.5 -28.5zM379 55q61 0 115 23t94.5 63.5t63.5 94t23 115.5q0 61 -23 115
t-63.5 94t-94.5 63t-115 23q-62 0 -115.5 -23t-94 -63t-63.5 -94t-23 -115q0 -62 23 -115.5t63.5 -94t94 -63.5t115.5 -23zM215 427q0 36 -6.5 49t-14 16.5t-14 5.5t-6.5 17q0 11 7 18t17 10.5t21 4.5t19 1q17 0 33.5 -2t33.5 -2q26 0 53 2t53 2q23 0 46.5 -5.5t43 -17.5
t31.5 -31t12 -46q0 -28 -8.5 -43.5t-19 -23.5t-19 -12.5t-8.5 -10.5t11.5 -11t26 -15t26.5 -29.5t12 -55.5q1 -18 8 -24t14.5 -8.5t13.5 -5.5t6 -15q0 -11 -8 -19t-20.5 -13.5t-28 -8t-30.5 -2.5q-38 0 -58.5 12.5t-31.5 32t-16 41.5t-10 41.5t-14.5 32t-29.5 12.5
q-9 0 -12.5 -5.5t-3.5 -30.5q0 -12 1 -27t3 -26q1 -9 6.5 -13.5t11 -8t10 -8t4.5 -13.5q0 -11 -8 -18t-22 -11t-32.5 -5t-39.5 -1q-10 0 -27.5 0.5t-34.5 4.5t-29.5 12t-12.5 23q0 13 6.5 15t14 8t14 23.5t6.5 59.5v124zM343 408q0 -11 -0.5 -18.5t13.5 -7.5q26 0 36.5 14
t10.5 39q0 20 -7.5 37t-30.5 17q-15 0 -18.5 -8t-3.5 -21v-52z" />
    <glyph glyph-name="macron" unicode="&#xaf;" horiz-adv-x="614" 
d="M429 704q29 0 45 0.5t25 1.5q9 0 12.5 0.5t6.5 0.5q11 0 18.5 -6t7.5 -16q0 -7 -4.5 -20t-10 -26.5t-11.5 -25.5t-9 -17q-8 -14 -18 -20t-29 -6q-11 0 -36.5 3t-77.5 3h-163q-29 0 -45 -0.5t-25 -1t-12.5 -1t-6.5 -0.5q-11 0 -18.5 5.5t-7.5 15.5q0 7 4.5 20t10 27
t11.5 26t9 17q8 14 18 20t29 6q11 0 36.5 -3t77.5 -3h163z" />
    <glyph glyph-name="degree" unicode="&#xb0;" horiz-adv-x="378" 
d="M339 500q0 -31 -12 -58.5t-32.5 -47.5t-47.5 -32t-58 -12t-58.5 12t-47.5 32t-32 47.5t-12 58.5t11.5 58t32 47.5t48 32.5t58.5 12t58 -12t47.5 -32.5t32.5 -47.5t12 -58zM268 501q0 33 -23 55.5t-56 22.5t-56.5 -22.5t-22.5 -55.5q0 -33 23 -56.5t56 -23.5t56 23.5
t23 56.5z" />
    <glyph glyph-name="plusminus" unicode="&#xb1;" 
d="M424 266h-31.5t-14.5 -4q-5 -5 -5 -15.5v-31.5v-29t-5 -20t-17 -12t-36 -4t-36 4t-17 12t-5 20v29q0 21 0.5 32t-4.5 15t-15.5 4h-31.5h-68h-29t-20 5t-12 17t-4 36t4 36t12 17t20 5h29h68h31.5t15.5 5q4 4 4 14.5v31.5v29t5 20t17 12t36 4t36 -4t17 -12t5 -20v-29
q0 -21 0.5 -31t4.5 -15t14.5 -5h31.5h68h29t20 -5t12 -17t4 -36t-4 -36t-12 -17t-20 -5h-29h-68zM138 0h-29t-20 5t-12 17t-4 36t4 36t12 17t20 5h29h354h29t20 -5t12 -17t4 -36t-4 -36t-12 -17t-20 -5h-29h-354z" />
    <glyph glyph-name="uni00B2" unicode="&#xb2;" horiz-adv-x="378" 
d="M359 359q18 0 23.5 -15.5t5.5 -29.5q0 -18 -6 -37t-15.5 -34.5t-22.5 -25.5t-28 -10q-14 0 -17.5 4.5t-7 10t-12 10t-30.5 4.5h-212h-10.5t-12.5 1t-10 4.5t-4 9.5q0 3 1 6.5t5.5 8.5t14 14t26.5 23q12 11 31 29t37 39t31 42t13 37q0 34 -37 34q-14 0 -24 -5.5t-18 -12
t-16 -12t-19 -5.5q-14 0 -28 10.5t-14 24.5t16 32.5t43.5 34.5t64 27t78.5 11q52 0 83 -11.5t47 -27t20.5 -31t4.5 -24.5q0 -29 -17 -52.5t-37.5 -42.5t-37.5 -33t-17 -23q0 -11 9.5 -16t19.5 -5q17 0 28.5 5.5t20 12.5t15.5 12.5t15 5.5z" />
    <glyph glyph-name="uni00B3" unicode="&#xb3;" horiz-adv-x="378" 
d="M386 325q0 -21 -11.5 -48t-40 -50t-76.5 -39t-120 -16q-12 0 -36.5 1.5t-49 7t-43 15t-18.5 25.5q0 14 11 23.5t26 9.5q12 0 31.5 -5.5t49.5 -5.5q26 0 43 6t26.5 14.5t13.5 18.5t4 18q0 26 -21.5 38.5t-47.5 12.5q-12 0 -19.5 -1t-12 -2t-8 -2t-7.5 -1q-6 0 -11 6
t-8.5 13.5t-5.5 15.5t-2 12q0 9 13.5 15t30 12.5t30 17t13.5 30.5q0 19 -16 31t-35 12q-24 0 -40.5 -10.5t-25.5 -10.5q-10 0 -16.5 13t-6.5 21q0 10 11.5 21.5t33.5 21.5t53 16.5t69 6.5q19 0 46.5 -3.5t52.5 -12t42.5 -24t17.5 -39.5q0 -19 -7.5 -31.5t-17 -20.5
t-17 -13.5t-7.5 -10.5q0 -6 8 -8.5t20 -5.5t26.5 -8t26.5 -15.5t20 -27.5t8 -44z" />
    <glyph glyph-name="acute" unicode="&#xb4;" horiz-adv-x="408" 
d="M124 561q-20 0 -37 6.5t-17 30.5q0 16 11 27t24 20t24 17.5t11 18.5q0 7 -4 11t-4 12q0 9 11 15t25 9.5t28 4.5t20 1q12 0 32.5 -2.5t40.5 -8.5t34.5 -17t14.5 -28q0 -9 -14.5 -28.5t-41.5 -39t-67 -34.5t-91 -15z" />
    <glyph glyph-name="mu" unicode="&#xb5;" horiz-adv-x="712" 
d="M647 156q0 -23 8.5 -31.5t19 -13t19 -11t8.5 -24.5q0 -26 -28.5 -42.5t-67 -26.5t-77 -14t-59.5 -4q-29 0 -37 9.5t-9.5 20.5t-3 20.5t-16.5 9.5q-6 0 -18 -7.5t-26 -16.5t-28 -17t-24 -9q2 -8 2 -16v-19q0 -28 -6.5 -54.5t-21 -47.5t-37 -34t-54.5 -13t-55 14t-37.5 36
t-21.5 50t-7 56q0 38 4.5 63.5t4.5 54.5v200q0 38 -5 59.5t-13 33t-16.5 16t-16.5 8.5t-13 11t-5 24q0 16 18.5 27t47 18.5t61.5 12t62 6.5t49 2.5t22 0.5q21 0 26 -9.5t5 -28.5v-254q0 -15 1.5 -33t7 -33t17 -25.5t31.5 -10.5q27 0 40 15.5t18 37.5t4.5 46.5t-0.5 42.5
v54.5t-4 53.5q-3 19 -12.5 27t-19 13.5t-17.5 12t-8 22.5q0 15 15 25.5t38.5 18.5t52 12.5t55 7.5t47.5 4t31 1q27 0 39 -15t12 -41q0 -24 -1 -47.5t-1 -47.5v-201z" />
    <glyph glyph-name="paragraph" unicode="&#xb6;" 
d="M285 384q16 0 18.5 8.5t2.5 20.5v149q0 23 -2 35.5t-17 12.5q-21 0 -38 -9.5t-29.5 -25.5t-19 -35.5t-6.5 -38.5q0 -24 8 -45.5t20.5 -37.5t29 -25t33.5 -9zM381 -140q0 -26 -5 -35.5t-33 -9.5q-14 0 -21.5 2t-11 7.5t-4 14t-0.5 21.5v380q0 18 0.5 30t-2 19t-10.5 9.5
t-26 2.5q-12 0 -24.5 -0.5t-24.5 -0.5q-57 0 -98.5 16t-68.5 42.5t-40 61t-13 71.5q0 47 17 86t46.5 66.5t69 43t85.5 15.5q55 0 109 -7.5t109 -7.5q37 0 73 3.5t73 3.5q19 0 34 -8t15 -30q0 -23 -16 -32.5t-35.5 -16t-35.5 -17t-16 -35.5v-695q0 -26 -5 -35.5t-33 -9.5
q-14 0 -21.5 2t-11 7.5t-4 14t-0.5 21.5v700q0 26 -4.5 35.5t-31.5 9.5q-26 0 -30.5 -9.5t-4.5 -35.5v-700z" />
    <glyph glyph-name="periodcentered" unicode="&#xb7;" horiz-adv-x="315" 
d="M278 259q0 -25 -9.5 -47t-26 -38.5t-38.5 -26t-47 -9.5t-47 9.5t-38.5 26t-26 38.5t-9.5 47t9.5 47t26 38.5t38.5 26t47 9.5t47 -9.5t38.5 -26t26 -38.5t9.5 -47z" />
    <glyph glyph-name="cedilla" unicode="&#xb8;" horiz-adv-x="338" 
d="M228 -61l26.5 -26.5t13.5 -33.5q0 -17 -12 -29t-28.5 -19t-34.5 -10t-31 -3q-27 0 -45 5.5t-28.5 14t-14.5 17t-4 14.5q0 16 10.5 23t23 11t23 6.5t10.5 10.5q0 5 -2.5 9t-4.5 8l-43 63h78z" />
    <glyph glyph-name="uni00B9" unicode="&#xb9;" horiz-adv-x="378" 
d="M112 458q0 20 -5.5 29t-28.5 9t-36.5 1t-13.5 18q0 18 27.5 32t66 23.5t79.5 14t69 4.5q7 0 16.5 -0.5t18 -3t14 -8t5.5 -15.5q0 -13 -8 -16t-17 -7t-17 -13.5t-8 -36.5v-64v-23.5t1 -28t2 -28t3 -22.5q4 -20 18 -25t29 -6.5t26.5 -4t11.5 -18.5q0 -7 -4.5 -14.5
t-21.5 -13.5t-51 -10t-93 -4q-91 0 -136.5 13.5t-45.5 31.5q0 11 9.5 17.5t20.5 6.5q8 0 16.5 -2t16.5 -2t15 2.5t11.5 12t7 28t2.5 51.5v72z" />
    <glyph glyph-name="ordmasculine" unicode="&#xba;" horiz-adv-x="410" 
d="M186 409q-33 0 -62 10t-50.5 28.5t-33.5 45.5t-12 62q0 38 16.5 67.5t42.5 50t59.5 31.5t68.5 11q41 0 72 -14.5t52 -36.5t31.5 -48.5t10.5 -49.5q0 -38 -17.5 -67.5t-45.5 -49.5t-63 -30t-69 -10zM241 516q0 10 -2.5 30.5t-8 41t-14.5 36t-23 15.5t-19.5 -9.5
t-5.5 -20.5q0 -10 2 -23.5t5 -27.5t7 -27t8 -23t10 -16.5t17 -6.5q14 0 19 9.5t5 21.5z" />
    <glyph glyph-name="guillemotright" unicode="&#xbb;" horiz-adv-x="561" 
d="M461 113q-9 -10 -25 -26.5t-34.5 -32t-37 -26.5t-33.5 -11q-18 0 -33.5 13t-15.5 31q0 16 15 39.5t32.5 49t32.5 50.5t15 44t-15 44t-32.5 50.5t-32.5 49t-15 39.5q0 18 15.5 31t33.5 13q15 0 33.5 -11t37 -26.5t34.5 -32t25 -26.5q11 -12 26 -27.5t28.5 -32.5
t22.5 -35.5t9 -35.5t-9 -35.5t-22.5 -35.5t-28.5 -32.5t-26 -27.5zM193 113q-9 -10 -25 -26.5t-34.5 -32t-37 -26.5t-33.5 -11q-18 0 -33.5 13t-15.5 31q0 16 15 39.5t32.5 49t32.5 50.5t15 44t-15 44t-32.5 50.5t-32.5 49t-15 39.5q0 18 15.5 31t33.5 13q15 0 33.5 -11
t37 -26.5t34.5 -32t25 -26.5q11 -12 26 -27.5t28.5 -32.5t22.5 -35.5t9 -35.5t-9 -35.5t-22.5 -35.5t-28.5 -32.5t-26 -27.5z" />
    <glyph glyph-name="onequarter" unicode="&#xbc;" horiz-adv-x="946" 
d="M889 138q0 -13 1.5 -18.5t17.5 -5.5q17 0 21 -3.5t4 -20.5v-48q0 -11 -2 -17.5t-16 -8.5q-8 -1 -11.5 -2t-5 -4.5t-1.5 -10v-18.5q0 -10 0.5 -17.5t-1.5 -12t-8 -7t-18 -2.5h-99q-11 0 -19 1.5t-8 14.5v20q0 23 -3 31t-29 8h-114q-26 0 -38 7t-12 33q0 16 2 28t9 25
t20 29t35 40l150 160q20 17 43 27.5t51 10.5q23 0 27 -11.5t4 -28.5v-199zM703 106q17 0 26 0.5t13.5 4t5.5 11t1 22.5q0 13 0.5 25t0.5 25v9.5t-1.5 10.5t-5 9t-10.5 4q-10 0 -16.5 -5.5t-12.5 -12.5l-41 -47q-6 -7 -16.5 -20t-10.5 -23q0 -6 6 -8.5t14 -3.5t15.5 -1h11.5
h20zM112 455q0 20 -5.5 29t-28.5 9t-36.5 1t-13.5 18q0 18 27.5 32t66 23.5t79.5 14t69 4.5q7 0 16.5 -0.5t18 -3t14 -8t5.5 -15.5q0 -13 -8 -16t-17 -7t-17 -13.5t-8 -36.5v-64v-23.5t1 -28t2 -28t3 -22.5q4 -20 18 -25t29 -6.5t26.5 -4t11.5 -18.5q0 -7 -4.5 -14.5
t-21.5 -13.5t-51 -10t-93 -4q-91 0 -136.5 13.5t-45.5 31.5q0 11 9.5 17.5t20.5 6.5q8 0 16.5 -2t16.5 -2t15 2.5t11.5 12t7 28t2.5 51.5v72zM436 81q-28 -48 -43.5 -77t-25.5 -45.5t-18 -22t-21 -5.5q-6 0 -16 1t-19.5 3.5t-16.5 7.5t-7 13q0 10 5.5 20.5t21 34t44 67.5
t74.5 123l234 405q13 23 23.5 33.5t37.5 10.5q6 0 14 -0.5t15.5 -3t12.5 -7t5 -12.5q0 -13 -5.5 -23.5t-19.5 -32t-40 -60t-66 -107.5z" />
    <glyph glyph-name="onehalf" unicode="&#xbd;" horiz-adv-x="946" 
d="M112 455q0 20 -5.5 29t-28.5 9t-36.5 1t-13.5 18q0 18 27.5 32t66 23.5t79.5 14t69 4.5q7 0 16.5 -0.5t18 -3t14 -8t5.5 -15.5q0 -13 -8 -16t-17 -7t-17 -13.5t-8 -36.5v-64v-23.5t1 -28t2 -28t3 -22.5q4 -20 18 -25t29 -6.5t26.5 -4t11.5 -18.5q0 -7 -4.5 -14.5
t-21.5 -13.5t-51 -10t-93 -4q-91 0 -136.5 13.5t-45.5 31.5q0 11 9.5 17.5t20.5 6.5q8 0 16.5 -2t16.5 -2t15 2.5t11.5 12t7 28t2.5 51.5v72zM580 0h-11.5t-12.5 1.5t-10 5t-4 9.5q0 3 0.5 5.5t5 7.5t14 14t27.5 25q12 11 31 29t37 39t31 41.5t13 36.5t-9.5 25t-26.5 9
q-15 0 -25 -5.5t-18 -11.5t-16 -11.5t-19 -5.5q-14 0 -28 10t-14 24q0 20 20.5 39t50.5 33.5t65.5 23.5t65.5 9q41 0 70.5 -8t48.5 -21t28 -30t9 -35q0 -29 -17 -52.5t-38 -42.5t-38 -32.5t-17 -22.5q0 -11 9.5 -16t19.5 -5q17 0 28.5 5.5t20 12.5t15.5 12.5t15 5.5
q18 0 24 -16t6 -29q0 -26 -8 -46t-19 -33.5t-23.5 -21t-22.5 -7.5q-14 0 -17 4.5t-6 10t-11 10t-30 4.5h-214zM396 81q-28 -48 -43.5 -77t-25.5 -45.5t-18 -22t-21 -5.5q-6 0 -16 1t-19.5 3.5t-16.5 7.5t-7 13q0 10 5.5 20.5t21 34t44 67.5t74.5 123l234 405
q13 23 23.5 33.5t37.5 10.5q6 0 14 -0.5t15.5 -3t12.5 -7t5 -12.5q0 -13 -5.5 -23.5t-19.5 -32t-40 -60t-66 -107.5z" />
    <glyph glyph-name="threequarters" unicode="&#xbe;" horiz-adv-x="946" 
d="M897 138q0 -13 1.5 -18.5t17.5 -5.5q17 0 21 -3.5t4 -20.5v-48q0 -11 -2 -17.5t-16 -8.5q-8 -1 -11.5 -2t-5 -4.5t-1.5 -10v-18.5q0 -10 0.5 -17.5t-1.5 -12t-8 -7t-18 -2.5h-99q-11 0 -19 1.5t-8 14.5v20q0 23 -3 31t-29 8h-114q-26 0 -38 7t-12 33q0 16 2 28t9 25
t20 29t35 40l150 160q20 17 43 27.5t51 10.5q23 0 27 -11.5t4 -28.5v-199zM711 106q17 0 26 0.5t13.5 4t5.5 11t1 22.5q0 13 0.5 25t0.5 25v9.5t-1.5 10.5t-5 9t-10.5 4q-10 0 -16.5 -5.5t-12.5 -12.5l-41 -47q-6 -7 -16.5 -20t-10.5 -23q0 -6 6 -8.5t14 -3.5t15.5 -1h11.5
h20zM181 586q19 0 46.5 -3.5t52 -12t42 -24t17.5 -39.5q0 -19 -7.5 -31.5t-17 -20.5t-17 -13.5t-7.5 -10.5q0 -8 17 -11t38 -11t38 -26.5t17 -57.5q0 -29 -14.5 -56.5t-45 -50t-77.5 -36t-111 -13.5q-12 0 -36.5 1.5t-49 7t-43 15t-18.5 25.5q0 14 10.5 23.5t25.5 9.5
q14 0 32 -5.5t49 -5.5q15 0 30.5 3.5t28 11t20.5 18t8 24.5q0 26 -21.5 38.5t-47.5 12.5q-18 0 -30 -3t-17 -3q-6 0 -10.5 6t-8.5 13.5t-6 15.5t-2 12q0 9 13.5 14.5t30 12.5t30 18.5t13.5 32.5q0 17 -15.5 28.5t-34.5 11.5q-24 0 -40.5 -10.5t-25.5 -10.5q-11 0 -17.5 13
t-6.5 21q0 12 15.5 24t39.5 21t54 15t59 6zM461 81q-28 -48 -43.5 -77t-25.5 -45.5t-18 -22t-21 -5.5q-6 0 -16 1t-19.5 3.5t-16.5 7.5t-7 13q0 10 5.5 20.5t21 34t44 67.5t74.5 123l234 405q13 23 23.5 33.5t37.5 10.5q6 0 14 -0.5t15.5 -3t12.5 -7t5 -12.5
q0 -13 -5.5 -23.5t-19.5 -32t-40 -60t-66 -107.5z" />
    <glyph glyph-name="questiondown" unicode="&#xbf;" horiz-adv-x="506" 
d="M311 -56q5 49 33.5 78t79.5 29q32 0 53.5 -20.5t21.5 -52.5t-16 -66t-46.5 -61.5t-76 -45t-103.5 -17.5q-39 0 -82.5 12.5t-80 36.5t-60.5 59t-24 80q0 46 28 81t84 56q26 10 39.5 22.5t21 25t12 25t11.5 22t20 15.5t37 6q31 0 49 -17.5t18 -48.5q0 -32 -13.5 -57.5
t-29.5 -50t-29.5 -50.5t-13.5 -58q0 -8 2 -17t6 -16.5t10.5 -12.5t16.5 -5t16.5 4.5t9.5 11.5t4 15.5t2 16.5zM382 406q0 -23 -9 -43t-24 -35t-35 -24t-43 -9t-43 9t-35 24t-24 35t-9 43t9 43t24 35t35 24t43 9t43 -9t35 -24t24 -35t9 -43z" />
    <glyph glyph-name="Agrave" unicode="&#xc0;" horiz-adv-x="869" 
d="M414 289h10.5t13 1t11.5 3.5t5 8.5t-4.5 17t-11 23.5t-12.5 24t-9 16.5q-3 6 -8 15t-11 17.5t-13.5 14.5t-15.5 6q-9 0 -16.5 -9.5t-13.5 -22t-10 -24t-5 -15.5q-2 -4 -5 -12.5t-7 -18t-6.5 -18.5t-2.5 -13q0 -6 4 -9t10 -4t12 -1h10h75zM204 361q12 26 24.5 55t23 59.5
t17.5 61t7 60.5q0 26 6.5 48t20.5 38.5t37.5 25.5t56.5 9t59.5 -15t49 -38t40 -50t32.5 -52q4 -7 18.5 -35t34 -67.5t42.5 -86t44 -90.5t38.5 -81t26.5 -57q12 -29 27.5 -38t28.5 -12.5t22 -9.5t9 -27q0 -27 -23 -41.5t-54.5 -21t-63.5 -7t-51 -0.5q-54 0 -96.5 1t-72 7
t-45 19t-15.5 36q0 18 9.5 25.5t21 12t21 9.5t9.5 18q0 17 -6.5 26.5t-26 14.5t-56.5 6.5t-97 1.5q-20 0 -35 -1t-26 -6t-16.5 -15.5t-5.5 -28.5q0 -15 10 -19.5t22 -8t22 -11t10 -26.5q0 -23 -17.5 -35t-41.5 -18t-49 -7t-40 -1q-54 0 -85 4.5t-46.5 13t-20 19t-4.5 22.5
q0 18 9 25.5t21.5 13t27 11t25.5 19.5q17 20 32 51.5t26 55.5zM503 745q-51 0 -91 15t-67 34.5t-41.5 39t-14.5 28.5q0 17 14.5 28t34.5 17t40.5 8.5t32.5 2.5q6 0 20 -1t28 -4.5t25 -9.5t11 -15q0 -8 -4 -12t-4 -11q0 -10 11 -18.5t24 -17.5t24 -20t11 -27q0 -24 -17 -30.5
t-37 -6.5z" />
    <glyph glyph-name="Aacute" unicode="&#xc1;" horiz-adv-x="869" 
d="M414 289h10.5t13 1t11.5 3.5t5 8.5t-4.5 17t-11 23.5t-12.5 24t-9 16.5q-3 6 -8 15t-11 17.5t-13.5 14.5t-15.5 6q-9 0 -16.5 -9.5t-13.5 -22t-10 -24t-5 -15.5q-2 -4 -5 -12.5t-7 -18t-6.5 -18.5t-2.5 -13q0 -6 4 -9t10 -4t12 -1h10h75zM204 361q12 26 24.5 55t23 59.5
t17.5 61t7 60.5q0 26 6.5 48t20.5 38.5t37.5 25.5t56.5 9t59.5 -15t49 -38t40 -50t32.5 -52q4 -7 18.5 -35t34 -67.5t42.5 -86t44 -90.5t38.5 -81t26.5 -57q12 -29 27.5 -38t28.5 -12.5t22 -9.5t9 -27q0 -27 -23 -41.5t-54.5 -21t-63.5 -7t-51 -0.5q-54 0 -96.5 1t-72 7
t-45 19t-15.5 36q0 18 9.5 25.5t21 12t21 9.5t9.5 18q0 17 -6.5 26.5t-26 14.5t-56.5 6.5t-97 1.5q-20 0 -35 -1t-26 -6t-16.5 -15.5t-5.5 -28.5q0 -15 10 -19.5t22 -8t22 -11t10 -26.5q0 -23 -17.5 -35t-41.5 -18t-49 -7t-40 -1q-54 0 -85 4.5t-46.5 13t-20 19t-4.5 22.5
q0 18 9 25.5t21.5 13t27 11t25.5 19.5q17 20 32 51.5t26 55.5zM355 745q-20 0 -37 6.5t-17 30.5q0 16 11 27t24 20t24 17.5t11 18.5q0 7 -4 11t-4 12q0 9 11 15t25 9.5t28 4.5t20 1q12 0 32.5 -2.5t40.5 -8.5t34.5 -17t14.5 -28q0 -9 -14.5 -28.5t-41.5 -39t-67 -34.5
t-91 -15z" />
    <glyph glyph-name="Acircumflex" unicode="&#xc2;" horiz-adv-x="869" 
d="M414 289h10.5t13 1t11.5 3.5t5 8.5t-4.5 17t-11 23.5t-12.5 24t-9 16.5q-3 6 -8 15t-11 17.5t-13.5 14.5t-15.5 6q-9 0 -16.5 -9.5t-13.5 -22t-10 -24t-5 -15.5q-2 -4 -5 -12.5t-7 -18t-6.5 -18.5t-2.5 -13q0 -6 4 -9t10 -4t12 -1h10h75zM204 361q12 26 24.5 55t23 59.5
t17.5 61t7 60.5q0 26 6.5 48t20.5 38.5t37.5 25.5t56.5 9t59.5 -15t49 -38t40 -50t32.5 -52q4 -7 18.5 -35t34 -67.5t42.5 -86t44 -90.5t38.5 -81t26.5 -57q12 -29 27.5 -38t28.5 -12.5t22 -9.5t9 -27q0 -27 -23 -41.5t-54.5 -21t-63.5 -7t-51 -0.5q-54 0 -96.5 1t-72 7
t-45 19t-15.5 36q0 18 9.5 25.5t21 12t21 9.5t9.5 18q0 17 -6.5 26.5t-26 14.5t-56.5 6.5t-97 1.5q-20 0 -35 -1t-26 -6t-16.5 -15.5t-5.5 -28.5q0 -15 10 -19.5t22 -8t22 -11t10 -26.5q0 -23 -17.5 -35t-41.5 -18t-49 -7t-40 -1q-54 0 -85 4.5t-46.5 13t-20 19t-4.5 22.5
q0 18 9 25.5t21.5 13t27 11t25.5 19.5q17 20 32 51.5t26 55.5zM422 934q9 0 27 -7.5t39.5 -20t44 -28.5t41 -32.5t30 -32t11.5 -27.5q0 -17 -10.5 -29.5t-28.5 -12.5q-15 0 -35 9t-41 19.5t-41.5 19.5t-36.5 9q-17 0 -37 -9t-41 -19.5t-41 -19.5t-35 -9q-18 0 -28.5 12.5
t-10.5 29.5q0 12 11.5 27.5t30 32t41 32.5t44 28.5t39.5 20t27 7.5z" />
    <glyph glyph-name="Atilde" unicode="&#xc3;" horiz-adv-x="869" 
d="M414 289h10.5t13 1t11.5 3.5t5 8.5t-4.5 17t-11 23.5t-12.5 24t-9 16.5q-3 6 -8 15t-11 17.5t-13.5 14.5t-15.5 6q-9 0 -16.5 -9.5t-13.5 -22t-10 -24t-5 -15.5q-2 -4 -5 -12.5t-7 -18t-6.5 -18.5t-2.5 -13q0 -6 4 -9t10 -4t12 -1h10h75zM204 361q12 26 24.5 55t23 59.5
t17.5 61t7 60.5q0 26 6.5 48t20.5 38.5t37.5 25.5t56.5 9t59.5 -15t49 -38t40 -50t32.5 -52q4 -7 18.5 -35t34 -67.5t42.5 -86t44 -90.5t38.5 -81t26.5 -57q12 -29 27.5 -38t28.5 -12.5t22 -9.5t9 -27q0 -27 -23 -41.5t-54.5 -21t-63.5 -7t-51 -0.5q-54 0 -96.5 1t-72 7
t-45 19t-15.5 36q0 18 9.5 25.5t21 12t21 9.5t9.5 18q0 17 -6.5 26.5t-26 14.5t-56.5 6.5t-97 1.5q-20 0 -35 -1t-26 -6t-16.5 -15.5t-5.5 -28.5q0 -15 10 -19.5t22 -8t22 -11t10 -26.5q0 -23 -17.5 -35t-41.5 -18t-49 -7t-40 -1q-54 0 -85 4.5t-46.5 13t-20 19t-4.5 22.5
q0 18 9 25.5t21.5 13t27 11t25.5 19.5q17 20 32 51.5t26 55.5zM571 912q17 0 32.5 -1.5t27 -7.5t18.5 -17t7 -29q0 -21 -8.5 -39.5t-23.5 -32.5t-35 -22t-42 -8q-29 0 -61 9t-61 19.5t-53.5 19.5t-38.5 9q-9 0 -10.5 -3.5t-1.5 -10.5q0 -24 -15 -33.5t-33 -9.5
q-17 0 -32.5 1.5t-27.5 7.5t-19 17t-7 29q0 21 9 39.5t24 32.5t35 22t42 8q28 0 60 -9t61.5 -19.5t54 -19.5t38.5 -9q9 0 10.5 3.5t1.5 10.5q0 24 15 33.5t33 9.5z" />
    <glyph glyph-name="Adieresis" unicode="&#xc4;" horiz-adv-x="869" 
d="M414 289h10.5t13 1t11.5 3.5t5 8.5t-4.5 17t-11 23.5t-12.5 24t-9 16.5q-3 6 -8 15t-11 17.5t-13.5 14.5t-15.5 6q-9 0 -16.5 -9.5t-13.5 -22t-10 -24t-5 -15.5q-2 -4 -5 -12.5t-7 -18t-6.5 -18.5t-2.5 -13q0 -6 4 -9t10 -4t12 -1h10h75zM204 361q12 26 24.5 55t23 59.5
t17.5 61t7 60.5q0 26 6.5 48t20.5 38.5t37.5 25.5t56.5 9t59.5 -15t49 -38t40 -50t32.5 -52q4 -7 18.5 -35t34 -67.5t42.5 -86t44 -90.5t38.5 -81t26.5 -57q12 -29 27.5 -38t28.5 -12.5t22 -9.5t9 -27q0 -27 -23 -41.5t-54.5 -21t-63.5 -7t-51 -0.5q-54 0 -96.5 1t-72 7
t-45 19t-15.5 36q0 18 9.5 25.5t21 12t21 9.5t9.5 18q0 17 -6.5 26.5t-26 14.5t-56.5 6.5t-97 1.5q-20 0 -35 -1t-26 -6t-16.5 -15.5t-5.5 -28.5q0 -15 10 -19.5t22 -8t22 -11t10 -26.5q0 -23 -17.5 -35t-41.5 -18t-49 -7t-40 -1q-54 0 -85 4.5t-46.5 13t-20 19t-4.5 22.5
q0 18 9 25.5t21.5 13t27 11t25.5 19.5q17 20 32 51.5t26 55.5zM413 840q0 -25 -19 -41.5t-45.5 -26t-54.5 -13.5t-47 -4q-15 0 -31.5 3.5t-31 11t-23.5 20.5t-9 31q0 27 17 43t41 25t50.5 12t45.5 3q15 0 33.5 -2.5t35 -9.5t27.5 -19.5t11 -32.5zM718 840q0 -25 -19 -41.5
t-45.5 -26t-54.5 -13.5t-47 -4q-15 0 -31.5 3.5t-31 11t-23.5 20.5t-9 31q0 27 17 43t41 25t50.5 12t45.5 3q15 0 33.5 -2.5t35 -9.5t27.5 -19.5t11 -32.5z" />
    <glyph glyph-name="Aring" unicode="&#xc5;" horiz-adv-x="869" 
d="M414 289h10.5t13 1t11.5 3.5t5 8.5t-4.5 17t-11 23.5t-12.5 24t-9 16.5q-3 6 -8 15t-11 17.5t-13.5 14.5t-15.5 6q-9 0 -16.5 -9.5t-13.5 -22t-10 -24t-5 -15.5q-2 -4 -5 -12.5t-7 -18t-6.5 -18.5t-2.5 -13q0 -6 4 -9t10 -4t12 -1h10h75zM204 361q12 26 24.5 55t23 59.5
t17.5 61t7 60.5q0 26 6.5 48t20.5 38.5t37.5 25.5t56.5 9t59.5 -15t49 -38t40 -50t32.5 -52q4 -7 18.5 -35t34 -67.5t42.5 -86t44 -90.5t38.5 -81t26.5 -57q12 -29 27.5 -38t28.5 -12.5t22 -9.5t9 -27q0 -27 -23 -41.5t-54.5 -21t-63.5 -7t-51 -0.5q-54 0 -96.5 1t-72 7
t-45 19t-15.5 36q0 18 9.5 25.5t21 12t21 9.5t9.5 18q0 17 -6.5 26.5t-26 14.5t-56.5 6.5t-97 1.5q-20 0 -35 -1t-26 -6t-16.5 -15.5t-5.5 -28.5q0 -15 10 -19.5t22 -8t22 -11t10 -26.5q0 -23 -17.5 -35t-41.5 -18t-49 -7t-40 -1q-54 0 -85 4.5t-46.5 13t-20 19t-4.5 22.5
q0 18 9 25.5t21.5 13t27 11t25.5 19.5q17 20 32 51.5t26 55.5zM575 848q0 -32 -15 -52t-37.5 -32t-49.5 -16.5t-51 -4.5q-27 0 -54.5 4.5t-49.5 16.5t-35.5 32t-13.5 52q0 31 13.5 51.5t35.5 32.5t49.5 16.5t54.5 4.5q24 0 51 -4.5t49.5 -16.5t37.5 -32.5t15 -51.5zM472 848
q0 23 -12 40.5t-38 17.5t-38 -17.5t-12 -40.5t12 -40.5t38 -17.5t38 17.5t12 40.5z" />
    <glyph glyph-name="AE" unicode="&#xc6;" horiz-adv-x="1087" 
d="M460 411q0 6 0.5 16t-1 20.5t-6 18t-14.5 7.5q-8 0 -14.5 -5.5t-12 -13.5t-10 -16.5t-7.5 -14.5l-37 -66q-6 -11 -13.5 -25t-7.5 -28q0 -13 8 -19.5t19.5 -8.5t24 -2h21.5q14 0 23.5 2.5t15.5 11.5t8.5 27.5t2.5 50.5v45zM315 151h-20.5t-22.5 -2.5t-18.5 -9t-7.5 -19.5
q0 -12 9.5 -18.5t21 -13.5t21 -16t9.5 -26q0 -21 -18.5 -32.5t-43 -17t-50 -6.5t-39.5 -1q-15 0 -41.5 1t-52 7t-44 18.5t-18.5 36.5q0 19 9.5 27.5t22.5 13.5t26.5 10.5t21.5 18.5q41 66 73 118.5t60.5 101t56.5 98.5t61 112q11 20 18 35.5t7 38.5q0 26 6 41t22 22.5
t45 9.5t75 2h283q50 0 80.5 3t48 7t26 7t14.5 3q21 0 36.5 -16t25.5 -38.5t14.5 -47t4.5 -40.5q0 -12 -2.5 -25t-8.5 -23.5t-16 -17t-25 -6.5q-20 0 -29.5 7t-16.5 18t-15 23t-24 23t-44.5 18t-75.5 7q-30 0 -49 -2t-30.5 -9.5t-16 -22.5t-4.5 -40v-61q0 -22 1.5 -34
t7.5 -18t19 -7t36 -1q19 0 28 8t13 20.5t5.5 27t5.5 27t12 20.5t26 8q22 0 34.5 -18.5t18.5 -43t7.5 -50t1.5 -40.5t-2 -42.5t-9 -53.5t-20.5 -45.5t-35.5 -19.5q-15 0 -21.5 8t-9.5 19.5t-5 25t-8 25t-19 19.5t-38 8q-16 0 -24.5 -6.5t-12 -16.5t-4 -22.5t-0.5 -24.5
q0 -55 3 -83.5t15 -41t35 -13.5t62 -1q52 0 83 10.5t49.5 26t28 34t18 34t19 26t31.5 10.5q24 0 36 -21.5t12 -42.5q0 -26 -9 -58.5t-23 -62t-30.5 -49.5t-31.5 -20q-5 0 -16.5 2t-27.5 4q-17 2 -37.5 3.5t-46.5 1.5h-263q-23 0 -44 -0.5t-39 -0.5q-18 -1 -33.5 -1.5
t-29.5 -0.5q-12 0 -24.5 1t-23 5t-17 12.5t-6.5 24.5q0 20 10.5 29.5t23.5 15.5t23.5 12.5t10.5 20.5t-10 21t-24 9.5t-28.5 2.5h-23.5h-44z" />
    <glyph glyph-name="Ccedilla" unicode="&#xc7;" horiz-adv-x="756" 
d="M24 353q0 77 33 143t88 115t125 76.5t144 27.5q37 0 67 -7.5t53.5 -17t40 -17t26.5 -7.5q17 0 24.5 3.5t20.5 3.5q16 0 33 -11.5t31 -34t23 -54.5t9 -74q0 -43 -24 -74t-69 -31q-26 0 -42.5 13t-30 33t-27 42.5t-33.5 42.5t-49 33t-73 13q-29 0 -49.5 -12t-34 -31
t-19.5 -41t-6 -43q0 -56 14.5 -105.5t42.5 -87t68.5 -59.5t93.5 -22q48 0 77 11t47.5 23.5t29.5 23.5t23 11q11 0 19 -5.5t13.5 -14.5t8 -19.5t2.5 -19.5q0 -17 -8 -40t-21.5 -44.5t-30.5 -36.5t-36 -15q-13 0 -32.5 -9t-46.5 -20t-62 -20t-78 -9l49 -47l26.5 -26.5
t13.5 -33.5q0 -17 -12 -29t-28.5 -19t-34.5 -10t-31 -3q-27 0 -45 5.5t-28.5 14t-14.5 17t-4 14.5q0 16 10.5 23t23 10.5t23 6.5t10.5 11q0 5 -2.5 9t-4.5 8l-40 59q-63 14 -117.5 47.5t-94 80.5t-62 105.5t-22.5 123.5z" />
    <glyph glyph-name="Egrave" unicode="&#xc8;" horiz-adv-x="726" 
d="M427 701q50 0 80.5 3t48 7t26 7t14.5 3q21 0 36.5 -16t25.5 -38.5t14.5 -47t4.5 -40.5q0 -12 -2.5 -25t-8.5 -23.5t-16 -17t-25 -6.5q-20 0 -29.5 7t-16.5 18t-15 23t-24 23t-44.5 18t-75.5 7q-42 0 -62.5 -5t-29 -19.5t-8.5 -41v-69.5q0 -22 1.5 -34t7.5 -18t19 -7
t36 -1q19 0 28 8t13 20.5t5.5 27t5.5 27t12 20.5t26 8q22 0 34.5 -18.5t18.5 -43t7.5 -50t1.5 -40.5t-2 -42.5t-9 -53.5t-20.5 -45.5t-35.5 -19.5q-15 0 -21.5 8t-9.5 19.5t-5 25t-8 25t-19 19.5t-38 8q-16 0 -24.5 -6.5t-12 -16.5t-4 -22.5t-0.5 -24.5q0 -55 3 -83.5
t15 -41t35 -13.5t62 -1q51 0 82.5 10.5t50 26t28 34t18 34t19 26t31.5 10.5q24 0 36 -21.5t12 -42.5q0 -26 -9 -58.5t-23 -62t-30.5 -49.5t-31.5 -20q-5 0 -16.5 2t-27.5 4q-17 2 -37.5 3.5t-46.5 1.5h-411q-25 0 -38.5 5t-20 11.5t-7.5 14t-1 12.5q0 14 5 20.5t13 10.5
t17 8t17.5 12.5t14.5 23.5t8 42q3 46 5 76.5t3.5 53.5t1.5 42.5t-0.5 43t-2.5 54t-4 75.5q-2 38 -8.5 59t-16 31t-19.5 13t-19 6.5t-14.5 10.5t-5.5 25q0 23 14 34t33.5 14.5t41 3t36.5 -0.5h288zM443 745q-51 0 -91 15t-67 34.5t-41.5 39t-14.5 28.5q0 17 14.5 28t34.5 17
t40.5 8.5t32.5 2.5q6 0 20 -1t28 -4.5t25 -9.5t11 -15q0 -8 -4 -12t-4 -11q0 -10 11 -18.5t24 -17.5t24 -20t11 -27q0 -24 -17 -30.5t-37 -6.5z" />
    <glyph glyph-name="Eacute" unicode="&#xc9;" horiz-adv-x="726" 
d="M427 701q50 0 80.5 3t48 7t26 7t14.5 3q21 0 36.5 -16t25.5 -38.5t14.5 -47t4.5 -40.5q0 -12 -2.5 -25t-8.5 -23.5t-16 -17t-25 -6.5q-20 0 -29.5 7t-16.5 18t-15 23t-24 23t-44.5 18t-75.5 7q-42 0 -62.5 -5t-29 -19.5t-8.5 -41v-69.5q0 -22 1.5 -34t7.5 -18t19 -7
t36 -1q19 0 28 8t13 20.5t5.5 27t5.5 27t12 20.5t26 8q22 0 34.5 -18.5t18.5 -43t7.5 -50t1.5 -40.5t-2 -42.5t-9 -53.5t-20.5 -45.5t-35.5 -19.5q-15 0 -21.5 8t-9.5 19.5t-5 25t-8 25t-19 19.5t-38 8q-16 0 -24.5 -6.5t-12 -16.5t-4 -22.5t-0.5 -24.5q0 -55 3 -83.5
t15 -41t35 -13.5t62 -1q51 0 82.5 10.5t50 26t28 34t18 34t19 26t31.5 10.5q24 0 36 -21.5t12 -42.5q0 -26 -9 -58.5t-23 -62t-30.5 -49.5t-31.5 -20q-5 0 -16.5 2t-27.5 4q-17 2 -37.5 3.5t-46.5 1.5h-411q-25 0 -38.5 5t-20 11.5t-7.5 14t-1 12.5q0 14 5 20.5t13 10.5
t17 8t17.5 12.5t14.5 23.5t8 42q3 46 5 76.5t3.5 53.5t1.5 42.5t-0.5 43t-2.5 54t-4 75.5q-2 38 -8.5 59t-16 31t-19.5 13t-19 6.5t-14.5 10.5t-5.5 25q0 23 14 34t33.5 14.5t41 3t36.5 -0.5h288zM283 745q-20 0 -37 6.5t-17 30.5q0 16 11 27t24 20t24 17.5t11 18.5
q0 7 -4 11t-4 12q0 9 11 15t25 9.5t28 4.5t20 1q12 0 32.5 -2.5t40.5 -8.5t34.5 -17t14.5 -28q0 -9 -14.5 -28.5t-41.5 -39t-67 -34.5t-91 -15z" />
    <glyph glyph-name="Ecircumflex" unicode="&#xca;" horiz-adv-x="726" 
d="M427 701q50 0 80.5 3t48 7t26 7t14.5 3q21 0 36.5 -16t25.5 -38.5t14.5 -47t4.5 -40.5q0 -12 -2.5 -25t-8.5 -23.5t-16 -17t-25 -6.5q-20 0 -29.5 7t-16.5 18t-15 23t-24 23t-44.5 18t-75.5 7q-42 0 -62.5 -5t-29 -19.5t-8.5 -41v-69.5q0 -22 1.5 -34t7.5 -18t19 -7
t36 -1q19 0 28 8t13 20.5t5.5 27t5.5 27t12 20.5t26 8q22 0 34.5 -18.5t18.5 -43t7.5 -50t1.5 -40.5t-2 -42.5t-9 -53.5t-20.5 -45.5t-35.5 -19.5q-15 0 -21.5 8t-9.5 19.5t-5 25t-8 25t-19 19.5t-38 8q-16 0 -24.5 -6.5t-12 -16.5t-4 -22.5t-0.5 -24.5q0 -55 3 -83.5
t15 -41t35 -13.5t62 -1q51 0 82.5 10.5t50 26t28 34t18 34t19 26t31.5 10.5q24 0 36 -21.5t12 -42.5q0 -26 -9 -58.5t-23 -62t-30.5 -49.5t-31.5 -20q-5 0 -16.5 2t-27.5 4q-17 2 -37.5 3.5t-46.5 1.5h-411q-25 0 -38.5 5t-20 11.5t-7.5 14t-1 12.5q0 14 5 20.5t13 10.5
t17 8t17.5 12.5t14.5 23.5t8 42q3 46 5 76.5t3.5 53.5t1.5 42.5t-0.5 43t-2.5 54t-4 75.5q-2 38 -8.5 59t-16 31t-19.5 13t-19 6.5t-14.5 10.5t-5.5 25q0 23 14 34t33.5 14.5t41 3t36.5 -0.5h288zM362 934q9 0 27 -7.5t39.5 -20t44 -28.5t41 -32.5t30 -32t11.5 -27.5
q0 -17 -10.5 -29.5t-28.5 -12.5q-15 0 -35 9t-41 19.5t-41.5 19.5t-36.5 9q-17 0 -37 -9t-41 -19.5t-41 -19.5t-35 -9q-18 0 -28.5 12.5t-10.5 29.5q0 12 11.5 27.5t30 32t41 32.5t44 28.5t39.5 20t27 7.5z" />
    <glyph glyph-name="Edieresis" unicode="&#xcb;" horiz-adv-x="726" 
d="M427 701q50 0 80.5 3t48 7t26 7t14.5 3q21 0 36.5 -16t25.5 -38.5t14.5 -47t4.5 -40.5q0 -12 -2.5 -25t-8.5 -23.5t-16 -17t-25 -6.5q-20 0 -29.5 7t-16.5 18t-15 23t-24 23t-44.5 18t-75.5 7q-42 0 -62.5 -5t-29 -19.5t-8.5 -41v-69.5q0 -22 1.5 -34t7.5 -18t19 -7
t36 -1q19 0 28 8t13 20.5t5.5 27t5.5 27t12 20.5t26 8q22 0 34.5 -18.5t18.5 -43t7.5 -50t1.5 -40.5t-2 -42.5t-9 -53.5t-20.5 -45.5t-35.5 -19.5q-15 0 -21.5 8t-9.5 19.5t-5 25t-8 25t-19 19.5t-38 8q-16 0 -24.5 -6.5t-12 -16.5t-4 -22.5t-0.5 -24.5q0 -55 3 -83.5
t15 -41t35 -13.5t62 -1q51 0 82.5 10.5t50 26t28 34t18 34t19 26t31.5 10.5q24 0 36 -21.5t12 -42.5q0 -26 -9 -58.5t-23 -62t-30.5 -49.5t-31.5 -20q-5 0 -16.5 2t-27.5 4q-17 2 -37.5 3.5t-46.5 1.5h-411q-25 0 -38.5 5t-20 11.5t-7.5 14t-1 12.5q0 14 5 20.5t13 10.5
t17 8t17.5 12.5t14.5 23.5t8 42q3 46 5 76.5t3.5 53.5t1.5 42.5t-0.5 43t-2.5 54t-4 75.5q-2 38 -8.5 59t-16 31t-19.5 13t-19 6.5t-14.5 10.5t-5.5 25q0 23 14 34t33.5 14.5t41 3t36.5 -0.5h288zM341 840q0 -25 -19 -41.5t-45.5 -26t-54.5 -13.5t-47 -4q-15 0 -31.5 3.5
t-31 11t-23.5 20.5t-9 31q0 27 17 43t41 25t50.5 12t45.5 3q15 0 33.5 -2.5t35 -9.5t27.5 -19.5t11 -32.5zM646 840q0 -25 -19 -41.5t-45.5 -26t-54.5 -13.5t-47 -4q-15 0 -31.5 3.5t-31 11t-23.5 20.5t-9 31q0 27 17 43t41 25t50.5 12t45.5 3q15 0 33.5 -2.5t35 -9.5
t27.5 -19.5t11 -32.5z" />
    <glyph glyph-name="Igrave" unicode="&#xcc;" horiz-adv-x="435" 
d="M97 400q0 48 -1.5 78.5t-4.5 49t-7 28t-8 14.5q-9 11 -19.5 18t-20 13.5t-16 15.5t-6.5 23q0 18 15 30.5t38.5 20.5t51 12t52.5 6t43.5 2.5t23.5 0.5q22 0 53.5 -1.5t60.5 -8t49 -21t20 -39.5q0 -14 -6.5 -21t-15.5 -12.5t-19.5 -11t-19.5 -15.5q-7 -8 -11 -28t-6 -45.5
t-2.5 -54t-0.5 -54.5v-99q0 -67 2 -102.5t6.5 -52.5t10 -22t13.5 -9q19 -11 34 -19.5t15 -31.5q0 -11 -5 -24.5t-27 -24.5t-68 -18.5t-128 -7.5q-16 0 -44 1t-55.5 7.5t-48 19.5t-20.5 37q0 12 5.5 19.5t13.5 13.5t16.5 11t14.5 12q4 5 8 16t7 32.5t5 55.5t2 87v99zM299 745
q-51 0 -91 15t-67 34.5t-41.5 39t-14.5 28.5q0 17 14.5 28t34.5 17t40.5 8.5t32.5 2.5q6 0 20 -1t28 -4.5t25 -9.5t11 -15q0 -8 -4 -12t-4 -11q0 -10 11 -18.5t24 -17.5t24 -20t11 -27q0 -24 -17 -30.5t-37 -6.5z" />
    <glyph glyph-name="Iacute" unicode="&#xcd;" horiz-adv-x="435" 
d="M97 400q0 48 -1.5 78.5t-4.5 49t-7 28t-8 14.5q-9 11 -19.5 18t-20 13.5t-16 15.5t-6.5 23q0 18 15 30.5t38.5 20.5t51 12t52.5 6t43.5 2.5t23.5 0.5q22 0 53.5 -1.5t60.5 -8t49 -21t20 -39.5q0 -14 -6.5 -21t-15.5 -12.5t-19.5 -11t-19.5 -15.5q-7 -8 -11 -28t-6 -45.5
t-2.5 -54t-0.5 -54.5v-99q0 -67 2 -102.5t6.5 -52.5t10 -22t13.5 -9q19 -11 34 -19.5t15 -31.5q0 -11 -5 -24.5t-27 -24.5t-68 -18.5t-128 -7.5q-16 0 -44 1t-55.5 7.5t-48 19.5t-20.5 37q0 12 5.5 19.5t13.5 13.5t16.5 11t14.5 12q4 5 8 16t7 32.5t5 55.5t2 87v99zM138 745
q-20 0 -37 6.5t-17 30.5q0 16 11 27t24 20t24 17.5t11 18.5q0 7 -4 11t-4 12q0 9 11 15t25 9.5t28 4.5t20 1q12 0 32.5 -2.5t40.5 -8.5t34.5 -17t14.5 -28q0 -9 -14.5 -28.5t-41.5 -39t-67 -34.5t-91 -15z" />
    <glyph glyph-name="Icircumflex" unicode="&#xce;" horiz-adv-x="435" 
d="M97 400q0 48 -1.5 78.5t-4.5 49t-7 28t-8 14.5q-9 11 -19.5 18t-20 13.5t-16 15.5t-6.5 23q0 18 15 30.5t38.5 20.5t51 12t52.5 6t43.5 2.5t23.5 0.5q22 0 53.5 -1.5t60.5 -8t49 -21t20 -39.5q0 -14 -6.5 -21t-15.5 -12.5t-19.5 -11t-19.5 -15.5q-7 -8 -11 -28t-6 -45.5
t-2.5 -54t-0.5 -54.5v-99q0 -67 2 -102.5t6.5 -52.5t10 -22t13.5 -9q19 -11 34 -19.5t15 -31.5q0 -11 -5 -24.5t-27 -24.5t-68 -18.5t-128 -7.5q-16 0 -44 1t-55.5 7.5t-48 19.5t-20.5 37q0 12 5.5 19.5t13.5 13.5t16.5 11t14.5 12q4 5 8 16t7 32.5t5 55.5t2 87v99zM217 934
q9 0 27 -7.5t39.5 -20t44 -28.5t41 -32.5t30 -32t11.5 -27.5q0 -17 -10.5 -29.5t-28.5 -12.5q-15 0 -35 9t-41 19.5t-41.5 19.5t-36.5 9q-17 0 -37 -9t-41 -19.5t-41 -19.5t-35 -9q-18 0 -28.5 12.5t-10.5 29.5q0 12 11.5 27.5t30 32t41 32.5t44 28.5t39.5 20t27 7.5z" />
    <glyph glyph-name="Idieresis" unicode="&#xcf;" horiz-adv-x="435" 
d="M97 400q0 48 -1.5 78.5t-4.5 49t-7 28t-8 14.5q-9 11 -19.5 18t-20 13.5t-16 15.5t-6.5 23q0 18 15 30.5t38.5 20.5t51 12t52.5 6t43.5 2.5t23.5 0.5q22 0 53.5 -1.5t60.5 -8t49 -21t20 -39.5q0 -14 -6.5 -21t-15.5 -12.5t-19.5 -11t-19.5 -15.5q-7 -8 -11 -28t-6 -45.5
t-2.5 -54t-0.5 -54.5v-99q0 -67 2 -102.5t6.5 -52.5t10 -22t13.5 -9q19 -11 34 -19.5t15 -31.5q0 -11 -5 -24.5t-27 -24.5t-68 -18.5t-128 -7.5q-16 0 -44 1t-55.5 7.5t-48 19.5t-20.5 37q0 12 5.5 19.5t13.5 13.5t16.5 11t14.5 12q4 5 8 16t7 32.5t5 55.5t2 87v99zM196 840
q0 -25 -19 -41.5t-45.5 -26t-54.5 -13.5t-47 -4q-15 0 -31.5 3.5t-31 11t-23.5 20.5t-9 31q0 27 17 43t41 25t50.5 12t45.5 3q15 0 33.5 -2.5t35 -9.5t27.5 -19.5t11 -32.5zM501 840q0 -25 -19 -41.5t-45.5 -26t-54.5 -13.5t-47 -4q-15 0 -31.5 3.5t-31 11t-23.5 20.5t-9 31
q0 27 17 43t41 25t50.5 12t45.5 3q15 0 33.5 -2.5t35 -9.5t27.5 -19.5t11 -32.5z" />
    <glyph glyph-name="Eth" unicode="&#xd0;" horiz-adv-x="843" 
d="M344 462q0 -12 3 -22t11 -10h60q17 0 20 -10t3 -36q0 -20 -2.5 -33.5t-19.5 -13.5h-61q-11 -1 -12.5 -10.5t-1.5 -26.5v-129q0 -19 2 -32.5t8.5 -22.5t19 -13t32.5 -4q47 0 76 21.5t45 55.5t21.5 74t5.5 78q0 88 -15 141t-38.5 82t-53 38.5t-58.5 9.5q-32 0 -38.5 -13.5
t-6.5 -41.5v-82zM450 708q104 0 175 -29.5t114 -79t61.5 -113t18.5 -130.5q0 -70 -21 -135t-65 -115.5t-112.5 -80.5t-163.5 -30q-64 0 -110 3q-23 1 -44 1.5t-42 0.5t-42.5 -0.5t-42.5 -1.5q-42 -3 -85 -3q-13 0 -26.5 3.5t-25 10t-18.5 17.5t-7 26q0 17 6 24.5t15 11
t20 7.5t20 14.5t15 31.5t6 59v106q0 13 -2.5 21.5t-13.5 8.5h-64q-14 0 -16 11.5t-2 38.5q0 25 2.5 34t17.5 11h64q14 0 18 9t4 12v105q0 27 -11.5 37t-25 15.5t-25 13.5t-11.5 32q0 17 9.5 27.5t24 16t30.5 7.5t29 2h326z" />
    <glyph glyph-name="Ntilde" unicode="&#xd1;" horiz-adv-x="873" 
d="M549 460q4 -4 12 -10.5t17 -13t17.5 -11t15.5 -4.5q9 0 14.5 6.5t8 16t3 19.5t0.5 16q0 9 -0.5 21.5l-1 25t-2.5 24t-5 20.5q-5 16 -16.5 23t-22.5 13t-19.5 15.5t-8.5 29.5q0 24 16.5 36.5t39.5 18t47.5 6t40.5 0.5t42 -0.5t51 -6t42.5 -18.5t17.5 -39q0 -21 -8.5 -30
t-20 -15t-23.5 -13t-18 -24q-5 -14 -7.5 -31.5t-4 -36t-1.5 -36.5v-32v-259v-47.5t-5.5 -60.5t-18 -52t-37.5 -22q-15 0 -28 7.5t-24 17.5l-309 277q-11 10 -28 23.5t-33 13.5q-12 0 -18.5 -10.5t-9.5 -24.5t-3.5 -28.5t-0.5 -22.5q0 -21 1 -46t6 -45q6 -24 17 -34t22.5 -16
t20 -13.5t8.5 -25.5q0 -25 -17 -39.5t-40.5 -22t-49 -9.5t-43.5 -2q-17 0 -42.5 2t-49 9t-40.5 21.5t-17 38.5q0 20 9 28.5t21 15.5t23 17.5t15 34.5q3 16 4.5 35.5t2.5 39.5t1.5 39.5t0.5 36.5q0 54 -1.5 108.5t-9.5 108.5q-4 25 -12 39.5t-18 23t-20 13t-18.5 9.5t-14 13
t-5.5 23q0 27 22 40.5t51.5 19.5t59.5 6.5t47 0.5q23 0 38 -1.5t27 -6t24 -13t29 -23.5zM586 912q17 0 32.5 -1.5t27 -7.5t18.5 -17t7 -29q0 -21 -8.5 -39.5t-23.5 -32.5t-35 -22t-42 -8q-29 0 -61 9t-61 19.5t-53.5 19.5t-38.5 9q-9 0 -10.5 -3.5t-1.5 -10.5
q0 -24 -15 -33.5t-33 -9.5q-17 0 -32.5 1.5t-27.5 7.5t-19 17t-7 29q0 21 9 39.5t24 32.5t35 22t42 8q28 0 60 -9t61.5 -19.5t54 -19.5t38.5 -9q9 0 10.5 3.5t1.5 10.5q0 24 15 33.5t33 9.5z" />
    <glyph glyph-name="Ograve" unicode="&#xd2;" horiz-adv-x="818" 
d="M399 -14q-79 0 -147.5 27.5t-119 76t-79.5 116t-29 147.5q0 79 30 145.5t82 114.5t122.5 75t152.5 27q69 0 124 -18.5t97.5 -49t73 -70t50 -81t28.5 -81.5t9 -72q0 -81 -33 -146.5t-87.5 -112.5t-126 -72.5t-147.5 -25.5zM536 242q0 23 -4.5 55.5t-14 68.5t-23.5 72
t-33 64.5t-43 46t-53 17.5q-21 0 -37 -10t-26.5 -25.5t-15.5 -34.5t-5 -37q0 -21 5 -53.5t14.5 -68.5t24 -72t33 -65t41.5 -47t50 -18q23 0 39.5 9t27 24t15.5 34.5t5 39.5zM487 745q-51 0 -91 15t-67 34.5t-41.5 39t-14.5 28.5q0 17 14.5 28t34.5 17t40.5 8.5t32.5 2.5
q6 0 20 -1t28 -4.5t25 -9.5t11 -15q0 -8 -4 -12t-4 -11q0 -10 11 -18.5t24 -17.5t24 -20t11 -27q0 -24 -17 -30.5t-37 -6.5z" />
    <glyph glyph-name="Oacute" unicode="&#xd3;" horiz-adv-x="818" 
d="M399 -14q-79 0 -147.5 27.5t-119 76t-79.5 116t-29 147.5q0 79 30 145.5t82 114.5t122.5 75t152.5 27q69 0 124 -18.5t97.5 -49t73 -70t50 -81t28.5 -81.5t9 -72q0 -81 -33 -146.5t-87.5 -112.5t-126 -72.5t-147.5 -25.5zM536 242q0 23 -4.5 55.5t-14 68.5t-23.5 72
t-33 64.5t-43 46t-53 17.5q-21 0 -37 -10t-26.5 -25.5t-15.5 -34.5t-5 -37q0 -21 5 -53.5t14.5 -68.5t24 -72t33 -65t41.5 -47t50 -18q23 0 39.5 9t27 24t15.5 34.5t5 39.5zM329 745q-20 0 -37 6.5t-17 30.5q0 16 11 27t24 20t24 17.5t11 18.5q0 7 -4 11t-4 12q0 9 11 15
t25 9.5t28 4.5t20 1q12 0 32.5 -2.5t40.5 -8.5t34.5 -17t14.5 -28q0 -9 -14.5 -28.5t-41.5 -39t-67 -34.5t-91 -15z" />
    <glyph glyph-name="Ocircumflex" unicode="&#xd4;" horiz-adv-x="818" 
d="M399 -14q-79 0 -147.5 27.5t-119 76t-79.5 116t-29 147.5q0 79 30 145.5t82 114.5t122.5 75t152.5 27q69 0 124 -18.5t97.5 -49t73 -70t50 -81t28.5 -81.5t9 -72q0 -81 -33 -146.5t-87.5 -112.5t-126 -72.5t-147.5 -25.5zM536 242q0 23 -4.5 55.5t-14 68.5t-23.5 72
t-33 64.5t-43 46t-53 17.5q-21 0 -37 -10t-26.5 -25.5t-15.5 -34.5t-5 -37q0 -21 5 -53.5t14.5 -68.5t24 -72t33 -65t41.5 -47t50 -18q23 0 39.5 9t27 24t15.5 34.5t5 39.5zM410 934q9 0 27 -7.5t39.5 -20t44 -28.5t41 -32.5t30 -32t11.5 -27.5q0 -17 -10.5 -29.5
t-28.5 -12.5q-15 0 -35 9t-41 19.5t-41.5 19.5t-36.5 9q-17 0 -37 -9t-41 -19.5t-41 -19.5t-35 -9q-18 0 -28.5 12.5t-10.5 29.5q0 12 11.5 27.5t30 32t41 32.5t44 28.5t39.5 20t27 7.5z" />
    <glyph glyph-name="Otilde" unicode="&#xd5;" horiz-adv-x="818" 
d="M399 -14q-79 0 -147.5 27.5t-119 76t-79.5 116t-29 147.5q0 79 30 145.5t82 114.5t122.5 75t152.5 27q69 0 124 -18.5t97.5 -49t73 -70t50 -81t28.5 -81.5t9 -72q0 -81 -33 -146.5t-87.5 -112.5t-126 -72.5t-147.5 -25.5zM536 242q0 23 -4.5 55.5t-14 68.5t-23.5 72
t-33 64.5t-43 46t-53 17.5q-21 0 -37 -10t-26.5 -25.5t-15.5 -34.5t-5 -37q0 -21 5 -53.5t14.5 -68.5t24 -72t33 -65t41.5 -47t50 -18q23 0 39.5 9t27 24t15.5 34.5t5 39.5zM559 912q17 0 32.5 -1.5t27 -7.5t18.5 -17t7 -29q0 -21 -8.5 -39.5t-23.5 -32.5t-35 -22t-42 -8
q-29 0 -61 9t-61 19.5t-53.5 19.5t-38.5 9q-9 0 -10.5 -3.5t-1.5 -10.5q0 -24 -15 -33.5t-33 -9.5q-17 0 -32.5 1.5t-27.5 7.5t-19 17t-7 29q0 21 9 39.5t24 32.5t35 22t42 8q28 0 60 -9t61.5 -19.5t54 -19.5t38.5 -9q9 0 10.5 3.5t1.5 10.5q0 24 15 33.5t33 9.5z" />
    <glyph glyph-name="Odieresis" unicode="&#xd6;" horiz-adv-x="818" 
d="M399 -14q-79 0 -147.5 27.5t-119 76t-79.5 116t-29 147.5q0 79 30 145.5t82 114.5t122.5 75t152.5 27q69 0 124 -18.5t97.5 -49t73 -70t50 -81t28.5 -81.5t9 -72q0 -81 -33 -146.5t-87.5 -112.5t-126 -72.5t-147.5 -25.5zM536 242q0 23 -4.5 55.5t-14 68.5t-23.5 72
t-33 64.5t-43 46t-53 17.5q-21 0 -37 -10t-26.5 -25.5t-15.5 -34.5t-5 -37q0 -21 5 -53.5t14.5 -68.5t24 -72t33 -65t41.5 -47t50 -18q23 0 39.5 9t27 24t15.5 34.5t5 39.5zM387 840q0 -25 -19 -41.5t-45.5 -26t-54.5 -13.5t-47 -4q-15 0 -31.5 3.5t-31 11t-23.5 20.5t-9 31
q0 27 17 43t41 25t50.5 12t45.5 3q15 0 33.5 -2.5t35 -9.5t27.5 -19.5t11 -32.5zM692 840q0 -25 -19 -41.5t-45.5 -26t-54.5 -13.5t-47 -4q-15 0 -31.5 3.5t-31 11t-23.5 20.5t-9 31q0 27 17 43t41 25t50.5 12t45.5 3q15 0 33.5 -2.5t35 -9.5t27.5 -19.5t11 -32.5z" />
    <glyph glyph-name="multiply" unicode="&#xd7;" 
d="M429 452q14 14 23.5 23t18.5 9q10 0 22.5 -8t23.5 -19.5t18.5 -23.5t7.5 -21q-1 -10 -9.5 -19t-22.5 -23l-78 -78l-21.5 -21.5t-7.5 -14.5q0 -6 7.5 -14t21.5 -22l78 -78q14 -14 22.5 -23t9.5 -19q0 -9 -7.5 -21t-18.5 -23.5t-23.5 -19.5t-22.5 -8q-9 0 -18.5 9t-23.5 23
l-78 78l-21.5 21.5t-14.5 7.5q-6 0 -13.5 -7t-22.5 -22l-78 -78q-14 -14 -23.5 -23t-18.5 -9q-10 0 -22.5 8t-23.5 19.5t-18.5 23.5t-7.5 21q1 10 9.5 19t22.5 23l78 78q15 15 22 22.5t7 13.5q0 7 -7 14l-22 22l-78 78q-14 14 -22.5 23t-9.5 19q0 9 7.5 21t18.5 23.5
t23.5 19.5t22.5 8q9 0 18.5 -9t23.5 -23l78 -78q15 -15 22.5 -22t13.5 -7q7 0 14.5 7.5l21.5 21.5z" />
    <glyph glyph-name="Oslash" unicode="&#xd8;" horiz-adv-x="818" 
d="M332 244q8 -18 19 -37t25 -35t32 -26.5t41 -10.5t39.5 9t27 24t15.5 34.5t5 39.5q0 40 -8.5 78.5t-19.5 75.5zM710 571q39 -51 61 -111t22 -117q0 -81 -33 -146.5t-87.5 -112.5t-126 -72.5t-147.5 -25.5q-33 0 -69 6.5t-70.5 18.5t-65.5 30t-53 41l-50 -44
q-5 -4 -11.5 -10t-14.5 -6q-7 0 -12 4t-10 9t-9 10t-4 13q0 10 7 16.5t14 11.5l49 42q-43 51 -60 106.5t-16 118.5q0 79 30 145.5t82 114.5t122.5 75t152.5 27q151 0 256 -96l56 50q6 5 11 8.5t13 3.5q11 0 23 -17q5 -7 9 -13t4 -9q0 -8 -7.5 -14t-12.5 -11zM482 461
q-8 18 -19.5 36.5t-26.5 34t-33 25t-38 9.5q-21 0 -37 -10t-26.5 -25.5t-15.5 -34.5t-5 -37q-1 -37 6.5 -75t18.5 -76z" />
    <glyph glyph-name="Ugrave" unicode="&#xd9;" horiz-adv-x="862" 
d="M629 528q0 40 -13.5 56.5t-29.5 24t-29.5 14.5t-13.5 29q0 23 19 35.5t44.5 18t52 6t41.5 0.5q14 0 39 -1t49 -6.5t42 -17t18 -33.5q0 -21 -11.5 -28.5t-26 -15t-26 -21.5t-11.5 -48v-270q0 -11 -1.5 -36.5t-11 -57.5t-30 -65.5t-59 -61.5t-98 -46t-145.5 -18
q-98 0 -162.5 22.5t-103.5 56.5t-57 74.5t-24 75.5t-4.5 59.5t1.5 27.5v231q1 24 -8.5 37.5t-22 23.5t-23 20.5t-10.5 27.5q0 5 1.5 16.5t18.5 23.5t57.5 21t117.5 9q61 0 99.5 -5.5t60 -14.5t29 -21.5t7.5 -27.5q0 -18 -5.5 -26t-13.5 -12t-18 -7t-18.5 -11t-15 -24.5
t-7.5 -46.5v-184q0 -89 35.5 -142t115.5 -53q59 0 90 20.5t44.5 46t15 48.5t1.5 27v249zM511 745q-51 0 -91 15t-67 34.5t-41.5 39t-14.5 28.5q0 17 14.5 28t34.5 17t40.5 8.5t32.5 2.5q6 0 20 -1t28 -4.5t25 -9.5t11 -15q0 -8 -4 -12t-4 -11q0 -10 11 -18.5t24 -17.5
t24 -20t11 -27q0 -24 -17 -30.5t-37 -6.5z" />
    <glyph glyph-name="Uacute" unicode="&#xda;" horiz-adv-x="862" 
d="M629 528q0 40 -13.5 56.5t-29.5 24t-29.5 14.5t-13.5 29q0 23 19 35.5t44.5 18t52 6t41.5 0.5q14 0 39 -1t49 -6.5t42 -17t18 -33.5q0 -21 -11.5 -28.5t-26 -15t-26 -21.5t-11.5 -48v-270q0 -11 -1.5 -36.5t-11 -57.5t-30 -65.5t-59 -61.5t-98 -46t-145.5 -18
q-98 0 -162.5 22.5t-103.5 56.5t-57 74.5t-24 75.5t-4.5 59.5t1.5 27.5v231q1 24 -8.5 37.5t-22 23.5t-23 20.5t-10.5 27.5q0 5 1.5 16.5t18.5 23.5t57.5 21t117.5 9q61 0 99.5 -5.5t60 -14.5t29 -21.5t7.5 -27.5q0 -18 -5.5 -26t-13.5 -12t-18 -7t-18.5 -11t-15 -24.5
t-7.5 -46.5v-184q0 -89 35.5 -142t115.5 -53q59 0 90 20.5t44.5 46t15 48.5t1.5 27v249zM351 745q-20 0 -37 6.5t-17 30.5q0 16 11 27t24 20t24 17.5t11 18.5q0 7 -4 11t-4 12q0 9 11 15t25 9.5t28 4.5t20 1q12 0 32.5 -2.5t40.5 -8.5t34.5 -17t14.5 -28q0 -9 -14.5 -28.5
t-41.5 -39t-67 -34.5t-91 -15z" />
    <glyph glyph-name="Ucircumflex" unicode="&#xdb;" horiz-adv-x="862" 
d="M629 528q0 40 -13.5 56.5t-29.5 24t-29.5 14.5t-13.5 29q0 23 19 35.5t44.5 18t52 6t41.5 0.5q14 0 39 -1t49 -6.5t42 -17t18 -33.5q0 -21 -11.5 -28.5t-26 -15t-26 -21.5t-11.5 -48v-270q0 -11 -1.5 -36.5t-11 -57.5t-30 -65.5t-59 -61.5t-98 -46t-145.5 -18
q-98 0 -162.5 22.5t-103.5 56.5t-57 74.5t-24 75.5t-4.5 59.5t1.5 27.5v231q1 24 -8.5 37.5t-22 23.5t-23 20.5t-10.5 27.5q0 5 1.5 16.5t18.5 23.5t57.5 21t117.5 9q61 0 99.5 -5.5t60 -14.5t29 -21.5t7.5 -27.5q0 -18 -5.5 -26t-13.5 -12t-18 -7t-18.5 -11t-15 -24.5
t-7.5 -46.5v-184q0 -89 35.5 -142t115.5 -53q59 0 90 20.5t44.5 46t15 48.5t1.5 27v249zM430 934q9 0 27 -7.5t39.5 -20t44 -28.5t41 -32.5t30 -32t11.5 -27.5q0 -17 -10.5 -29.5t-28.5 -12.5q-15 0 -35 9t-41 19.5t-41.5 19.5t-36.5 9q-17 0 -37 -9t-41 -19.5t-41 -19.5
t-35 -9q-18 0 -28.5 12.5t-10.5 29.5q0 12 11.5 27.5t30 32t41 32.5t44 28.5t39.5 20t27 7.5z" />
    <glyph glyph-name="Udieresis" unicode="&#xdc;" horiz-adv-x="862" 
d="M629 528q0 40 -13.5 56.5t-29.5 24t-29.5 14.5t-13.5 29q0 23 19 35.5t44.5 18t52 6t41.5 0.5q14 0 39 -1t49 -6.5t42 -17t18 -33.5q0 -21 -11.5 -28.5t-26 -15t-26 -21.5t-11.5 -48v-270q0 -11 -1.5 -36.5t-11 -57.5t-30 -65.5t-59 -61.5t-98 -46t-145.5 -18
q-98 0 -162.5 22.5t-103.5 56.5t-57 74.5t-24 75.5t-4.5 59.5t1.5 27.5v231q1 24 -8.5 37.5t-22 23.5t-23 20.5t-10.5 27.5q0 5 1.5 16.5t18.5 23.5t57.5 21t117.5 9q61 0 99.5 -5.5t60 -14.5t29 -21.5t7.5 -27.5q0 -18 -5.5 -26t-13.5 -12t-18 -7t-18.5 -11t-15 -24.5
t-7.5 -46.5v-184q0 -89 35.5 -142t115.5 -53q59 0 90 20.5t44.5 46t15 48.5t1.5 27v249zM410 840q0 -25 -19 -41.5t-45.5 -26t-54.5 -13.5t-47 -4q-15 0 -31.5 3.5t-31 11t-23.5 20.5t-9 31q0 27 17 43t41 25t50.5 12t45.5 3q15 0 33.5 -2.5t35 -9.5t27.5 -19.5t11 -32.5z
M715 840q0 -25 -19 -41.5t-45.5 -26t-54.5 -13.5t-47 -4q-15 0 -31.5 3.5t-31 11t-23.5 20.5t-9 31q0 27 17 43t41 25t50.5 12t45.5 3q15 0 33.5 -2.5t35 -9.5t27.5 -19.5t11 -32.5z" />
    <glyph glyph-name="Yacute" unicode="&#xdd;" horiz-adv-x="819" 
d="M574 437q-17 -21 -26 -38t-14 -34t-6 -37t-1 -46q0 -69 3.5 -103t10.5 -48q5 -11 16 -16.5t22.5 -11.5t20 -15t8.5 -27q0 -27 -25.5 -41.5t-59.5 -21.5t-69 -8t-53 -1q-74 0 -117.5 7.5t-67 18.5t-30.5 23.5t-7 22.5q0 20 9 28.5t21.5 14t25 11.5t19.5 21q8 17 12 55
t4 111q0 21 -2 36.5t-7 28.5t-13.5 26t-21.5 30l-113 131q-18 21 -38.5 31t-37 17t-27.5 15.5t-11 26.5q0 9 2.5 20.5t23 22t67 18t133.5 7.5q78 0 120 -6.5t61 -16t22 -20t3 -18.5q0 -10 -4.5 -17t-9.5 -13.5t-9.5 -12.5t-4.5 -14t6.5 -22.5t16.5 -28.5t21.5 -24t20.5 -10
q10 0 21.5 8.5t22 20.5t17.5 25t7 22q0 10 -4.5 17t-10 13.5t-10 15t-4.5 22.5q0 22 18.5 34t44 17.5t51.5 6.5t40 1q47 0 77.5 -3t48.5 -10t25 -18.5t7 -27.5q0 -24 -12 -32t-30 -12t-39.5 -10.5t-40.5 -26.5zM330 745q-20 0 -37 6.5t-17 30.5q0 16 11 27t24 20t24 17.5
t11 18.5q0 7 -4 11t-4 12q0 9 11 15t25 9.5t28 4.5t20 1q12 0 32.5 -2.5t40.5 -8.5t34.5 -17t14.5 -28q0 -9 -14.5 -28.5t-41.5 -39t-67 -34.5t-91 -15z" />
    <glyph glyph-name="Thorn" unicode="&#xde;" horiz-adv-x="719" 
d="M107 539q0 33 -11.5 46t-25 19.5t-25 13.5t-11.5 28q0 24 24 37.5t55.5 20t63 7.5t47.5 1q17 0 48.5 -1.5t63 -8t54.5 -20t23 -37.5q0 -17 -12 -26t-26.5 -17t-26.5 -19t-12 -32q0 -7 5.5 -14t22.5 -7q14 0 34.5 2t43.5 2q50 0 98 -9.5t85 -30t59.5 -52.5t22.5 -77
t-22 -78t-58.5 -54.5t-84.5 -32.5t-100 -11q-23 0 -45 2t-45 2q-12 0 -14 -10.5t-2 -22.5q0 -29 12 -41.5t26.5 -20t26.5 -15.5t12 -26q0 -24 -23 -38t-54.5 -20.5t-63 -8t-48.5 -1.5q-16 0 -47.5 1t-63 7.5t-55.5 20t-24 37.5q0 21 11.5 28t25 13t25 18t11.5 42v383z
M491 360q0 16 -5.5 32t-16.5 28.5t-27 20t-38 7.5q-35 0 -50.5 -7.5t-15.5 -28.5v-106q0 -31 62 -31q23 0 40 8t28.5 20.5t17 27.5t5.5 29z" />
    <glyph glyph-name="germandbls" unicode="&#xdf;" horiz-adv-x="678" 
d="M73 391q0 81 26 138t69 92t99 51t115 16q53 0 86 -15t51 -36t24 -42.5t6 -34.5q0 -19 -5 -32t-10.5 -22t-10.5 -16t-5 -14q0 -13 11 -32.5t27 -43.5t35 -52t35 -60t27 -67t11 -72q0 -38 -13 -67.5t-35.5 -50t-53.5 -31.5t-67 -11q-28 0 -51 9t-39.5 22.5t-25.5 29
t-9 28.5q0 9 9.5 13.5t20.5 11t20.5 17.5t9.5 34q0 29 -16.5 60t-36 62t-36 61t-16.5 57q0 37 15.5 60t33.5 39t33.5 28t15.5 28q0 20 -13.5 28t-30.5 8q-14 0 -31.5 -8.5t-32.5 -31.5t-25 -65.5t-8 -109.5q0 -18 0.5 -34.5t1 -36t2 -45t3.5 -62.5q2 -31 7 -49.5t11 -29
t12.5 -15.5t12 -9.5t9 -10t3.5 -17.5q0 -26 -23 -40t-54 -21.5t-62.5 -9t-49.5 -1.5q-16 0 -40.5 1.5t-48 7.5t-40 18.5t-16.5 35.5q0 16 10 25t21.5 18.5t21.5 24.5t10 44v227z" />
    <glyph glyph-name="agrave" unicode="&#xe0;" horiz-adv-x="596" 
d="M279 215q-26 0 -41.5 -20t-15.5 -44q0 -20 10.5 -37t32.5 -17q14 0 22.5 7t12.5 17.5t5 23t1 23.5q0 17 -3 32t-24 15zM522 239q0 -44 4.5 -67.5t11 -33.5t14.5 -11.5t14.5 -2t11 -3.5t4.5 -16q0 -21 -13.5 -42.5t-35 -38.5t-48.5 -27.5t-54 -10.5q-30 0 -46.5 8
t-26.5 17.5t-17 17.5t-16 8t-19.5 -8t-27.5 -17q-17 -10 -40 -18t-58 -8q-31 0 -61 8.5t-53 26t-37.5 44.5t-14.5 64q0 27 13.5 55t42.5 51t75.5 38t112.5 15q23 0 34 3.5t11 30.5q0 12 -1 29.5t-5.5 33.5t-14 27.5t-26.5 11.5q-23 0 -37.5 -17t-29.5 -37t-35 -37t-53 -17
q-24 0 -40 15.5t-16 39.5q0 32 28 58t68.5 44t86 28t81.5 10q14 0 35.5 -2.5t45 -9t47.5 -18.5t42.5 -31t30.5 -46.5t12 -64.5v-100zM394 561q-51 0 -91 15t-67 34.5t-41.5 39t-14.5 28.5q0 17 14.5 28t34.5 17t40.5 8.5t32.5 2.5q6 0 20 -1t28 -4.5t25 -9.5t11 -15
q0 -8 -4 -12t-4 -11q0 -10 11 -18.5t24 -17.5t24 -20t11 -27q0 -24 -17 -30.5t-37 -6.5z" />
    <glyph glyph-name="aacute" unicode="&#xe1;" horiz-adv-x="596" 
d="M279 215q-26 0 -41.5 -20t-15.5 -44q0 -20 10.5 -37t32.5 -17q14 0 22.5 7t12.5 17.5t5 23t1 23.5q0 17 -3 32t-24 15zM522 239q0 -44 4.5 -67.5t11 -33.5t14.5 -11.5t14.5 -2t11 -3.5t4.5 -16q0 -21 -13.5 -42.5t-35 -38.5t-48.5 -27.5t-54 -10.5q-30 0 -46.5 8
t-26.5 17.5t-17 17.5t-16 8t-19.5 -8t-27.5 -17q-17 -10 -40 -18t-58 -8q-31 0 -61 8.5t-53 26t-37.5 44.5t-14.5 64q0 27 13.5 55t42.5 51t75.5 38t112.5 15q23 0 34 3.5t11 30.5q0 12 -1 29.5t-5.5 33.5t-14 27.5t-26.5 11.5q-23 0 -37.5 -17t-29.5 -37t-35 -37t-53 -17
q-24 0 -40 15.5t-16 39.5q0 32 28 58t68.5 44t86 28t81.5 10q14 0 35.5 -2.5t45 -9t47.5 -18.5t42.5 -31t30.5 -46.5t12 -64.5v-100zM234 561q-20 0 -37 6.5t-17 30.5q0 16 11 27t24 20t24 17.5t11 18.5q0 7 -4 11t-4 12q0 9 11 15t25 9.5t28 4.5t20 1q12 0 32.5 -2.5
t40.5 -8.5t34.5 -17t14.5 -28q0 -9 -14.5 -28.5t-41.5 -39t-67 -34.5t-91 -15z" />
    <glyph glyph-name="acircumflex" unicode="&#xe2;" horiz-adv-x="596" 
d="M279 215q-26 0 -41.5 -20t-15.5 -44q0 -20 10.5 -37t32.5 -17q14 0 22.5 7t12.5 17.5t5 23t1 23.5q0 17 -3 32t-24 15zM522 239q0 -44 4.5 -67.5t11 -33.5t14.5 -11.5t14.5 -2t11 -3.5t4.5 -16q0 -21 -13.5 -42.5t-35 -38.5t-48.5 -27.5t-54 -10.5q-30 0 -46.5 8
t-26.5 17.5t-17 17.5t-16 8t-19.5 -8t-27.5 -17q-17 -10 -40 -18t-58 -8q-31 0 -61 8.5t-53 26t-37.5 44.5t-14.5 64q0 27 13.5 55t42.5 51t75.5 38t112.5 15q23 0 34 3.5t11 30.5q0 12 -1 29.5t-5.5 33.5t-14 27.5t-26.5 11.5q-23 0 -37.5 -17t-29.5 -37t-35 -37t-53 -17
q-24 0 -40 15.5t-16 39.5q0 32 28 58t68.5 44t86 28t81.5 10q14 0 35.5 -2.5t45 -9t47.5 -18.5t42.5 -31t30.5 -46.5t12 -64.5v-100zM304 750q9 0 27 -7.5t39.5 -20t44 -28.5t41 -32.5t30 -32t11.5 -27.5q0 -17 -10.5 -29.5t-28.5 -12.5q-15 0 -35 9t-41 19.5t-41.5 19.5
t-36.5 9q-17 0 -37 -9t-41 -19.5t-41 -19.5t-35 -9q-18 0 -28.5 12.5t-10.5 29.5q0 12 11.5 27.5t30 32t41 32.5t44 28.5t39.5 20t27 7.5z" />
    <glyph glyph-name="atilde" unicode="&#xe3;" horiz-adv-x="596" 
d="M279 215q-26 0 -41.5 -20t-15.5 -44q0 -20 10.5 -37t32.5 -17q14 0 22.5 7t12.5 17.5t5 23t1 23.5q0 17 -3 32t-24 15zM522 239q0 -44 4.5 -67.5t11 -33.5t14.5 -11.5t14.5 -2t11 -3.5t4.5 -16q0 -21 -13.5 -42.5t-35 -38.5t-48.5 -27.5t-54 -10.5q-30 0 -46.5 8
t-26.5 17.5t-17 17.5t-16 8t-19.5 -8t-27.5 -17q-17 -10 -40 -18t-58 -8q-31 0 -61 8.5t-53 26t-37.5 44.5t-14.5 64q0 27 13.5 55t42.5 51t75.5 38t112.5 15q23 0 34 3.5t11 30.5q0 12 -1 29.5t-5.5 33.5t-14 27.5t-26.5 11.5q-23 0 -37.5 -17t-29.5 -37t-35 -37t-53 -17
q-24 0 -40 15.5t-16 39.5q0 32 28 58t68.5 44t86 28t81.5 10q14 0 35.5 -2.5t45 -9t47.5 -18.5t42.5 -31t30.5 -46.5t12 -64.5v-100zM456 728q17 0 32.5 -1.5t27 -7.5t18.5 -17t7 -29q0 -21 -8.5 -39.5t-23.5 -32.5t-35 -22t-42 -8q-29 0 -61 9t-61 19.5t-53.5 19.5t-38.5 9
q-9 0 -10.5 -3.5t-1.5 -10.5q0 -24 -15 -33.5t-33 -9.5q-17 0 -32.5 1.5t-27.5 7.5t-19 17t-7 29q0 21 9 39.5t24 32.5t35 22t42 8q28 0 60 -9t61.5 -19.5t54 -19.5t38.5 -9q9 0 10.5 3.5t1.5 10.5q0 24 15 33.5t33 9.5z" />
    <glyph glyph-name="adieresis" unicode="&#xe4;" horiz-adv-x="596" 
d="M279 215q-26 0 -41.5 -20t-15.5 -44q0 -20 10.5 -37t32.5 -17q14 0 22.5 7t12.5 17.5t5 23t1 23.5q0 17 -3 32t-24 15zM522 239q0 -44 4.5 -67.5t11 -33.5t14.5 -11.5t14.5 -2t11 -3.5t4.5 -16q0 -21 -13.5 -42.5t-35 -38.5t-48.5 -27.5t-54 -10.5q-30 0 -46.5 8
t-26.5 17.5t-17 17.5t-16 8t-19.5 -8t-27.5 -17q-17 -10 -40 -18t-58 -8q-31 0 -61 8.5t-53 26t-37.5 44.5t-14.5 64q0 27 13.5 55t42.5 51t75.5 38t112.5 15q23 0 34 3.5t11 30.5q0 12 -1 29.5t-5.5 33.5t-14 27.5t-26.5 11.5q-23 0 -37.5 -17t-29.5 -37t-35 -37t-53 -17
q-24 0 -40 15.5t-16 39.5q0 32 28 58t68.5 44t86 28t81.5 10q14 0 35.5 -2.5t45 -9t47.5 -18.5t42.5 -31t30.5 -46.5t12 -64.5v-100zM293 656q0 -25 -19 -41.5t-45.5 -26t-54.5 -13.5t-47 -4q-15 0 -31.5 3.5t-31 11t-23.5 20.5t-9 31q0 27 17 43t41 25t50.5 12t45.5 3
q15 0 33.5 -2.5t35 -9.5t27.5 -19.5t11 -32.5zM598 656q0 -25 -19 -41.5t-45.5 -26t-54.5 -13.5t-47 -4q-15 0 -31.5 3.5t-31 11t-23.5 20.5t-9 31q0 27 17 43t41 25t50.5 12t45.5 3q15 0 33.5 -2.5t35 -9.5t27.5 -19.5t11 -32.5z" />
    <glyph glyph-name="aring" unicode="&#xe5;" horiz-adv-x="596" 
d="M279 215q-26 0 -41.5 -20t-15.5 -44q0 -20 10.5 -37t32.5 -17q14 0 22.5 7t12.5 17.5t5 23t1 23.5q0 17 -3 32t-24 15zM522 239q0 -44 4.5 -67.5t11 -33.5t14.5 -11.5t14.5 -2t11 -3.5t4.5 -16q0 -21 -13.5 -42.5t-35 -38.5t-48.5 -27.5t-54 -10.5q-30 0 -46.5 8
t-26.5 17.5t-17 17.5t-16 8t-19.5 -8t-27.5 -17q-17 -10 -40 -18t-58 -8q-31 0 -61 8.5t-53 26t-37.5 44.5t-14.5 64q0 27 13.5 55t42.5 51t75.5 38t112.5 15q23 0 34 3.5t11 30.5q0 12 -1 29.5t-5.5 33.5t-14 27.5t-26.5 11.5q-23 0 -37.5 -17t-29.5 -37t-35 -37t-53 -17
q-24 0 -40 15.5t-16 39.5q0 32 28 58t68.5 44t86 28t81.5 10q14 0 35.5 -2.5t45 -9t47.5 -18.5t42.5 -31t30.5 -46.5t12 -64.5v-100zM456 664q0 -32 -15 -52t-37.5 -32t-49.5 -16.5t-51 -4.5q-27 0 -54.5 4.5t-49.5 16.5t-35.5 32t-13.5 52q0 31 13.5 51.5t35.5 32.5
t49.5 16.5t54.5 4.5q24 0 51 -4.5t49.5 -16.5t37.5 -32.5t15 -51.5zM353 664q0 23 -12 40.5t-38 17.5t-38 -17.5t-12 -40.5t12 -40.5t38 -17.5t38 17.5t12 40.5z" />
    <glyph glyph-name="ae" unicode="&#xe6;" horiz-adv-x="840" 
d="M575 326q10 0 20.5 -0.5t19 2t14 8.5t5.5 20q0 27 -15.5 45.5t-43.5 18.5q-25 0 -42.5 -21t-17.5 -45q0 -14 5.5 -20t14.5 -7.5t19.5 -1t20.5 0.5zM279 215q-26 0 -41.5 -20t-15.5 -44q0 -20 10.5 -37t32.5 -17q14 0 22.5 7t12.5 17.5t5 23t1 23.5q0 17 -3 32t-24 15z
M547 230q-8 0 -17.5 -0.5t-9.5 -13.5q0 -19 11 -35.5t27.5 -29t36 -20t37.5 -7.5q28 0 49.5 7t37.5 15.5t27 15.5t19 7q16 0 27.5 -17.5t11.5 -32.5q0 -29 -23.5 -53.5t-58.5 -42t-75 -27.5t-74 -10q-43 0 -75 9.5t-54.5 21t-35 21t-15.5 9.5q-1 0 -23 -9.5t-54 -21
t-68.5 -21t-67.5 -9.5t-61 8.5t-53 26t-37.5 44.5t-14.5 64q0 27 13.5 55t42.5 51t75.5 38t112.5 15q23 0 34 3.5t11 30.5q0 12 -1 29.5t-5.5 33.5t-14 27.5t-26.5 11.5q-23 0 -37.5 -17t-29.5 -37t-35 -37t-53 -17q-24 0 -40 15.5t-16 39.5q0 32 28 58t68.5 44t86 28
t81.5 10q27 0 50 -4t40.5 -9.5t27.5 -9.5t11 -4q2 0 13.5 4t30 9.5t44 9.5t55.5 4q64 0 110 -21.5t76 -53t44.5 -67.5t14.5 -64q0 -25 -5 -39.5t-14 -22.5t-20 -10.5t-23 -2.5h-217z" />
    <glyph glyph-name="ccedilla" unicode="&#xe7;" horiz-adv-x="553" 
d="M17 250q0 54 22 101.5t61.5 83t93 56t116.5 20.5q56 0 99 -14t72 -36t43.5 -49.5t14.5 -53.5q0 -42 -28 -70.5t-70 -28.5q-27 0 -42 9t-24 23t-13.5 30t-11 30t-16.5 23t-30 9q-17 0 -29.5 -7.5t-21 -20t-13 -27.5t-4.5 -30q0 -28 10 -54.5t27.5 -47.5t42 -34t54.5 -13
q24 0 40 4t28 9t20.5 9t16.5 4q20 0 32.5 -18t12.5 -36q0 -23 -15.5 -46t-44.5 -42.5t-69.5 -32t-91.5 -13.5l49 -48l26.5 -26.5t13.5 -33.5q0 -17 -12 -29t-28.5 -19t-34.5 -10t-31 -3q-27 0 -45 5.5t-28.5 14t-14.5 17t-4 14.5q0 16 10.5 23t23 10.5t23 6.5t10.5 11
q0 5 -2.5 9t-4.5 8l-42 62q-42 12 -77 35t-60.5 55.5t-39.5 73t-14 87.5z" />
    <glyph glyph-name="egrave" unicode="&#xe8;" horiz-adv-x="557" 
d="M264 230q-8 0 -17.5 -0.5t-9.5 -13.5q0 -19 11 -35.5t27.5 -29t36 -20t37.5 -7.5q28 0 49.5 7t37.5 15.5t27 15.5t19 7t15 -5t12.5 -12.5t8.5 -16.5t3 -16q0 -29 -23.5 -53.5t-58.5 -42t-75 -27.5t-74 -10q-68 0 -119 22.5t-85 59t-51.5 83t-17.5 94.5q0 58 23 106.5
t61.5 84t89.5 55.5t107 20q64 0 110 -21.5t76 -53t44.5 -67.5t14.5 -64q0 -25 -5 -39.5t-14 -22.5t-20 -10.5t-23 -2.5h-217zM292 326q10 0 20.5 -0.5t19 2t14 8.5t5.5 20q0 27 -15.5 45.5t-43.5 18.5q-25 0 -42.5 -21t-17.5 -45q0 -14 5.5 -20t14.5 -7.5t19.5 -1t20.5 0.5z
M375 561q-51 0 -91 15t-67 34.5t-41.5 39t-14.5 28.5q0 17 14.5 28t34.5 17t40.5 8.5t32.5 2.5q6 0 20 -1t28 -4.5t25 -9.5t11 -15q0 -8 -4 -12t-4 -11q0 -10 11 -18.5t24 -17.5t24 -20t11 -27q0 -24 -17 -30.5t-37 -6.5z" />
    <glyph glyph-name="eacute" unicode="&#xe9;" horiz-adv-x="557" 
d="M264 230q-8 0 -17.5 -0.5t-9.5 -13.5q0 -19 11 -35.5t27.5 -29t36 -20t37.5 -7.5q28 0 49.5 7t37.5 15.5t27 15.5t19 7t15 -5t12.5 -12.5t8.5 -16.5t3 -16q0 -29 -23.5 -53.5t-58.5 -42t-75 -27.5t-74 -10q-68 0 -119 22.5t-85 59t-51.5 83t-17.5 94.5q0 58 23 106.5
t61.5 84t89.5 55.5t107 20q64 0 110 -21.5t76 -53t44.5 -67.5t14.5 -64q0 -25 -5 -39.5t-14 -22.5t-20 -10.5t-23 -2.5h-217zM292 326q10 0 20.5 -0.5t19 2t14 8.5t5.5 20q0 27 -15.5 45.5t-43.5 18.5q-25 0 -42.5 -21t-17.5 -45q0 -14 5.5 -20t14.5 -7.5t19.5 -1t20.5 0.5z
M215 561q-20 0 -37 6.5t-17 30.5q0 16 11 27t24 20t24 17.5t11 18.5q0 7 -4 11t-4 12q0 9 11 15t25 9.5t28 4.5t20 1q12 0 32.5 -2.5t40.5 -8.5t34.5 -17t14.5 -28q0 -9 -14.5 -28.5t-41.5 -39t-67 -34.5t-91 -15z" />
    <glyph glyph-name="ecircumflex" unicode="&#xea;" horiz-adv-x="557" 
d="M264 230q-8 0 -17.5 -0.5t-9.5 -13.5q0 -19 11 -35.5t27.5 -29t36 -20t37.5 -7.5q28 0 49.5 7t37.5 15.5t27 15.5t19 7t15 -5t12.5 -12.5t8.5 -16.5t3 -16q0 -29 -23.5 -53.5t-58.5 -42t-75 -27.5t-74 -10q-68 0 -119 22.5t-85 59t-51.5 83t-17.5 94.5q0 58 23 106.5
t61.5 84t89.5 55.5t107 20q64 0 110 -21.5t76 -53t44.5 -67.5t14.5 -64q0 -25 -5 -39.5t-14 -22.5t-20 -10.5t-23 -2.5h-217zM292 326q10 0 20.5 -0.5t19 2t14 8.5t5.5 20q0 27 -15.5 45.5t-43.5 18.5q-25 0 -42.5 -21t-17.5 -45q0 -14 5.5 -20t14.5 -7.5t19.5 -1t20.5 0.5z
M294 750q9 0 27 -7.5t39.5 -20t44 -28.5t41 -32.5t30 -32t11.5 -27.5q0 -17 -10.5 -29.5t-28.5 -12.5q-15 0 -35 9t-41 19.5t-41.5 19.5t-36.5 9q-17 0 -37 -9t-41 -19.5t-41 -19.5t-35 -9q-18 0 -28.5 12.5t-10.5 29.5q0 12 11.5 27.5t30 32t41 32.5t44 28.5t39.5 20
t27 7.5z" />
    <glyph glyph-name="edieresis" unicode="&#xeb;" horiz-adv-x="557" 
d="M264 230q-8 0 -17.5 -0.5t-9.5 -13.5q0 -19 11 -35.5t27.5 -29t36 -20t37.5 -7.5q28 0 49.5 7t37.5 15.5t27 15.5t19 7t15 -5t12.5 -12.5t8.5 -16.5t3 -16q0 -29 -23.5 -53.5t-58.5 -42t-75 -27.5t-74 -10q-68 0 -119 22.5t-85 59t-51.5 83t-17.5 94.5q0 58 23 106.5
t61.5 84t89.5 55.5t107 20q64 0 110 -21.5t76 -53t44.5 -67.5t14.5 -64q0 -25 -5 -39.5t-14 -22.5t-20 -10.5t-23 -2.5h-217zM292 326q10 0 20.5 -0.5t19 2t14 8.5t5.5 20q0 27 -15.5 45.5t-43.5 18.5q-25 0 -42.5 -21t-17.5 -45q0 -14 5.5 -20t14.5 -7.5t19.5 -1t20.5 0.5z
M274 656q0 -25 -19 -41.5t-45.5 -26t-54.5 -13.5t-47 -4q-15 0 -31.5 3.5t-31 11t-23.5 20.5t-9 31q0 27 17 43t41 25t50.5 12t45.5 3q15 0 33.5 -2.5t35 -9.5t27.5 -19.5t11 -32.5zM579 656q0 -25 -19 -41.5t-45.5 -26t-54.5 -13.5t-47 -4q-15 0 -31.5 3.5t-31 11
t-23.5 20.5t-9 31q0 27 17 43t41 25t50.5 12t45.5 3q15 0 33.5 -2.5t35 -9.5t27.5 -19.5t11 -32.5z" />
    <glyph glyph-name="igrave" unicode="&#xec;" horiz-adv-x="375" 
d="M305 185q0 -44 9 -62t20.5 -26t20.5 -14t9 -26q0 -26 -20.5 -39.5t-48.5 -20t-57 -7.5t-46 -1q-65 0 -101 6.5t-53 16t-21 20.5t-4 20q0 13 6.5 21.5t15.5 15t17.5 13.5t13.5 19q5 13 7.5 43.5t3.5 64.5t-1 64.5t-6 44.5q-3 13 -13 19t-20.5 11.5t-18.5 13.5t-8 25
q0 18 19 32.5t47.5 25.5t62 19t62.5 13.5t49.5 8t23.5 2.5q22 0 26.5 -14t4.5 -30v-279zM284 561q-51 0 -91 15t-67 34.5t-41.5 39t-14.5 28.5q0 17 14.5 28t34.5 17t40.5 8.5t32.5 2.5q6 0 20 -1t28 -4.5t25 -9.5t11 -15q0 -8 -4 -12t-4 -11q0 -10 11 -18.5t24 -17.5
t24 -20t11 -27q0 -24 -17 -30.5t-37 -6.5z" />
    <glyph glyph-name="iacute" unicode="&#xed;" horiz-adv-x="375" 
d="M305 185q0 -44 9 -62t20.5 -26t20.5 -14t9 -26q0 -26 -20.5 -39.5t-48.5 -20t-57 -7.5t-46 -1q-65 0 -101 6.5t-53 16t-21 20.5t-4 20q0 13 6.5 21.5t15.5 15t17.5 13.5t13.5 19q5 13 7.5 43.5t3.5 64.5t-1 64.5t-6 44.5q-3 13 -13 19t-20.5 11.5t-18.5 13.5t-8 25
q0 18 19 32.5t47.5 25.5t62 19t62.5 13.5t49.5 8t23.5 2.5q22 0 26.5 -14t4.5 -30v-279zM124 561q-20 0 -37 6.5t-17 30.5q0 16 11 27t24 20t24 17.5t11 18.5q0 7 -4 11t-4 12q0 9 11 15t25 9.5t28 4.5t20 1q12 0 32.5 -2.5t40.5 -8.5t34.5 -17t14.5 -28q0 -9 -14.5 -28.5
t-41.5 -39t-67 -34.5t-91 -15z" />
    <glyph glyph-name="icircumflex" unicode="&#xee;" horiz-adv-x="375" 
d="M305 185q0 -44 9 -62t20.5 -26t20.5 -14t9 -26q0 -26 -20.5 -39.5t-48.5 -20t-57 -7.5t-46 -1q-65 0 -101 6.5t-53 16t-21 20.5t-4 20q0 13 6.5 21.5t15.5 15t17.5 13.5t13.5 19q5 13 7.5 43.5t3.5 64.5t-1 64.5t-6 44.5q-3 13 -13 19t-20.5 11.5t-18.5 13.5t-8 25
q0 18 19 32.5t47.5 25.5t62 19t62.5 13.5t49.5 8t23.5 2.5q22 0 26.5 -14t4.5 -30v-279zM195 750q9 0 27 -7.5t39.5 -20t44 -28.5t41 -32.5t30 -32t11.5 -27.5q0 -17 -10.5 -29.5t-28.5 -12.5q-15 0 -35 9t-41 19.5t-41.5 19.5t-36.5 9q-17 0 -37 -9t-41 -19.5t-41 -19.5
t-35 -9q-18 0 -28.5 12.5t-10.5 29.5q0 12 11.5 27.5t30 32t41 32.5t44 28.5t39.5 20t27 7.5z" />
    <glyph glyph-name="idieresis" unicode="&#xef;" horiz-adv-x="375" 
d="M305 185q0 -44 9 -62t20.5 -26t20.5 -14t9 -26q0 -26 -20.5 -39.5t-48.5 -20t-57 -7.5t-46 -1q-65 0 -101 6.5t-53 16t-21 20.5t-4 20q0 13 6.5 21.5t15.5 15t17.5 13.5t13.5 19q5 13 7.5 43.5t3.5 64.5t-1 64.5t-6 44.5q-3 13 -13 19t-20.5 11.5t-18.5 13.5t-8 25
q0 18 19 32.5t47.5 25.5t62 19t62.5 13.5t49.5 8t23.5 2.5q22 0 26.5 -14t4.5 -30v-279zM176 656q0 -25 -19 -41.5t-45.5 -26t-54.5 -13.5t-47 -4q-15 0 -31.5 3.5t-31 11t-23.5 20.5t-9 31q0 27 17 43t41 25t50.5 12t45.5 3q15 0 33.5 -2.5t35 -9.5t27.5 -19.5t11 -32.5z
M481 656q0 -25 -19 -41.5t-45.5 -26t-54.5 -13.5t-47 -4q-15 0 -31.5 3.5t-31 11t-23.5 20.5t-9 31q0 27 17 43t41 25t50.5 12t45.5 3q15 0 33.5 -2.5t35 -9.5t27.5 -19.5t11 -32.5z" />
    <glyph glyph-name="eth" unicode="&#xf0;" horiz-adv-x="633" 
d="M393 210q0 31 -7.5 63.5t-20.5 59t-30.5 43.5t-37.5 17q-28 0 -42 -29.5t-14 -77.5q0 -31 9 -62t23 -56t31.5 -40.5t34.5 -15.5q32 0 43.5 25t10.5 73zM162 658q0 11 18 22.5t41.5 21.5t45 16t29.5 6q13 0 27.5 -9.5t26.5 -17.5q6 -4 11 -6t11 -2q6 1 14 4t24 11
q20 9 40 21.5t28 12.5q20 0 34 -14q5 -5 8.5 -10t3.5 -13q0 -5 -13 -11.5t-28.5 -14t-28.5 -15.5t-13 -16q0 -9 10 -22t21 -22q42 -35 70.5 -74t46.5 -78t26 -74.5t8 -62.5q0 -94 -31 -156.5t-79 -100t-107 -53t-115 -15.5t-105.5 18t-86.5 50.5t-59 77.5t-22 99
q0 46 5.5 80t16.5 60t28 45t41 35q32 21 66.5 28.5t58.5 7.5q14 0 31 -6t23 -6q7 0 9 8t2 16q0 10 -6.5 20.5t-15.5 19t-18.5 14t-15.5 5.5q-5 0 -15.5 -4.5t-22.5 -10t-23.5 -11.5t-17.5 -9q-6 -2 -16.5 -7t-15.5 -5q-18 0 -30 13q-6 7 -11 12.5t-5 12.5q0 4 10.5 10.5
t24.5 13l28 13t22 10.5t16 7.5t8 10.5q0 6 -5 11t-11.5 10t-11.5 10.5t-5 12.5z" />
    <glyph glyph-name="ntilde" unicode="&#xf1;" horiz-adv-x="705" 
d="M298 167q0 -36 5.5 -54t11.5 -27.5t11.5 -16t5.5 -20.5q0 -23 -21.5 -35.5t-50 -18t-58 -6t-44.5 -0.5t-39 1t-47 6.5t-39.5 17.5t-16.5 35q0 18 7 22.5t16 10t17 19.5t9 51l4 150q1 28 -8.5 40t-20.5 19.5t-20.5 15.5t-9.5 28q0 13 17 26t43 24.5t57.5 21t59 16.5t48 11
t25.5 4q17 0 26.5 -12t9.5 -27q0 -5 -0.5 -9t-0.5 -9q0 -9 4.5 -17.5t15.5 -8.5q12 0 21 13t24 29q15 15 39.5 28t67.5 13q52 0 85 -15.5t52 -42.5t27.5 -62.5t11.5 -75t3 -80.5t3 -79q2 -30 9.5 -43.5t15.5 -22t14.5 -15.5t6.5 -23q0 -7 -2.5 -17t-19 -19.5t-54.5 -16.5
t-108 -7q-14 0 -36 0.5t-43.5 5.5t-37 16t-15.5 32q0 13 5 19t12 12t13 17.5t8 35.5q2 27 6 66t1 76t-18 63t-50 26q-24 0 -36 -11.5t-17 -28.5t-5 -37v-37v-77zM508 728q17 0 32.5 -1.5t27 -7.5t18.5 -17t7 -29q0 -21 -8.5 -39.5t-23.5 -32.5t-35 -22t-42 -8q-29 0 -61 9
t-61 19.5t-53.5 19.5t-38.5 9q-9 0 -10.5 -3.5t-1.5 -10.5q0 -24 -15 -33.5t-33 -9.5q-17 0 -32.5 1.5t-27.5 7.5t-19 17t-7 29q0 21 9 39.5t24 32.5t35 22t42 8q28 0 60 -9t61.5 -19.5t54 -19.5t38.5 -9q9 0 10.5 3.5t1.5 10.5q0 24 15 33.5t33 9.5z" />
    <glyph glyph-name="ograve" unicode="&#xf2;" horiz-adv-x="633" 
d="M292 -14q-56 0 -105.5 16t-87 47t-59.5 77t-22 105q0 67 27 119t72 88t103 54.5t120 18.5q66 0 117 -23.5t86 -60.5t53.5 -84t18.5 -93q0 -62 -30 -110.5t-76.5 -83t-104 -52.5t-112.5 -18zM385 174q0 11 -2 31.5t-6 45t-10.5 50t-16.5 46t-23 33.5t-30 13q-25 0 -38 -19
t-11 -41q1 -24 6 -60.5t15 -72t27 -61.5t43 -27q14 -1 23 4t14 14t7 20.5t2 23.5zM413 561q-51 0 -91 15t-67 34.5t-41.5 39t-14.5 28.5q0 17 14.5 28t34.5 17t40.5 8.5t32.5 2.5q6 0 20 -1t28 -4.5t25 -9.5t11 -15q0 -8 -4 -12t-4 -11q0 -10 11 -18.5t24 -17.5t24 -20
t11 -27q0 -24 -17 -30.5t-37 -6.5z" />
    <glyph glyph-name="oacute" unicode="&#xf3;" horiz-adv-x="633" 
d="M292 -14q-56 0 -105.5 16t-87 47t-59.5 77t-22 105q0 67 27 119t72 88t103 54.5t120 18.5q66 0 117 -23.5t86 -60.5t53.5 -84t18.5 -93q0 -62 -30 -110.5t-76.5 -83t-104 -52.5t-112.5 -18zM385 174q0 11 -2 31.5t-6 45t-10.5 50t-16.5 46t-23 33.5t-30 13q-25 0 -38 -19
t-11 -41q1 -24 6 -60.5t15 -72t27 -61.5t43 -27q14 -1 23 4t14 14t7 20.5t2 23.5zM253 561q-20 0 -37 6.5t-17 30.5q0 16 11 27t24 20t24 17.5t11 18.5q0 7 -4 11t-4 12q0 9 11 15t25 9.5t28 4.5t20 1q12 0 32.5 -2.5t40.5 -8.5t34.5 -17t14.5 -28q0 -9 -14.5 -28.5
t-41.5 -39t-67 -34.5t-91 -15z" />
    <glyph glyph-name="ocircumflex" unicode="&#xf4;" horiz-adv-x="633" 
d="M292 -14q-56 0 -105.5 16t-87 47t-59.5 77t-22 105q0 67 27 119t72 88t103 54.5t120 18.5q66 0 117 -23.5t86 -60.5t53.5 -84t18.5 -93q0 -62 -30 -110.5t-76.5 -83t-104 -52.5t-112.5 -18zM385 174q0 11 -2 31.5t-6 45t-10.5 50t-16.5 46t-23 33.5t-30 13q-25 0 -38 -19
t-11 -41q1 -24 6 -60.5t15 -72t27 -61.5t43 -27q14 -1 23 4t14 14t7 20.5t2 23.5zM324 750q9 0 27 -7.5t39.5 -20t44 -28.5t41 -32.5t30 -32t11.5 -27.5q0 -17 -10.5 -29.5t-28.5 -12.5q-15 0 -35 9t-41 19.5t-41.5 19.5t-36.5 9q-17 0 -37 -9t-41 -19.5t-41 -19.5t-35 -9
q-18 0 -28.5 12.5t-10.5 29.5q0 12 11.5 27.5t30 32t41 32.5t44 28.5t39.5 20t27 7.5z" />
    <glyph glyph-name="otilde" unicode="&#xf5;" horiz-adv-x="633" 
d="M292 -14q-56 0 -105.5 16t-87 47t-59.5 77t-22 105q0 67 27 119t72 88t103 54.5t120 18.5q66 0 117 -23.5t86 -60.5t53.5 -84t18.5 -93q0 -62 -30 -110.5t-76.5 -83t-104 -52.5t-112.5 -18zM385 174q0 11 -2 31.5t-6 45t-10.5 50t-16.5 46t-23 33.5t-30 13q-25 0 -38 -19
t-11 -41q1 -24 6 -60.5t15 -72t27 -61.5t43 -27q14 -1 23 4t14 14t7 20.5t2 23.5zM472 728q17 0 32.5 -1.5t27 -7.5t18.5 -17t7 -29q0 -21 -8.5 -39.5t-23.5 -32.5t-35 -22t-42 -8q-29 0 -61 9t-61 19.5t-53.5 19.5t-38.5 9q-9 0 -10.5 -3.5t-1.5 -10.5q0 -24 -15 -33.5
t-33 -9.5q-17 0 -32.5 1.5t-27.5 7.5t-19 17t-7 29q0 21 9 39.5t24 32.5t35 22t42 8q28 0 60 -9t61.5 -19.5t54 -19.5t38.5 -9q9 0 10.5 3.5t1.5 10.5q0 24 15 33.5t33 9.5z" />
    <glyph glyph-name="odieresis" unicode="&#xf6;" horiz-adv-x="633" 
d="M292 -14q-56 0 -105.5 16t-87 47t-59.5 77t-22 105q0 67 27 119t72 88t103 54.5t120 18.5q66 0 117 -23.5t86 -60.5t53.5 -84t18.5 -93q0 -62 -30 -110.5t-76.5 -83t-104 -52.5t-112.5 -18zM385 174q0 11 -2 31.5t-6 45t-10.5 50t-16.5 46t-23 33.5t-30 13q-25 0 -38 -19
t-11 -41q1 -24 6 -60.5t15 -72t27 -61.5t43 -27q14 -1 23 4t14 14t7 20.5t2 23.5zM302 656q0 -25 -19 -41.5t-45.5 -26t-54.5 -13.5t-47 -4q-15 0 -31.5 3.5t-31 11t-23.5 20.5t-9 31q0 27 17 43t41 25t50.5 12t45.5 3q15 0 33.5 -2.5t35 -9.5t27.5 -19.5t11 -32.5zM607 656
q0 -25 -19 -41.5t-45.5 -26t-54.5 -13.5t-47 -4q-15 0 -31.5 3.5t-31 11t-23.5 20.5t-9 31q0 27 17 43t41 25t50.5 12t45.5 3q15 0 33.5 -2.5t35 -9.5t27.5 -19.5t11 -32.5z" />
    <glyph glyph-name="divide" unicode="&#xf7;" 
d="M138 198h-29t-20 5t-12 17t-4 36t4 36t12 17t20 5h29h354h28.5t20.5 -5t12 -17t4 -36t-4 -36t-12 -17t-20.5 -5h-28.5h-354zM315 164q31 0 53 -22t22 -53t-22 -53t-53 -22t-53 22t-22 53t22 53t53 22zM315 498q31 0 53 -22t22 -53t-22 -53t-53 -22t-53 22t-22 53t22 53
t53 22z" />
    <glyph glyph-name="oslash" unicode="&#xf8;" horiz-adv-x="633" 
d="M547 459q5 4 18.5 15t23.5 11q12 0 22 -12.5t10 -23.5q0 -12 -13 -21t-20 -15l-21 -15q23 -32 35.5 -69t12.5 -79q0 -62 -30 -110.5t-76.5 -83t-104 -52.5t-112.5 -18q-54 0 -105 15.5t-93 50.5l-21 -15q-7 -5 -19.5 -15t-21.5 -10q-12 0 -22 12t-10 23q0 12 11 20t19 13
l25 19q-20 29 -28.5 64.5t-8.5 67.5q0 67 27 119t72 88t103 54.5t120 18.5q47 0 98 -15.5t87 -52.5zM276 184q9 -29 23 -50.5t40 -21.5q29 0 37.5 19t8.5 43q0 37 -11 83zM358 320q-4 12 -9 25t-11.5 23.5t-16.5 17.5t-24 7q-25 0 -37 -19t-12 -41q0 -12 3 -36t9 -49z" />
    <glyph glyph-name="ugrave" unicode="&#xf9;" horiz-adv-x="712" 
d="M301 216q0 -15 1.5 -33t7 -33t17 -25.5t31.5 -10.5q27 0 40 15.5t18 37.5t4.5 46.5t-0.5 42.5v54.5t-4 53.5q-3 19 -12.5 27t-19 13.5t-17.5 12t-8 22.5q0 15 15 25.5t38.5 18.5t52 12.5t55 7.5t47.5 4t31 1q27 0 39 -15t12 -41q0 -24 -1 -47.5t-1 -47.5v-201
q0 -23 8.5 -31.5t19 -13t19 -11t8.5 -24.5q0 -26 -28.5 -42.5t-67 -26.5t-77 -14t-59.5 -4q-29 0 -37 9.5t-9.5 20.5t-3 20.5t-16.5 9.5q-8 0 -20.5 -9.5t-30.5 -20.5t-42.5 -20.5t-57.5 -9.5q-47 0 -78.5 12t-51 32.5t-29 49t-13 62t-3 70t0.5 74.5t-5 59.5t-13 33
t-16.5 16t-16.5 8.5t-13 11t-5 24q0 16 18.5 27t47 18.5t61.5 12t62 6.5t49 2.5t22 0.5q21 0 26 -9.5t5 -28.5v-254zM451 561q-51 0 -91 15t-67 34.5t-41.5 39t-14.5 28.5q0 17 14.5 28t34.5 17t40.5 8.5t32.5 2.5q6 0 20 -1t28 -4.5t25 -9.5t11 -15q0 -8 -4 -12t-4 -11
q0 -10 11 -18.5t24 -17.5t24 -20t11 -27q0 -24 -17 -30.5t-37 -6.5z" />
    <glyph glyph-name="uacute" unicode="&#xfa;" horiz-adv-x="712" 
d="M301 216q0 -15 1.5 -33t7 -33t17 -25.5t31.5 -10.5q27 0 40 15.5t18 37.5t4.5 46.5t-0.5 42.5v54.5t-4 53.5q-3 19 -12.5 27t-19 13.5t-17.5 12t-8 22.5q0 15 15 25.5t38.5 18.5t52 12.5t55 7.5t47.5 4t31 1q27 0 39 -15t12 -41q0 -24 -1 -47.5t-1 -47.5v-201
q0 -23 8.5 -31.5t19 -13t19 -11t8.5 -24.5q0 -26 -28.5 -42.5t-67 -26.5t-77 -14t-59.5 -4q-29 0 -37 9.5t-9.5 20.5t-3 20.5t-16.5 9.5q-8 0 -20.5 -9.5t-30.5 -20.5t-42.5 -20.5t-57.5 -9.5q-47 0 -78.5 12t-51 32.5t-29 49t-13 62t-3 70t0.5 74.5t-5 59.5t-13 33
t-16.5 16t-16.5 8.5t-13 11t-5 24q0 16 18.5 27t47 18.5t61.5 12t62 6.5t49 2.5t22 0.5q21 0 26 -9.5t5 -28.5v-254zM292 561q-20 0 -37 6.5t-17 30.5q0 16 11 27t24 20t24 17.5t11 18.5q0 7 -4 11t-4 12q0 9 11 15t25 9.5t28 4.5t20 1q12 0 32.5 -2.5t40.5 -8.5t34.5 -17
t14.5 -28q0 -9 -14.5 -28.5t-41.5 -39t-67 -34.5t-91 -15z" />
    <glyph glyph-name="ucircumflex" unicode="&#xfb;" horiz-adv-x="712" 
d="M301 216q0 -15 1.5 -33t7 -33t17 -25.5t31.5 -10.5q27 0 40 15.5t18 37.5t4.5 46.5t-0.5 42.5v54.5t-4 53.5q-3 19 -12.5 27t-19 13.5t-17.5 12t-8 22.5q0 15 15 25.5t38.5 18.5t52 12.5t55 7.5t47.5 4t31 1q27 0 39 -15t12 -41q0 -24 -1 -47.5t-1 -47.5v-201
q0 -23 8.5 -31.5t19 -13t19 -11t8.5 -24.5q0 -26 -28.5 -42.5t-67 -26.5t-77 -14t-59.5 -4q-29 0 -37 9.5t-9.5 20.5t-3 20.5t-16.5 9.5q-8 0 -20.5 -9.5t-30.5 -20.5t-42.5 -20.5t-57.5 -9.5q-47 0 -78.5 12t-51 32.5t-29 49t-13 62t-3 70t0.5 74.5t-5 59.5t-13 33
t-16.5 16t-16.5 8.5t-13 11t-5 24q0 16 18.5 27t47 18.5t61.5 12t62 6.5t49 2.5t22 0.5q21 0 26 -9.5t5 -28.5v-254zM363 750q9 0 27 -7.5t39.5 -20t44 -28.5t41 -32.5t30 -32t11.5 -27.5q0 -17 -10.5 -29.5t-28.5 -12.5q-15 0 -35 9t-41 19.5t-41.5 19.5t-36.5 9
q-17 0 -37 -9t-41 -19.5t-41 -19.5t-35 -9q-18 0 -28.5 12.5t-10.5 29.5q0 12 11.5 27.5t30 32t41 32.5t44 28.5t39.5 20t27 7.5z" />
    <glyph glyph-name="udieresis" unicode="&#xfc;" horiz-adv-x="712" 
d="M301 216q0 -15 1.5 -33t7 -33t17 -25.5t31.5 -10.5q27 0 40 15.5t18 37.5t4.5 46.5t-0.5 42.5v54.5t-4 53.5q-3 19 -12.5 27t-19 13.5t-17.5 12t-8 22.5q0 15 15 25.5t38.5 18.5t52 12.5t55 7.5t47.5 4t31 1q27 0 39 -15t12 -41q0 -24 -1 -47.5t-1 -47.5v-201
q0 -23 8.5 -31.5t19 -13t19 -11t8.5 -24.5q0 -26 -28.5 -42.5t-67 -26.5t-77 -14t-59.5 -4q-29 0 -37 9.5t-9.5 20.5t-3 20.5t-16.5 9.5q-8 0 -20.5 -9.5t-30.5 -20.5t-42.5 -20.5t-57.5 -9.5q-47 0 -78.5 12t-51 32.5t-29 49t-13 62t-3 70t0.5 74.5t-5 59.5t-13 33
t-16.5 16t-16.5 8.5t-13 11t-5 24q0 16 18.5 27t47 18.5t61.5 12t62 6.5t49 2.5t22 0.5q21 0 26 -9.5t5 -28.5v-254zM331 656q0 -25 -19 -41.5t-45.5 -26t-54.5 -13.5t-47 -4q-15 0 -31.5 3.5t-31 11t-23.5 20.5t-9 31q0 27 17 43t41 25t50.5 12t45.5 3q15 0 33.5 -2.5
t35 -9.5t27.5 -19.5t11 -32.5zM636 656q0 -25 -19 -41.5t-45.5 -26t-54.5 -13.5t-47 -4q-15 0 -31.5 3.5t-31 11t-23.5 20.5t-9 31q0 27 17 43t41 25t50.5 12t45.5 3q15 0 33.5 -2.5t35 -9.5t27.5 -19.5t11 -32.5z" />
    <glyph glyph-name="yacute" unicode="&#xfd;" horiz-adv-x="651" 
d="M445 84q-18 -50 -40.5 -97.5t-54.5 -84t-76 -59t-105 -22.5q-27 0 -55 7t-50.5 22t-37 37.5t-14.5 53.5q0 19 6.5 35.5t18.5 29t28.5 20t35.5 7.5q35 0 50.5 -16.5t23 -36.5t13.5 -36.5t21 -16.5q20 0 29.5 16t9.5 33q0 21 -11.5 46.5t-20.5 44.5l-140 293q-7 15 -20 22
t-25.5 13t-21.5 14t-9 25q0 11 6 24t29.5 24t69 18.5t124.5 7.5q14 0 36 -1.5t42.5 -7.5t35 -18.5t14.5 -33.5q0 -10 -3.5 -17t-8 -13.5t-8 -13t-3.5 -15.5q0 -14 7 -33t17 -35.5t20.5 -28t16.5 -11.5q11 0 20.5 11t16 26.5t10.5 31t4 24.5q0 17 -5 26t-11 16t-11 14t-5 20
q0 20 15 31.5t36 17.5t43 8t36 2q12 0 30.5 -1.5t35.5 -7t29 -15.5t12 -27q0 -22 -10 -31t-24.5 -15t-31 -15t-29.5 -31q-17 -26 -29 -57.5t-23 -60.5zM262 561q-20 0 -37 6.5t-17 30.5q0 16 11 27t24 20t24 17.5t11 18.5q0 7 -4 11t-4 12q0 9 11 15t25 9.5t28 4.5t20 1
q12 0 32.5 -2.5t40.5 -8.5t34.5 -17t14.5 -28q0 -9 -14.5 -28.5t-41.5 -39t-67 -34.5t-91 -15z" />
    <glyph glyph-name="thorn" unicode="&#xfe;" horiz-adv-x="699" 
d="M86 501q0 22 -12 30.5t-26 14.5t-26 14.5t-12 29.5q0 17 15 31.5t39 27t54 22t61 16.5t59.5 10.5t49.5 3.5q20 0 23 -12.5t2 -29.5l-6 -193q0 -4 0.5 -10t6.5 -6q4 0 15.5 9.5t31.5 21.5q20 11 46 20.5t59 9.5q55 0 95 -21t66 -56t38.5 -79.5t12.5 -91.5
q0 -51 -16.5 -101t-47.5 -89t-75 -63t-98 -24q-18 0 -35 4t-31 8.5t-24 8.5t-13 4q-11 0 -13.5 -12t-2.5 -20q0 -29 9.5 -41t21.5 -19.5t21.5 -15t9.5 -25.5q0 -21 -15 -33.5t-35.5 -19t-42.5 -8.5t-37 -2q-50 0 -94 8.5t-76 22.5t-50.5 32t-18.5 37q0 17 6.5 24t16 11.5
t19.5 10.5t17 21q4 7 6 18t3.5 29t2 45.5t0.5 68.5v358zM315 170q0 -15 5.5 -24.5t13 -15t16.5 -7.5t15 -2q22 0 36 11t21.5 28.5t10 37.5t2.5 38t-2.5 40t-10.5 41.5t-22 32.5t-38 13q-14 0 -23.5 -5.5t-14.5 -14t-7 -19.5t-2 -22v-132z" />
    <glyph glyph-name="ydieresis" unicode="&#xff;" horiz-adv-x="651" 
d="M445 84q-18 -50 -40.5 -97.5t-54.5 -84t-76 -59t-105 -22.5q-27 0 -55 7t-50.5 22t-37 37.5t-14.5 53.5q0 19 6.5 35.5t18.5 29t28.5 20t35.5 7.5q35 0 50.5 -16.5t23 -36.5t13.5 -36.5t21 -16.5q20 0 29.5 16t9.5 33q0 21 -11.5 46.5t-20.5 44.5l-140 293q-7 15 -20 22
t-25.5 13t-21.5 14t-9 25q0 11 6 24t29.5 24t69 18.5t124.5 7.5q14 0 36 -1.5t42.5 -7.5t35 -18.5t14.5 -33.5q0 -10 -3.5 -17t-8 -13.5t-8 -13t-3.5 -15.5q0 -14 7 -33t17 -35.5t20.5 -28t16.5 -11.5q11 0 20.5 11t16 26.5t10.5 31t4 24.5q0 17 -5 26t-11 16t-11 14t-5 20
q0 20 15 31.5t36 17.5t43 8t36 2q12 0 30.5 -1.5t35.5 -7t29 -15.5t12 -27q0 -22 -10 -31t-24.5 -15t-31 -15t-29.5 -31q-17 -26 -29 -57.5t-23 -60.5zM311 656q0 -25 -19 -41.5t-45.5 -26t-54.5 -13.5t-47 -4q-15 0 -31.5 3.5t-31 11t-23.5 20.5t-9 31q0 27 17 43t41 25
t50.5 12t45.5 3q15 0 33.5 -2.5t35 -9.5t27.5 -19.5t11 -32.5zM616 656q0 -25 -19 -41.5t-45.5 -26t-54.5 -13.5t-47 -4q-15 0 -31.5 3.5t-31 11t-23.5 20.5t-9 31q0 27 17 43t41 25t50.5 12t45.5 3q15 0 33.5 -2.5t35 -9.5t27.5 -19.5t11 -32.5z" />
    <glyph glyph-name="dotlessi" unicode="&#x131;" horiz-adv-x="375" 
d="M305 185q0 -44 9 -62t20.5 -26t20.5 -14t9 -26q0 -26 -20.5 -39.5t-48.5 -20t-57 -7.5t-46 -1q-65 0 -101 6.5t-53 16t-21 20.5t-4 20q0 13 6.5 21.5t15.5 15t17.5 13.5t13.5 19q5 13 7.5 43.5t3.5 64.5t-1 64.5t-6 44.5q-3 13 -13 19t-20.5 11.5t-18.5 13.5t-8 25
q0 18 19 32.5t47.5 25.5t62 19t62.5 13.5t49.5 8t23.5 2.5q22 0 26.5 -14t4.5 -30v-279z" />
    <glyph glyph-name="OE" unicode="&#x152;" horiz-adv-x="1138" 
d="M590 0q-25 0 -53 -1.5t-54 -3.5q-27 -2 -51 -4t-42 -2q-92 0 -160.5 34.5t-114 88.5t-68.5 119.5t-23 127.5q0 77 29.5 141.5t79.5 111.5t117 73.5t142 26.5q22 0 43.5 -1.5t43.5 -3.5t43.5 -4t43.5 -2h295q50 0 80.5 3t48 7t26 7t14.5 3q21 0 36.5 -16t25.5 -38.5
t14.5 -47t4.5 -40.5q0 -12 -2.5 -25t-8.5 -23.5t-16 -17t-25 -6.5q-20 0 -29.5 7t-16 18t-14 23t-22.5 23t-42 18t-72 7q-30 0 -49 -2t-30.5 -9.5t-16 -22.5t-4.5 -40v-61q0 -22 1.5 -34t7.5 -18t18 -7t34 -1q19 0 28 8t13 20.5t5.5 27t5.5 27t12 20.5t26 8q22 0 34.5 -18.5
t18.5 -43t7.5 -50t1.5 -40.5t-2 -42.5t-9 -53.5t-20.5 -45.5t-35.5 -19.5q-15 0 -21.5 8t-9.5 19.5t-5 25t-8 25t-19 19.5t-38 8q-16 0 -24.5 -6.5t-12 -16.5t-4 -22.5t-0.5 -24.5q0 -55 3 -83.5t15 -41t35 -13.5t62 -1q40 0 64.5 10t40 25t24.5 32t18 32t21 25t34 10
q26 0 36.5 -19t10.5 -41q0 -32 -11 -66t-27.5 -61.5t-35 -45t-33.5 -17.5q-8 0 -15 2.5t-16 4.5q-9 3 -22 5t-35 2h-346zM356 567q-23 0 -39.5 -9.5t-26.5 -25.5t-14.5 -35.5t-4.5 -39.5q0 -22 4.5 -55t14 -69t24 -71.5t33 -64t42 -46t51.5 -17.5q22 0 38 9.5t26.5 24.5
t16 34t5.5 38q0 22 -4.5 55t-14 69.5t-23 72.5t-32.5 65t-43 47t-53 18z" />
    <glyph glyph-name="oe" unicode="&#x153;" horiz-adv-x="929" 
d="M663 326q10 0 20.5 -0.5t19 2t14 8.5t5.5 20q0 27 -15.5 45.5t-43.5 18.5q-25 0 -42.5 -21t-17.5 -45q0 -14 5.5 -20t14.5 -7.5t19.5 -1t20.5 0.5zM385 174q0 18 -2.5 38.5t-6.5 41.5t-9.5 41t-11.5 37q-4 10 -8.5 21t-11 20t-16 14.5t-22.5 5.5q-25 0 -37 -19t-12 -41
q0 -15 2.5 -34.5t7 -40t9 -40t9.5 -33.5q4 -12 8.5 -25t11.5 -23.5t17.5 -17.5t25.5 -7q29 0 37.5 19t8.5 43zM635 230q-8 0 -17.5 -0.5t-9.5 -13.5q0 -19 11 -35.5t27.5 -29t36 -20t37.5 -7.5q28 0 49.5 7t37.5 15.5t27 15.5t19 7t15 -5t12.5 -12.5t8.5 -16.5t3 -16
q0 -29 -23.5 -53.5t-58.5 -42t-75 -27.5t-74 -10q-44 0 -75.5 8.5t-52.5 18t-33 18t-16 8.5q-6 0 -18.5 -8.5t-35.5 -18t-56.5 -18t-81.5 -8.5q-56 0 -105.5 16t-87 47t-59.5 77t-22 105q0 67 27 119t72 88t103 54.5t120 18.5q40 0 69 -7t48.5 -16t30.5 -16t14 -7
q1 0 13.5 7t34 16t51.5 16t68 7q64 0 110 -21.5t76 -53t44.5 -67.5t14.5 -64q0 -25 -5 -39.5t-14 -22.5t-20 -10.5t-23 -2.5h-217z" />
    <glyph glyph-name="Scaron" unicode="&#x160;" horiz-adv-x="678" 
d="M135 305q-42 33 -68.5 78t-26.5 99q0 39 18.5 80.5t55.5 75t92 55.5t128 22q24 0 48.5 -4.5t45.5 -10t36 -10t21 -4.5q11 0 22 6t27 6q13 0 31.5 -13t36 -34.5t30 -50.5t12.5 -60q0 -26 -15.5 -47t-43.5 -21q-25 0 -46.5 18t-44.5 39t-51.5 39t-67.5 18
q-23 0 -43.5 -11.5t-20.5 -38.5q0 -30 23 -44t60 -24.5t81.5 -24t88.5 -42.5q47 -31 70 -70t23 -96q0 -44 -18.5 -88.5t-58.5 -80t-102.5 -58t-149.5 -22.5q-25 0 -57 3t-64.5 9t-63 15t-51.5 21q-18 10 -31.5 33t-22 50t-13 54.5t-4.5 46.5q0 20 9.5 37t32.5 17
q18 0 30 -12t23.5 -29.5t25.5 -38t35 -38t52 -29.5t77 -12q8 0 21 2.5t25.5 8t21.5 15t9 23.5q0 18 -10.5 29.5t-29 20t-43 15.5t-52 17t-56.5 24.5t-57 36.5zM339 745q-9 0 -27 7.5t-39.5 20t-44 28.5t-41 32.5t-30 32t-11.5 27.5q0 17 10.5 29.5t28.5 12.5q15 0 35 -9
t41 -19.5t41 -19.5t37 -9q16 0 36.5 9t41.5 19.5t41 19.5t35 9q18 0 28.5 -12.5t10.5 -29.5q0 -12 -11.5 -27.5t-30 -32t-41 -32.5t-44 -28.5t-39.5 -20t-27 -7.5z" />
    <glyph glyph-name="scaron" unicode="&#x161;" horiz-adv-x="501" 
d="M229 511q15 0 30.5 -2t29.5 -4q14 -3 25 -5t16 -2q8 0 14 2t13 5q7 2 13.5 4t13.5 2q17 0 33.5 -15t29.5 -36t21 -44t8 -38q0 -20 -14.5 -33.5t-34.5 -13.5q-21 0 -38.5 12.5t-33 27t-30.5 27t-31 12.5q-14 0 -25 -10t-11 -24q0 -16 16.5 -28.5t40.5 -25.5t53 -27.5
t53 -35t40.5 -48t16.5 -66.5q0 -35 -16 -64.5t-42.5 -50.5t-62 -32.5t-74.5 -11.5q-15 0 -35 2t-39 5q-19 2 -33.5 4t-19.5 2t-10 -0.5t-10 -1.5t-9.5 -1.5t-9.5 -0.5q-15 0 -24 3.5t-20 15.5q-9 10 -18 25.5t-16 32.5t-11.5 34t-4.5 31q0 20 8 33.5t30 13.5
q16 0 32.5 -15.5t33 -34t35 -34t39.5 -15.5q15 0 27 7.5t12 24.5q0 15 -14.5 26.5t-36.5 23t-47 26t-47 35.5t-36.5 50t-14.5 70q0 37 14.5 67.5t39.5 51.5t58.5 32.5t72.5 11.5zM258 561q-9 0 -27 7.5t-39.5 20t-44 28.5t-41 32.5t-30 32t-11.5 27.5q0 17 10.5 29.5
t28.5 12.5q15 0 35 -9t41 -19.5t41 -19.5t37 -9q16 0 36.5 9t41.5 19.5t41 19.5t35 9q18 0 28.5 -12.5t10.5 -29.5q0 -12 -11.5 -27.5t-30 -32t-41 -32.5t-44 -28.5t-39.5 -20t-27 -7.5z" />
    <glyph glyph-name="Ydieresis" unicode="&#x178;" horiz-adv-x="819" 
d="M574 437q-17 -21 -26 -38t-14 -34t-6 -37t-1 -46q0 -69 3.5 -103t10.5 -48q5 -11 16 -16.5t22.5 -11.5t20 -15t8.5 -27q0 -27 -25.5 -41.5t-59.5 -21.5t-69 -8t-53 -1q-74 0 -117.5 7.5t-67 18.5t-30.5 23.5t-7 22.5q0 20 9 28.5t21.5 14t25 11.5t19.5 21q8 17 12 55
t4 111q0 21 -2 36.5t-7 28.5t-13.5 26t-21.5 30l-113 131q-18 21 -38.5 31t-37 17t-27.5 15.5t-11 26.5q0 9 2.5 20.5t23 22t67 18t133.5 7.5q78 0 120 -6.5t61 -16t22 -20t3 -18.5q0 -10 -4.5 -17t-9.5 -13.5t-9.5 -12.5t-4.5 -14t6.5 -22.5t16.5 -28.5t21.5 -24t20.5 -10
q10 0 21.5 8.5t22 20.5t17.5 25t7 22q0 10 -4.5 17t-10 13.5t-10 15t-4.5 22.5q0 22 18.5 34t44 17.5t51.5 6.5t40 1q47 0 77.5 -3t48.5 -10t25 -18.5t7 -27.5q0 -24 -12 -32t-30 -12t-39.5 -10.5t-40.5 -26.5zM388 840q0 -25 -19 -41.5t-45.5 -26t-54.5 -13.5t-47 -4
q-15 0 -31.5 3.5t-31 11t-23.5 20.5t-9 31q0 27 17 43t41 25t50.5 12t45.5 3q15 0 33.5 -2.5t35 -9.5t27.5 -19.5t11 -32.5zM693 840q0 -25 -19 -41.5t-45.5 -26t-54.5 -13.5t-47 -4q-15 0 -31.5 3.5t-31 11t-23.5 20.5t-9 31q0 27 17 43t41 25t50.5 12t45.5 3
q15 0 33.5 -2.5t35 -9.5t27.5 -19.5t11 -32.5z" />
    <glyph glyph-name="Zcaron" unicode="&#x17d;" horiz-adv-x="721" 
d="M423 239q-3 -6 -10.5 -18.5t-15 -26.5t-13 -27t-5.5 -19q0 -9 8.5 -13.5t20 -7t23 -2.5h17.5q44 0 70 10t41 24.5t23 31.5t15 31.5t16.5 24.5t28.5 10q38 0 55 -21t17 -56q0 -41 -11 -75.5t-26.5 -59.5t-33 -39.5t-30.5 -14.5q-4 0 -16.5 1.5t-28.5 3.5t-31.5 3t-26.5 1
h-422q-13 0 -25.5 -0.5t-22.5 2t-16.5 10.5t-6.5 26q0 14 7 26.5t14 23.5l252 428q4 6 11 18t7 20q0 10 -7 15.5t-17 8.5t-21.5 4t-20.5 1q-31 0 -51 -10t-32.5 -25t-20 -32.5t-15.5 -32.5t-18.5 -25t-28.5 -10q-15 0 -28 7.5t-22 19.5t-14 27t-5 29q0 28 11 59.5t26.5 57.5
t31 43t24.5 17q4 0 10.5 -2t21.5 -5q16 -2 44 -4.5t75 -2.5q16 0 38 1t47.5 2t53 2.5t55.5 3.5q55 4 101.5 6.5t64.5 2.5q22 0 36.5 -11.5t14.5 -34.5q0 -14 -9 -30t-15 -27zM360 745q-9 0 -27 7.5t-39.5 20t-44 28.5t-41 32.5t-30 32t-11.5 27.5q0 17 10.5 29.5t28.5 12.5
q15 0 35 -9t41 -19.5t41 -19.5t37 -9q16 0 36.5 9t41.5 19.5t41 19.5t35 9q18 0 28.5 -12.5t10.5 -29.5q0 -12 -11.5 -27.5t-30 -32t-41 -32.5t-44 -28.5t-39.5 -20t-27 -7.5z" />
    <glyph glyph-name="zcaron" unicode="&#x17e;" horiz-adv-x="540" 
d="M359 185q-5 -9 -13.5 -25.5t-8.5 -26.5q0 -16 11.5 -20.5t24.5 -4.5q31 0 45.5 13.5t23.5 29.5t16.5 29.5t24.5 13.5q27 0 38.5 -21t11.5 -45q0 -29 -11 -55.5t-27 -46t-33 -31t-29 -11.5q-8 0 -13 2.5t-13.5 5.5t-23 5.5t-41.5 2.5h-244q-9 0 -23 0.5t-27 4t-22 11.5
t-9 22q0 17 12 34t20 31l121 195q3 5 9.5 15t13 21.5t11.5 22.5t5 17q0 8 -5 12t-11.5 6t-14 2.5t-13.5 0.5q-27 0 -40.5 -13t-23 -29t-19.5 -29t-30 -13q-23 0 -34 18.5t-11 38.5q0 26 9.5 52.5t23 47.5t28.5 34.5t27 13.5q10 0 19 -3t28.5 -6.5t54.5 -6.5t97 -3h111
q6 0 18 0.5t25.5 0.5t25.5 -1t16 -3q17 -9 17 -29q0 -14 -8.5 -31t-15.5 -29zM272 561q-9 0 -27 7.5t-39.5 20t-44 28.5t-41 32.5t-30 32t-11.5 27.5q0 17 10.5 29.5t28.5 12.5q15 0 35 -9t41 -19.5t41 -19.5t37 -9q16 0 36.5 9t41.5 19.5t41 19.5t35 9q18 0 28.5 -12.5
t10.5 -29.5q0 -12 -11.5 -27.5t-30 -32t-41 -32.5t-44 -28.5t-39.5 -20t-27 -7.5z" />
    <glyph glyph-name="florin" unicode="&#x192;" 
d="M196 219q1 8 4 21t5.5 27t4.5 26.5t2 20.5q0 16 -7 20t-20 5q-15 1 -23 4.5t-8 21.5q0 22 3.5 35t8 20t9.5 9.5t8 2.5q17 0 26.5 0.5t15 3.5t8 11t6.5 23q25 98 83.5 142.5t159.5 44.5q27 0 62 -4t66.5 -16t53.5 -34t22 -59q0 -29 -20.5 -47.5t-48.5 -18.5q-24 0 -42 10
t-33 22.5t-27.5 22.5t-25.5 10q-14 0 -24.5 -11.5t-17.5 -28t-10.5 -33.5t-3.5 -28q0 -10 7 -10h15h70q14 0 14 -2.5v-12.5q0 -27 -3.5 -43t-10.5 -24t-16.5 -10.5t-22.5 -2.5h-34.5t-22.5 -7t-15 -24t-13 -51l-41 -207q-11 -54 -30.5 -96t-50.5 -70t-74 -42.5t-101 -14.5
q-27 0 -62 4.5t-66 16.5t-52.5 34t-21.5 58q0 32 22 51.5t54 19.5q22 0 40 -10t32.5 -21.5t27.5 -21.5t27 -10q15 0 25 11t16 26t9.5 31.5t5.5 27.5z" />
    <glyph glyph-name="circumflex" unicode="&#x2c6;" horiz-adv-x="527" 
d="M263 750q9 0 27 -7.5t39.5 -20t44 -28.5t41 -32.5t30 -32t11.5 -27.5q0 -17 -10.5 -29.5t-28.5 -12.5q-15 0 -35 9t-41 19.5t-41.5 19.5t-36.5 9q-17 0 -37 -9t-41 -19.5t-41 -19.5t-35 -9q-18 0 -28.5 12.5t-10.5 29.5q0 12 11.5 27.5t30 32t41 32.5t44 28.5t39.5 20
t27 7.5z" />
    <glyph glyph-name="caron" unicode="&#x2c7;" horiz-adv-x="527" 
d="M263 561q-9 0 -27 7.5t-39.5 20t-44 28.5t-41 32.5t-30 32t-11.5 27.5q0 17 10.5 29.5t28.5 12.5q15 0 35 -9t41 -19.5t41 -19.5t37 -9q16 0 36.5 9t41.5 19.5t41 19.5t35 9q18 0 28.5 -12.5t10.5 -29.5q0 -12 -11.5 -27.5t-30 -32t-41 -32.5t-44 -28.5t-39.5 -20
t-27 -7.5z" />
    <glyph glyph-name="ring" unicode="&#x2da;" horiz-adv-x="447" 
d="M376 664q0 -32 -15 -52t-37.5 -32t-49.5 -16.5t-51 -4.5q-27 0 -54.5 4.5t-49.5 16.5t-35.5 32t-13.5 52q0 31 13.5 51.5t35.5 32.5t49.5 16.5t54.5 4.5q24 0 51 -4.5t49.5 -16.5t37.5 -32.5t15 -51.5zM273 664q0 23 -12 40.5t-38 17.5t-38 -17.5t-12 -40.5t12 -40.5
t38 -17.5t38 17.5t12 40.5z" />
    <glyph glyph-name="tilde" unicode="&#x2dc;" horiz-adv-x="609" 
d="M454 728q17 0 32.5 -1.5t27 -7.5t18.5 -17t7 -29q0 -21 -8.5 -39.5t-23.5 -32.5t-35 -22t-42 -8q-29 0 -61 9t-61 19.5t-53.5 19.5t-38.5 9q-9 0 -10.5 -3.5t-1.5 -10.5q0 -24 -15 -33.5t-33 -9.5q-17 0 -32.5 1.5t-27.5 7.5t-19 17t-7 29q0 21 9 39.5t24 32.5t35 22
t42 8q28 0 60 -9t61.5 -19.5t54 -19.5t38.5 -9q9 0 10.5 3.5t1.5 10.5q0 24 15 33.5t33 9.5z" />
    <glyph glyph-name="endash" unicode="&#x2013;" horiz-adv-x="500" 
d="M390 354q33 0 51.5 0.5t28.5 1.5t14.5 1.5t7.5 0.5q12 0 21 -8t9 -22q0 -9 -5 -27t-11.5 -37.5t-13.5 -36t-10 -23.5q-10 -19 -21 -27.5t-33 -8.5q-12 0 -41.5 4t-89.5 4h-187q-33 0 -51.5 -0.5t-28.5 -1.5t-14.5 -1.5t-7.5 -0.5q-12 0 -21 8t-9 22q0 9 5 27t11.5 37.5
t13.5 36t10 23.5q10 19 21 27.5t33 8.5q12 0 41.5 -4t89.5 -4h187z" />
    <glyph glyph-name="emdash" unicode="&#x2014;" horiz-adv-x="1000" 
d="M890 354q33 0 51.5 0.5t28.5 1.5t14.5 1.5t7.5 0.5q12 0 21 -8t9 -22q0 -9 -5 -27t-11.5 -37.5t-13.5 -36t-10 -23.5q-10 -19 -21 -27.5t-33 -8.5q-12 0 -41.5 4t-89.5 4h-687q-33 0 -51.5 -0.5t-28.5 -1.5t-14.5 -1.5t-7.5 -0.5q-12 0 -21 8t-9 22q0 9 5 27t11.5 37.5
t13.5 36t10 23.5q10 19 21 27.5t33 8.5q12 0 41.5 -4t89.5 -4h687z" />
    <glyph glyph-name="quoteleft" unicode="&#x2018;" horiz-adv-x="315" 
d="M270 682q0 -8 -11 -19t-23.5 -25.5t-23.5 -33t-11 -42.5q0 -14 12 -24t26.5 -23t26.5 -33t12 -54q0 -51 -32 -84t-83 -33q-27 0 -49 11t-37.5 29.5t-24 42t-8.5 49.5q0 44 18 92t45 88t58 66t57 26q6 0 14.5 -2t16 -6.5t12.5 -10.5t5 -14z" />
    <glyph glyph-name="quoteright" unicode="&#x2019;" horiz-adv-x="315" 
d="M45 344q0 8 11 19t23.5 25.5t23.5 33t11 42.5q0 14 -12 24t-26.5 23t-26.5 33t-12 54q0 51 32 84t83 33q27 0 49 -11t37.5 -29.5t24 -42.5t8.5 -49q0 -44 -18.5 -92t-45.5 -88t-58 -66t-56 -26q-6 0 -14.5 2t-16 6.5t-12.5 10.5t-5 14z" />
    <glyph glyph-name="quotesinglbase" unicode="&#x201a;" horiz-adv-x="315" 
d="M45 -152q0 8 11 19t23.5 25.5t23.5 33t11 42.5q0 14 -12 24t-26.5 23t-26.5 33t-12 54q0 51 32 84t83 33q27 0 49 -11t37.5 -29.5t24 -42.5t8.5 -49q0 -44 -18.5 -92t-45.5 -88t-58 -66t-56 -26q-6 0 -14.5 2t-16 6.5t-12.5 10.5t-5 14z" />
    <glyph glyph-name="quotedblleft" unicode="&#x201c;" horiz-adv-x="587" 
d="M270 682q0 -8 -11 -19t-23.5 -25.5t-23.5 -33t-11 -42.5q0 -14 12 -24t26.5 -23t26.5 -33t12 -54q0 -51 -32 -84t-83 -33q-27 0 -49 11t-37.5 29.5t-24 42t-8.5 49.5q0 44 18 92t45 88t58 66t57 26q6 0 14.5 -2t16 -6.5t12.5 -10.5t5 -14zM542 682q0 -8 -11 -19
t-23.5 -25.5t-23.5 -33t-11 -42.5q0 -14 12 -24t26.5 -23t26.5 -33t12 -54q0 -51 -32 -84t-83 -33q-27 0 -49 11t-37.5 29.5t-24 42t-8.5 49.5q0 44 18 92t45 88t58 66t57 26q6 0 14.5 -2t16 -6.5t12.5 -10.5t5 -14z" />
    <glyph glyph-name="quotedblright" unicode="&#x201d;" horiz-adv-x="587" 
d="M317 344q0 8 11 19t23.5 25.5t23.5 33t11 42.5q0 14 -12 24t-26.5 23t-26.5 33t-12 54q0 51 32 84t83 33q27 0 49 -11t37.5 -29.5t24 -42.5t8.5 -49q0 -44 -18.5 -92t-45.5 -88t-58 -66t-56 -26q-6 0 -14.5 2t-16 6.5t-12.5 10.5t-5 14zM45 344q0 8 11 19t23.5 25.5
t23.5 33t11 42.5q0 14 -12 24t-26.5 23t-26.5 33t-12 54q0 51 32 84t83 33q27 0 49 -11t37.5 -29.5t24 -42.5t8.5 -49q0 -44 -18.5 -92t-45.5 -88t-58 -66t-56 -26q-6 0 -14.5 2t-16 6.5t-12.5 10.5t-5 14z" />
    <glyph glyph-name="quotedblbase" unicode="&#x201e;" horiz-adv-x="587" 
d="M317 -152q0 8 11 19t23.5 25.5t23.5 33t11 42.5q0 14 -12 24t-26.5 23t-26.5 33t-12 54q0 51 32 84t83 33q27 0 49 -11t37.5 -29.5t24 -42.5t8.5 -49q0 -44 -18.5 -92t-45.5 -88t-58 -66t-56 -26q-6 0 -14.5 2t-16 6.5t-12.5 10.5t-5 14zM45 -152q0 8 11 19t23.5 25.5
t23.5 33t11 42.5q0 14 -12 24t-26.5 23t-26.5 33t-12 54q0 51 32 84t83 33q27 0 49 -11t37.5 -29.5t24 -42.5t8.5 -49q0 -44 -18.5 -92t-45.5 -88t-58 -66t-56 -26q-6 0 -14.5 2t-16 6.5t-12.5 10.5t-5 14z" />
    <glyph glyph-name="dagger" unicode="&#x2020;" horiz-adv-x="758" 
d="M283 326q0 32 -1.5 40.5t-11.5 8.5h-17t-28.5 -1.5t-29 -4t-18.5 -6.5q-10 -9 -14 -21t-9 -22.5t-14 -17.5t-28 -7q-13 0 -26 6.5t-23.5 25t-17.5 52.5t-7 88q0 17 2 44t9.5 52.5t22 44t38.5 18.5q17 0 25.5 -9.5t14.5 -21.5t12.5 -23.5t21.5 -16.5q5 -2 15.5 -3t23 -2
t24.5 -1.5t21 -0.5q10 0 10 12v18v58q0 27 -11 37.5t-24.5 15.5t-24.5 10.5t-11 22.5q0 26 20 42t48 25t57 12t47 3t47 -3t57 -12t48 -25t20 -42q0 -17 -11 -22.5t-24.5 -10.5t-24.5 -15.5t-11 -37.5v-58q0 -3 -0.5 -8t0 -10t3 -8.5t7.5 -3.5q9 0 21 0.5t24.5 1.5t23 2
t15.5 3q15 5 21.5 16.5t12.5 23.5t14.5 21.5t25.5 9.5q24 0 38 -18.5t21.5 -44t10 -52.5t2.5 -44q0 -54 -7 -88t-17.5 -52.5t-23.5 -25t-26 -6.5q-20 0 -28.5 7t-13.5 17.5t-9 22.5t-14 21q-5 4 -19 6.5t-30 4t-29.5 1.5h-16.5t-5.5 -1t-3.5 -6t-1.5 -15t-0.5 -27v-172
q0 -47 6 -75.5t15 -45t19.5 -24t20 -13.5t15.5 -13.5t6 -23.5q0 -5 -3.5 -15t-21 -20.5t-53.5 -18.5t-100 -8q-65 0 -100.5 8t-53 18.5t-21 20.5t-3.5 15q0 16 6 23.5t15.5 13.5t20 13.5t19.5 24t15 44.5t6 76v172z" />
    <glyph glyph-name="daggerdbl" unicode="&#x2021;" horiz-adv-x="758" 
d="M526 427q-33 0 -40.5 -1.5t-9.5 -3.5q-3 -2 -3 -6.5v-8.5v-116q0 -6 1 -9.5t7 -5t17.5 -2t32.5 -0.5h40q18 0 27.5 7.5t17 16t15.5 16t24 7.5q21 0 34 -12.5t20.5 -30.5t10.5 -38t3 -35t-2.5 -35.5t-9.5 -39.5t-19.5 -32.5t-31.5 -13.5q-14 0 -24 9.5t-18.5 22t-17 24.5
t-20.5 17q-12 6 -37 6h-43q-17 0 -20 -2.5t-3 -14.5v-68q0 -30 11 -43t23.5 -20.5t23.5 -15t11 -25.5q0 -22 -20.5 -36.5t-48 -23.5t-55.5 -13t-43 -4t-43 4t-55.5 13t-48 23.5t-20.5 36.5q0 18 11 25.5t23.5 15t23.5 20.5t11 43v61q0 17 -2.5 20.5t-16.5 3.5h-46.5
t-37.5 -6q-12 -5 -20.5 -17t-17 -24.5t-18.5 -22t-24 -9.5q-20 0 -32 13.5t-19 32.5t-9.5 39.5t-2.5 35.5t2.5 35t10 38t21 30.5t34.5 12.5q16 0 24 -7.5t15.5 -16t17 -16t27.5 -7.5h51q17 0 26.5 1t14 2.5t5.5 4.5t1 7v120q0 6 -1 9.5t-5.5 5.5t-15 2.5t-29.5 0.5h-47
q-18 0 -27.5 -7.5t-17 -16t-15.5 -16t-24 -7.5q-21 0 -34.5 12.5t-21 30.5t-10 38t-2.5 35t2.5 35.5t9.5 39.5t19 32.5t32 13.5q14 0 24 -9.5t18.5 -22t17 -24.5t20.5 -17q12 -6 37.5 -6h45.5q14 0 17 3t3 15v67q0 30 -11 43t-23.5 20.5t-23.5 15t-11 25.5q0 22 20.5 36.5
t48 23.5t55.5 13t43 4t43 -4t55.5 -13t48 -23.5t20.5 -36.5q0 -18 -11 -25.5t-23.5 -15t-23.5 -20.5t-11 -43v-66q0 -14 3 -16.5t19 -2.5h44t37 6q12 5 20.5 17t17 24.5t18.5 22t24 9.5q19 0 31.5 -13.5t19.5 -32.5t9.5 -39.5t2.5 -35.5t-3 -35t-10.5 -38t-20.5 -30.5
t-34 -12.5q-16 0 -24 7.5t-15.5 16t-17 16t-27.5 7.5h-45z" />
    <glyph glyph-name="bullet" unicode="&#x2022;" horiz-adv-x="758" 
d="M379 525q36 0 68 -13.5t56 -37.5t37.5 -56t13.5 -68t-13.5 -68t-37.5 -56t-56 -37.5t-68 -13.5t-68 13.5t-56 37.5t-37.5 56t-13.5 68t13.5 68t37.5 56t56 37.5t68 13.5z" />
    <glyph glyph-name="ellipsis" unicode="&#x2026;" horiz-adv-x="1000" 
d="M288 107q0 -25 -9.5 -47t-26 -38.5t-38.5 -26t-47 -9.5t-47 9.5t-38.5 26t-26 38.5t-9.5 47t9.5 47t26 38.5t38.5 26t47 9.5t47 -9.5t38.5 -26t26 -38.5t9.5 -47zM621 107q0 -25 -9.5 -47t-26 -38.5t-38.5 -26t-47 -9.5t-47 9.5t-38.5 26t-26 38.5t-9.5 47t9.5 47
t26 38.5t38.5 26t47 9.5t47 -9.5t38.5 -26t26 -38.5t9.5 -47zM954 107q0 -25 -9.5 -47t-26 -38.5t-38.5 -26t-47 -9.5t-47 9.5t-38.5 26t-26 38.5t-9.5 47t9.5 47t26 38.5t38.5 26t47 9.5t47 -9.5t38.5 -26t26 -38.5t9.5 -47z" />
    <glyph glyph-name="perthousand" unicode="&#x2030;" horiz-adv-x="1313" 
d="M1299 183q0 -43 -19 -77.5t-50 -59t-69.5 -37.5t-78.5 -13q-37 0 -71 11t-60 32t-41.5 51.5t-15.5 70.5q0 47 18.5 83t49.5 60t71.5 36t83.5 12q33 0 66 -13.5t58.5 -36.5t41.5 -53.5t16 -65.5zM1140 125q0 13 -3 37.5t-10.5 49t-19.5 42.5t-30 18q-15 0 -22.5 -12.5
t-7.5 -25.5q0 -6 3 -30t10.5 -50.5t19.5 -47.5t31 -21q17 0 23 13t6 27zM419 542q0 -43 -19 -77.5t-50 -59t-69.5 -37.5t-78.5 -13q-37 0 -71 11t-60 32t-41.5 51.5t-15.5 70.5q0 47 18.5 83t49.5 60t71.5 36t83.5 12q33 0 66 -13.5t58.5 -36.5t41.5 -53.5t16 -65.5z
M260 484q0 13 -3 37.5t-10.5 49t-19.5 42.5t-30 18q-15 0 -22.5 -12.5t-7.5 -25.5q0 -6 3 -30t10.5 -50.5t19.5 -47.5t31 -21q17 0 23 13t6 27zM866 183q0 -43 -19 -77.5t-50 -59t-69.5 -37.5t-78.5 -13q-37 0 -71 11t-60 32t-41.5 51.5t-15.5 70.5q0 47 18.5 83t49.5 60
t71.5 36t83.5 12q33 0 66 -13.5t58.5 -36.5t41.5 -53.5t16 -65.5zM707 125q0 13 -3 37.5t-10.5 49t-19.5 42.5t-30 18q-15 0 -22.5 -12.5t-7.5 -25.5q0 -6 3 -30t10.5 -50.5t19.5 -47.5t31 -21q17 0 23 13t6 27zM363 145q-27 -45 -40.5 -74.5t-23 -46t-18.5 -23t-26 -6.5
q-6 0 -15.5 1t-19.5 4t-17 8t-7 13q0 12 5.5 21t21 32t44 67t75.5 125l233 405q11 23 23 33.5t38 10.5q6 0 14 -0.5t15.5 -3t12.5 -7t5 -12.5q0 -11 -6.5 -23.5t-21.5 -35.5t-40 -61.5t-62 -102.5z" />
    <glyph glyph-name="guilsinglleft" unicode="&#x2039;" horiz-adv-x="293" 
d="M100 375q9 10 25 26.5t34.5 32t37 26.5t33.5 11q18 0 33.5 -13t15.5 -31q0 -16 -15 -39.5t-32.5 -49t-32.5 -50.5t-15 -44t15 -44t32.5 -50.5t32.5 -49t15 -39.5q0 -18 -15.5 -31t-33.5 -13q-15 0 -33.5 11t-37 26.5t-34.5 32t-25 26.5q-11 12 -26 27.5t-28.5 32.5
t-22.5 35.5t-9 35.5t9 35.5t22.5 35.5t28.5 32.5t26 27.5z" />
    <glyph glyph-name="guilsinglright" unicode="&#x203a;" horiz-adv-x="293" 
d="M193 113q-9 -10 -25 -26.5t-34.5 -32t-37 -26.5t-33.5 -11q-18 0 -33.5 13t-15.5 31q0 16 15 39.5t32.5 49t32.5 50.5t15 44t-15 44t-32.5 50.5t-32.5 49t-15 39.5q0 18 15.5 31t33.5 13q15 0 33.5 -11t37 -26.5t34.5 -32t25 -26.5q11 -12 26 -27.5t28.5 -32.5
t22.5 -35.5t9 -35.5t-9 -35.5t-22.5 -35.5t-28.5 -32.5t-26 -27.5z" />
    <glyph glyph-name="Euro" unicode="&#x20ac;" 
d="M32 363q1 20 7 33t21 13h29q11 48 39 87.5t68 67t87.5 42.5t97.5 15q39 0 73 -7t60.5 -19.5t43 -29.5t21.5 -36q5 -25 5 -42q0 -27 -12.5 -44.5t-43.5 -17.5q-25 0 -35 10.5t-20.5 23.5t-31 23.5t-66.5 10.5q-31 0 -51.5 -4.5t-34.5 -15t-23 -26.5t-16 -38h193
q3 0 8.5 -0.5t11.5 -4.5t10.5 -11.5t4.5 -22.5q0 -19 -9.5 -36.5t-27.5 -17.5h-202q0 -8 0.5 -11.5t1.5 -11.5h163q3 0 9 -0.5t12 -5t10 -14t4 -26.5q0 -19 -9.5 -35.5t-28.5 -16.5h-149q5 -14 18 -25.5t30 -19t36.5 -11.5t38.5 -4q39 0 56.5 10.5t29.5 23t25 23t42 10.5
q42 0 62 -16.5t20 -58.5q0 -26 -16 -52t-46.5 -46.5t-74.5 -33.5t-100 -13q-50 0 -95.5 15.5t-82.5 44t-62.5 67.5t-35.5 86h-33q-20 0 -26 10.5t-6 33.5q0 21 6.5 37.5t21.5 16.5h16q-1 7 -1 9.5v10.5v3h-11q-20 0 -26 12t-6 35z" />
    <glyph glyph-name="trademark" unicode="&#x2122;" horiz-adv-x="1000" 
d="M303 424q0 -35 8.5 -47.5t18 -16.5t18 -7t8.5 -20q0 -15 -13 -23.5t-31.5 -12.5t-39 -5t-35.5 -1q-11 0 -33.5 0.5t-45.5 4.5t-40.5 13t-17.5 26q0 14 7.5 18t17 7.5t18 10t9.5 25.5l9 167q1 21 -0.5 33t-4 18t-6.5 7.5t-7 1.5q-10 0 -18 -11t-17 -23.5t-21 -23.5
t-30 -11q-17 0 -26 13t-9 29q0 17 6.5 37t17 36.5t24 27.5t26.5 11q2 0 6.5 -1t12.5 -2q9 -2 22 -3t30 -1h142q18 0 28 1.5t17 3.5t11.5 3t11.5 1q13 0 26 -11t22.5 -27.5t15.5 -35.5t6 -34q0 -21 -11 -34t-34 -13q-19 0 -29.5 10.5t-17.5 23t-14 23t-18 10.5q-8 0 -12.5 -5
t-6 -12.5t-1.5 -15.5v-14v-151zM783 629q12 23 20 38t18 24t26 12.5t45 3.5q9 0 23.5 -0.5t27.5 -4.5t22.5 -11.5t9.5 -20.5q0 -14 -5 -18t-11.5 -8t-12.5 -12.5t-7 -30.5q-2 -23 -3.5 -44.5t-1.5 -44.5q0 -26 2.5 -52t2.5 -52q0 -28 6 -39.5t12.5 -16.5t12.5 -8.5t6 -15.5
q0 -15 -12.5 -22.5t-30 -10.5t-35 -3.5t-26.5 -0.5t-26 0.5t-34.5 3.5t-30 10t-12.5 21q0 8 4 12t9.5 8.5t11 11t8.5 19.5q2 8 2 27.5v35.5v9t-0.5 12.5t-3 11t-7.5 4.5q-7 0 -13.5 -8t-12.5 -19t-10 -21.5t-6 -15.5l-30 -66q-2 -4 -5 -10.5t-6.5 -13t-8 -11.5t-10.5 -5
q-7 0 -11.5 3.5t-9 12t-11 23.5t-16.5 38l-34 75q-2 6 -7 15.5t-13 9.5q-11 0 -11.5 -20t-0.5 -63q0 -32 6 -43t12.5 -14t12.5 -4.5t6 -14.5q0 -12 -10 -19t-23.5 -10.5t-28 -4t-22.5 -0.5t-20.5 1t-24 4t-20 9.5t-8.5 17.5q0 10 5 13.5t11.5 6.5t13.5 9t10 21q1 4 2.5 23
t3 46t2.5 59.5t1 65.5q0 28 -3.5 43t-8.5 22.5t-11.5 9.5t-11.5 4t-8.5 6t-3.5 15q0 6 3.5 13t14 13t30 10t51.5 4q24 0 37.5 -1.5t21 -6t12.5 -12.5t12 -21l55 -101q4 -7 10 -20t17 -13t16 10l9 18z" />
    <glyph glyph-name="uniE300" unicode="&#xe300;" horiz-adv-x="375" 
d="M268 745q-51 0 -91 15t-67 34.5t-41.5 39t-14.5 28.5q0 17 14.5 28t34.5 17t40.5 8.5t32.5 2.5q6 0 20 -1t28 -4.5t25 -9.5t11 -15q0 -8 -4 -12t-4 -11q0 -10 11 -18.5t24 -17.5t24 -20t11 -27q0 -24 -17 -30.5t-37 -6.5z" />
    <glyph glyph-name="uniE301" unicode="&#xe301;" horiz-adv-x="375" 
d="M108 745q-20 0 -37 6.5t-17 30.5q0 16 11 27t24 20t24 17.5t11 18.5q0 7 -4 11t-4 12q0 9 11 15t25 9.5t28 4.5t20 1q12 0 32.5 -2.5t40.5 -8.5t34.5 -17t14.5 -28q0 -9 -14.5 -28.5t-41.5 -39t-67 -34.5t-91 -15z" />
    <glyph glyph-name="uniE302" unicode="&#xe302;" horiz-adv-x="375" 
d="M187 934q9 0 27 -7.5t39.5 -20t44 -28.5t41 -32.5t30 -32t11.5 -27.5q0 -17 -10.5 -29.5t-28.5 -12.5q-15 0 -35 9t-41 19.5t-41.5 19.5t-36.5 9q-17 0 -37 -9t-41 -19.5t-41 -19.5t-35 -9q-18 0 -28.5 12.5t-10.5 29.5q0 12 11.5 27.5t30 32t41 32.5t44 28.5t39.5 20
t27 7.5z" />
    <glyph glyph-name="uniE303" unicode="&#xe303;" horiz-adv-x="375" 
d="M187 745q-9 0 -27 7.5t-39.5 20t-44 28.5t-41 32.5t-30 32t-11.5 27.5q0 17 10.5 29.5t28.5 12.5q15 0 35 -9t41 -19.5t41 -19.5t37 -9q16 0 36.5 9t41.5 19.5t41 19.5t35 9q18 0 28.5 -12.5t10.5 -29.5q0 -12 -11.5 -27.5t-30 -32t-41 -32.5t-44 -28.5t-39.5 -20
t-27 -7.5z" />
    <glyph glyph-name="uniE304" unicode="&#xe304;" horiz-adv-x="375" 
d="M334 912q17 0 32.5 -1.5t27 -7.5t18.5 -17t7 -29q0 -21 -8.5 -39.5t-23.5 -32.5t-35 -22t-42 -8q-29 0 -61 9t-61 19.5t-53.5 19.5t-38.5 9q-9 0 -10.5 -3.5t-1.5 -10.5q0 -24 -15 -33.5t-33 -9.5q-17 0 -32.5 1.5t-27.5 7.5t-19 17t-7 29q0 21 9 39.5t24 32.5t35 22
t42 8q28 0 60 -9t61.5 -19.5t54 -19.5t38.5 -9q9 0 10.5 3.5t1.5 10.5q0 24 15 33.5t33 9.5z" />
    <glyph glyph-name="uniE305" unicode="&#xe305;" horiz-adv-x="375" 
d="M166 840q0 -25 -19 -41.5t-45.5 -26t-54.5 -13.5t-47 -4q-15 0 -31.5 3.5t-31 11t-23.5 20.5t-9 31q0 27 17 43t41 25t50.5 12t45.5 3q15 0 33.5 -2.5t35 -9.5t27.5 -19.5t11 -32.5zM471 840q0 -25 -19 -41.5t-45.5 -26t-54.5 -13.5t-47 -4q-15 0 -31.5 3.5t-31 11
t-23.5 20.5t-9 31q0 27 17 43t41 25t50.5 12t45.5 3q15 0 33.5 -2.5t35 -9.5t27.5 -19.5t11 -32.5z" />
    <glyph glyph-name="uniE308" unicode="&#xe308;" horiz-adv-x="375" 
d="M341 848q0 -32 -15 -52t-37.5 -32t-49.5 -16.5t-51 -4.5q-27 0 -54.5 4.5t-49.5 16.5t-35.5 32t-13.5 52q0 31 13.5 51.5t35.5 32.5t49.5 16.5t54.5 4.5q24 0 51 -4.5t49.5 -16.5t37.5 -32.5t15 -51.5zM238 848q0 23 -12 40.5t-38 17.5t-38 -17.5t-12 -40.5t12 -40.5
t38 -17.5t38 17.5t12 40.5z" />
    </font>
</defs>
</svg>
